SplineFontDB: 3.0
FontName: Vazir-Medium
FullName: Vazir Medium
FamilyName: Vazir
Weight: Medium
Copyright: Copyright (c) 2003 by Bitstream, Inc. All Rights Reserved.\nDejaVu changes are in public domain\nChanges by Saber Rastikerdar are in public domain.\nNon-Arabic(Latin) glyphs and data in extended version are imported from Roboto font under the Apache License, Version 2.0.
Version: 15.0.0
ItalicAngle: 0
UnderlinePosition: -500
UnderlineWidth: 100
Ascent: 1638
Descent: 410
InvalidEm: 0
LayerCount: 2
Layer: 0 1 "Back" 1
Layer: 1 1 "Fore" 0
PreferredKerning: 4
XUID: [1021 502 1027637223 14252028]
UniqueID: 4231313
UseUniqueID: 1
FSType: 0
OS2Version: 1
OS2_WeightWidthSlopeOnly: 0
OS2_UseTypoMetrics: 1
CreationTime: 1431850356
ModificationTime: 1504166832
PfmFamily: 33
TTFWeight: 500
TTFWidth: 5
LineGap: 0
VLineGap: 0
Panose: 2 11 6 3 3 8 4 2 2 4
OS2TypoAscent: 2350
OS2TypoAOffset: 0
OS2TypoDescent: -1100
OS2TypoDOffset: 0
OS2TypoLinegap: 0
OS2WinAscent: 2350
OS2WinAOffset: 0
OS2WinDescent: 1100
OS2WinDOffset: 0
HheadAscent: 2350
HheadAOffset: 0
HheadDescent: -1100
HheadDOffset: 0
OS2SubXSize: 1331
OS2SubYSize: 1433
OS2SubXOff: 0
OS2SubYOff: 286
OS2SupXSize: 1331
OS2SupYSize: 1433
OS2SupXOff: 0
OS2SupYOff: 983
OS2StrikeYSize: 102
OS2StrikeYPos: 530
OS2CapHeight: 1638
OS2XHeight: 1082
OS2Vendor: 'PfEd'
OS2CodePages: 00000041.20080000
OS2UnicodeRanges: 80002003.80000000.00000008.00000000
Lookup: 1 9 0 "'fina' Terminal Forms in Arabic lookup 9" { "'fina' Terminal Forms in Arabic lookup 9 subtable"  } ['fina' ('arab' <'KUR ' 'SND ' 'URD ' 'dflt' > ) ]
Lookup: 1 9 0 "'medi' Medial Forms in Arabic lookup 11" { "'medi' Medial Forms in Arabic lookup 11 subtable"  } ['medi' ('arab' <'KUR ' 'SND ' 'URD ' 'dflt' > ) ]
Lookup: 1 9 0 "'init' Initial Forms in Arabic lookup 13" { "'init' Initial Forms in Arabic lookup 13 subtable"  } ['init' ('arab' <'KUR ' 'SND ' 'URD ' 'dflt' > ) ]

StartChar: exclam
Encoding: 33 33 1
GlifName: exclam
Width: 641
VWidth: 2784
GlyphClass: 2
Flags: W
LayerCount: 2
Fore
SplineSet
165.091796875 160.493164062 m 0,0,1
 165.091796875 224.65234375 165.091796875 224.65234375 210.60546875 270.165039062 c 128,-1,2
 256.119140625 315.6796875 256.119140625 315.6796875 320.278320312 315.6796875 c 128,-1,3
 384.438476562 315.6796875 384.438476562 315.6796875 429.952148438 270.165039062 c 128,-1,4
 475.463867188 224.65234375 475.463867188 224.65234375 475.463867188 160.493164062 c 128,-1,5
 475.463867188 96.333984375 475.463867188 96.333984375 429.952148438 50.8212890625 c 128,-1,6
 384.438476562 5.306640625 384.438476562 5.306640625 320.278320312 5.306640625 c 0,7,8
 301.837890625 5.306640625 301.837890625 5.306640625 284.638671875 9.2197265625 c 128,-1,9
 267.439453125 13.1328125 267.439453125 13.1328125 251.71484375 20.9345703125 c 128,-1,10
 235.990234375 28.736328125 235.990234375 28.736328125 222.126953125 40.2861328125 c 0,11,12
 206.693359375 53.1435546875 206.693359375 53.1435546875 195.208007812 68.3876953125 c 128,-1,13
 183.72265625 83.6318359375 183.72265625 83.6318359375 176.513671875 100.998046875 c 0,14,15
 165.091796875 128.512695312 165.091796875 128.512695312 165.091796875 160.493164062 c 0,0,1
213.161132812 1466.07128906 m 1,16,-1
 430.612304688 1466.07128906 l 1,17,-1
 451.125976562 1466.07128906 l 1,18,-1
 450.60546875 1445.56445312 l 1,19,-1
 426.087890625 468.817382812 l 5,20,-1
 425.59375 449.32421875 l 5,21,-1
 406.094726562 449.32421875 l 5,22,-1
 238.90234375 449.32421875 l 5,23,-1
 219.427734375 449.32421875 l 5,24,-1
 218.909179688 468.791992188 l 5,25,-1
 193.16796875 1445.5390625 l 1,26,-1
 192.62109375 1466.07128906 l 1,27,-1
 213.161132812 1466.07128906 l 1,16,-1
EndSplineSet
EndChar

StartChar: period
Encoding: 46 46 2
GlifName: period
Width: 641
VWidth: 2784
GlyphClass: 2
Flags: W
LayerCount: 2
Fore
SplineSet
165.091796875 160.493164062 m 0,0,1
 165.091796875 224.65234375 165.091796875 224.65234375 210.60546875 270.165039062 c 128,-1,2
 256.119140625 315.6796875 256.119140625 315.6796875 320.278320312 315.6796875 c 128,-1,3
 384.438476562 315.6796875 384.438476562 315.6796875 429.952148438 270.165039062 c 128,-1,4
 475.463867188 224.65234375 475.463867188 224.65234375 475.463867188 160.493164062 c 128,-1,5
 475.463867188 96.333984375 475.463867188 96.333984375 429.952148438 50.8212890625 c 128,-1,6
 384.438476562 5.306640625 384.438476562 5.306640625 320.278320312 5.306640625 c 0,7,8
 301.837890625 5.306640625 301.837890625 5.306640625 284.638671875 9.2197265625 c 128,-1,9
 267.439453125 13.1328125 267.439453125 13.1328125 251.71484375 20.9345703125 c 128,-1,10
 235.990234375 28.736328125 235.990234375 28.736328125 222.126953125 40.2861328125 c 0,11,12
 206.693359375 53.1435546875 206.693359375 53.1435546875 195.208007812 68.3876953125 c 128,-1,13
 183.72265625 83.6318359375 183.72265625 83.6318359375 176.513671875 100.998046875 c 0,14,15
 165.091796875 128.512695312 165.091796875 128.512695312 165.091796875 160.493164062 c 0,0,1
EndSplineSet
EndChar

StartChar: colon
Encoding: 58 58 3
GlifName: colon
Width: 641
VWidth: 2784
GlyphClass: 2
Flags: W
LayerCount: 2
Fore
SplineSet
165.091796875 1030.49316406 m 0,0,1
 165.091796875 1094.65234375 165.091796875 1094.65234375 210.60546875 1140.16503906 c 128,-1,2
 256.119140625 1185.6796875 256.119140625 1185.6796875 320.278320312 1185.6796875 c 0,3,4
 336.087890625 1185.6796875 336.087890625 1185.6796875 351.020507812 1182.77441406 c 128,-1,5
 365.953125 1179.86914062 365.953125 1179.86914062 379.729492188 1174.15039062 c 128,-1,6
 393.505859375 1168.43066406 393.505859375 1168.43066406 406.125 1159.90136719 c 128,-1,7
 418.744140625 1151.37304688 418.744140625 1151.37304688 429.952148438 1140.16503906 c 0,8,9
 452.404296875 1117.71289062 452.404296875 1117.71289062 463.93359375 1089.93652344 c 128,-1,10
 475.463867188 1062.16113281 475.463867188 1062.16113281 475.463867188 1030.49316406 c 0,11,12
 475.463867188 966.333984375 475.463867188 966.333984375 429.952148438 920.821289062 c 0,13,14
 407.499023438 898.368164062 407.499023438 898.368164062 379.72265625 886.836914062 c 128,-1,15
 351.946289062 875.306640625 351.946289062 875.306640625 320.278320312 875.306640625 c 0,16,17
 309.220703125 875.306640625 309.220703125 875.306640625 298.583007812 876.719726562 c 128,-1,18
 287.9453125 878.131835938 287.9453125 878.131835938 277.80078125 880.952148438 c 128,-1,19
 267.65625 883.772460938 267.65625 883.772460938 258.069335938 887.966796875 c 128,-1,20
 248.481445312 892.162109375 248.481445312 892.162109375 239.46484375 897.7578125 c 128,-1,21
 230.44921875 903.353515625 230.44921875 903.353515625 222.126953125 910.286132812 c 0,22,23
 206.693359375 923.143554688 206.693359375 923.143554688 195.208007812 938.387695312 c 128,-1,24
 183.72265625 953.631835938 183.72265625 953.631835938 176.513671875 970.998046875 c 0,25,26
 165.091796875 998.512695312 165.091796875 998.512695312 165.091796875 1030.49316406 c 0,0,1
165.091796875 160.493164062 m 0,27,28
 165.091796875 224.65234375 165.091796875 224.65234375 210.60546875 270.165039062 c 128,-1,29
 256.119140625 315.6796875 256.119140625 315.6796875 320.278320312 315.6796875 c 128,-1,30
 384.438476562 315.6796875 384.438476562 315.6796875 429.952148438 270.165039062 c 128,-1,31
 475.463867188 224.65234375 475.463867188 224.65234375 475.463867188 160.493164062 c 128,-1,32
 475.463867188 96.333984375 475.463867188 96.333984375 429.952148438 50.8212890625 c 128,-1,33
 384.438476562 5.306640625 384.438476562 5.306640625 320.278320312 5.306640625 c 0,34,35
 301.837890625 5.306640625 301.837890625 5.306640625 284.638671875 9.2197265625 c 128,-1,36
 267.439453125 13.1328125 267.439453125 13.1328125 251.71484375 20.9345703125 c 128,-1,37
 235.990234375 28.736328125 235.990234375 28.736328125 222.126953125 40.2861328125 c 0,38,39
 206.693359375 53.1435546875 206.693359375 53.1435546875 195.208007812 68.3876953125 c 128,-1,40
 183.72265625 83.6318359375 183.72265625 83.6318359375 176.513671875 100.998046875 c 0,41,42
 165.091796875 128.512695312 165.091796875 128.512695312 165.091796875 160.493164062 c 0,27,28
EndSplineSet
EndChar

StartChar: afii57388
Encoding: 1548 1548 5
GlifName: afii57388
Width: 739
VWidth: 2792
GlyphClass: 2
Flags: W
LayerCount: 2
Fore
SplineSet
215.892578125 313.9453125 m 0,0,1
 266.893554688 566.372070312 266.893554688 566.372070312 470.081054688 720.37890625 c 2,2,-1
 481.044921875 728.689453125 l 1,3,-1
 492.725585938 721.422851562 l 1,4,-1
 540.959960938 691.418945312 l 1,5,-1
 563.559570312 677.361328125 l 1,6,-1
 543.76953125 659.565429688 l 2,7,8
 399.161132812 529.52734375 399.161132812 529.52734375 377.8203125 329.026367188 c 1,9,10
 504.287109375 325.057617188 504.287109375 325.057617188 540.494140625 253.907226562 c 0,11,12
 562.11328125 210.474609375 562.11328125 210.474609375 561.083007812 167.609375 c 0,13,14
 560.510742188 129.45703125 560.510742188 129.45703125 549.276367188 99.7138671875 c 128,-1,15
 538.041992188 69.970703125 538.041992188 69.970703125 517.079101562 49.904296875 c 128,-1,16
 496.116210938 29.837890625 496.116210938 29.837890625 465.546875 19.3857421875 c 128,-1,17
 434.9765625 8.9326171875 434.9765625 8.9326171875 396.047851562 8.9072265625 c 0,18,19
 365.9609375 8.78125 365.9609375 8.78125 340.470703125 13.802734375 c 0,20,21
 251.349609375 31.3603515625 251.349609375 31.3603515625 220.854492188 108.931640625 c 128,-1,22
 190.359375 186.501953125 190.359375 186.501953125 215.892578125 313.9453125 c 0,0,1
EndSplineSet
EndChar

StartChar: uni0615
Encoding: 1557 1557 6
GlifName: uni0615
Width: -29
VWidth: 2714
GlyphClass: 4
Flags: W
AnchorPoint: "Anchor-10" 658.199 1624.46 mark 0
AnchorPoint: "Anchor-9" 658.199 1624.46 mark 0
AnchorPoint: "Anchor-1" 672.366 2447.86 basemark 0
AnchorPoint: "Anchor-1" 658.199 1624.46 mark 0
LayerCount: 2
Fore
SplineSet
564.266281427 1800.00390625 m 1,0,-1
 677.703125 1800.00390625 l 2,1,2
 728.681230032 1800.00390625 728.681230032 1800.00390625 769.561201846 1808.38961239 c 128,-1,3
 810.441173661 1816.77531853 810.441173661 1816.77531853 841.160002136 1833.30768584 c 0,4,5
 900.284513426 1865.1275236 900.284513426 1865.1275236 902.592716826 1912.87933819 c 0,6,7
 903.783568761 1937.51552965 903.783568761 1937.51552965 897.432477672 1952.4899759 c 128,-1,8
 891.081386582 1967.46442215 891.081386582 1967.46442215 877.62103305 1974.75574675 c 0,9,10
 780.863349631 2028.75731205 780.863349631 2028.75731205 564.266281427 1800.00390625 c 1,0,-1
1001.13281629 1928.8028505 m 0,11,12
 1001.06333496 1816.42956871 1001.06333496 1816.42956871 916.607311692 1760.25189373 c 128,-1,13
 832.151288422 1704.07421875 832.151288422 1704.07421875 668.384765625 1704.07421875 c 2,14,-1
 354.936523438 1704.07421875 l 1,15,-1
 344.936523438 1704.07421875 l 1,16,-1
 344.936523438 1714.07421875 l 1,17,-1
 344.936523438 1790.00390625 l 1,18,-1
 344.936523438 1800.00390625 l 1,19,-1
 354.936523438 1800.00390625 l 1,20,-1
 452.987304688 1800.00390625 l 1,21,-1
 452.987304688 2322.15039062 l 1,22,-1
 452.987304688 2332.27633024 l 1,23,-1
 463.112451332 2332.14960751 l 1,24,-1
 540.359521644 2331.18281064 l 1,25,-1
 550.256564289 2331.05894277 l 1,26,-1
 550.234349814 2321.16114994 l 1,27,-1
 549.33404614 1920.02543887 l 1,28,29
 650.097716103 2029.1374265 650.097716103 2029.1374265 741.506070553 2068.47969434 c 128,-1,30
 832.914425004 2107.82196218 832.914425004 2107.82196218 915.941917181 2076.0414206 c 0,31,32
 1000.99151895 2043.91551542 1000.99151895 2043.91551542 1001.13281629 1928.8028505 c 0,11,12
EndSplineSet
EndChar

StartChar: uni061B
Encoding: 1563 1563 7
GlifName: uni061B_
Width: 739
VWidth: 2792
GlyphClass: 2
Flags: W
LayerCount: 2
Fore
SplineSet
242.091796875 160.493164062 m 0,0,1
 242.091796875 224.65234375 242.091796875 224.65234375 287.60546875 270.165039062 c 128,-1,2
 333.119140625 315.6796875 333.119140625 315.6796875 397.278320312 315.6796875 c 128,-1,3
 461.438476562 315.6796875 461.438476562 315.6796875 506.952148438 270.165039062 c 128,-1,4
 552.463867188 224.65234375 552.463867188 224.65234375 552.463867188 160.493164062 c 128,-1,5
 552.463867188 96.333984375 552.463867188 96.333984375 506.952148438 50.8212890625 c 128,-1,6
 461.438476562 5.306640625 461.438476562 5.306640625 397.278320312 5.306640625 c 0,7,8
 341.115234375 5.306640625 341.115234375 5.306640625 299.126953125 40.2861328125 c 0,9,10
 267.924804688 66.2802734375 267.924804688 66.2802734375 253.513671875 100.998046875 c 0,11,12
 242.091796875 128.512695312 242.091796875 128.512695312 242.091796875 160.493164062 c 0,0,1
215.892578125 743.9453125 m 4,13,14
 267.106534465 996.525413145 267.106534465 996.525413145 470.081054688 1150.37890625 c 6,15,-1
 481.044921875 1158.68945312 l 5,16,-1
 492.725585938 1151.42285156 l 5,17,-1
 540.959960938 1121.41894531 l 5,18,-1
 563.559570312 1107.36132812 l 5,19,-1
 543.76953125 1089.56542969 l 6,20,21
 399 959 399 959 377.8203125 759.026367188 c 5,22,23
 506 755 506 755 540.494140625 683.907226562 c 4,24,25
 562 640 562 640 561.083007812 597.609375 c 4,26,27
 560 521 560 521 517.122070312 479.999023438 c 4,28,29
 474 439 474 439 396.047851562 438.907226562 c 4,30,31
 366 439 366 439 340.470703125 443.802734375 c 4,32,33
 251 461 251 461 220.854492188 538.931640625 c 4,34,35
 190 617 190 617 215.892578125 743.9453125 c 4,13,14
EndSplineSet
EndChar

StartChar: uni061F
Encoding: 1567 1567 8
GlifName: uni061F_
Width: 974
VWidth: 2784
GlyphClass: 2
Flags: W
LayerCount: 2
Fore
SplineSet
443.60546875 270.165039062 m 128,-1,1
 489.119140625 315.6796875 489.119140625 315.6796875 553.278320312 315.6796875 c 0,2,3
 642.603385398 315.6796875 642.603385398 315.6796875 688.041992188 237.841796875 c 0,4,5
 708.463867188 202.861792483 708.463867188 202.861792483 708.463867188 149.597888429 c 128,-1,6
 708.463867188 96.333984375 708.463867188 96.333984375 662.952148438 50.8212890625 c 128,-1,7
 617.438476562 5.306640625 617.438476562 5.306640625 557.276855469 5.306640625 c 128,-1,8
 497.115234375 5.306640625 497.115234375 5.306640625 460.520019531 35.7934570312 c 0,9,10
 398.091796875 87.8012884053 398.091796875 87.8012884053 398.091796875 156.226816078 c 128,-1,0
 398.091796875 224.65234375 398.091796875 224.65234375 443.60546875 270.165039062 c 128,-1,1
695.799804688 1026.24804688 m 1,11,-1
 695.799804688 1054.88574219 l 2,12,13
 696 1175 696 1175 618.625976562 1212.09863281 c 0,14,15
 579 1231 579 1231 517.583007812 1230.89453125 c 0,16,17
 368 1231 368 1231 329.810546875 1117.17285156 c 0,18,19
 290 999 290 999 454.032226562 826.560546875 c 0,20,21
 671.517656988 598.505783863 671.517656988 598.505783863 674.963867188 477.173828125 c 6,22,-1
 675.83984375 446.333007812 l 1,23,-1
 434.1171875 446.333007812 l 1,24,-1
 432.4375 474.490234375 l 6,25,26
 428 556 428 556 253.7890625 719.27734375 c 0,27,28
 81 883 81 883 85.00390625 1075.40527344 c 0,29,30
 88 1221 88 1221 177.002929688 1322.23242188 c 0,31,32
 304 1465 304 1465 501.998046875 1464.375 c 0,33,34
 896 1463 896 1463 896 1056 c 2,35,-1
 896 1026.25 l 1,36,-1
 876 1026.25 l 1,37,-1
 715.799804688 1026.24804688 l 1,38,-1
 695.799804688 1026.24804688 l 1,11,-1
EndSplineSet
EndChar

StartChar: uni0621
Encoding: 1569 1569 9
GlifName: uni0621
Width: 938
VWidth: 2972
GlyphClass: 2
Flags: W
AnchorPoint: "Anchor-7" 465.326 -219.646 basechar 0
AnchorPoint: "Anchor-10" 483.848 1392.06 basechar 0
LayerCount: 2
Fore
SplineSet
97.76953125 31.8525390625 m 1,0,-1
 97.76953125 209.793945312 l 1,1,-1
 97.76953125 220.801757812 l 1,2,-1
 107.069335938 226.690429688 l 2,3,4
 213.640625 294.180664062 213.640625 294.180664062 309.791015625 330.817382812 c 1,5,6
 106.015625 453.5625 106.015625 453.5625 106.553710938 639.395507812 c 0,7,8
 107.026367188 770.37890625 107.026367188 770.37890625 195.125 874.100585938 c 0,9,10
 299.821289062 996.009765625 299.821289062 996.009765625 488.5703125 995.806640625 c 0,11,12
 652.370117188 996.008789062 652.370117188 996.008789062 776.932617188 889.573242188 c 2,13,-1
 788.258789062 879.895507812 l 1,14,-1
 782.228515625 866.2734375 l 1,15,-1
 725.65234375 738.455078125 l 1,16,-1
 716.911132812 718.704101562 l 1,17,-1
 697.889648438 728.936523438 l 2,18,19
 602.923828125 780.020507812 602.923828125 780.020507812 500.313476562 780.4375 c 0,20,21
 403.340820312 780.23046875 403.340820312 780.23046875 359.178710938 745.5390625 c 128,-1,22
 315.015625 710.846679688 315.015625 710.846679688 315.028320312 639.262695312 c 0,23,24
 315.002929688 528.380859375 315.002929688 528.380859375 520.298828125 430.963867188 c 1,25,-1
 796.540039062 486.752929688 l 1,26,-1
 816.93359375 490.87109375 l 1,27,-1
 820.244140625 470.331054688 l 1,28,-1
 848.041992188 297.883789062 l 1,29,-1
 851.37109375 277.234375 l 1,30,-1
 830.592773438 274.833007812 l 2,31,32
 534.24609375 240.588867188 534.24609375 240.588867188 127.490234375 14.3740234375 c 2,33,-1
 97.76953125 -2.1552734375 l 1,34,-1
 97.76953125 31.8525390625 l 1,0,-1
EndSplineSet
EndChar

StartChar: uni0627
Encoding: 1575 1575 15
GlifName: uni0627
Width: 497
VWidth: 2972
GlyphClass: 2
Flags: W
AnchorPoint: "Anchor-10" 249.871 1603.46 basechar 0
AnchorPoint: "Anchor-7" 253.587 -216.365 basechar 0
LayerCount: 2
Fore
SplineSet
170.890625 1458.15039062 m 5,0,-1
 344.205078125 1458.15039062 l 5,1,-1
 364.205078125 1458.15039062 l 5,2,-1
 364.205078125 1438.15039062 l 5,3,-1
 364.205078125 20.751953125 l 1,4,-1
 364.205078125 0.751953125 l 1,5,-1
 344.205078125 0.751953125 l 1,6,-1
 170.890625 0.751953125 l 1,7,-1
 150.890625 0.751953125 l 1,8,-1
 150.890625 20.751953125 l 1,9,-1
 150.890625 1438.15039062 l 5,10,-1
 150.890625 1458.15039062 l 5,11,-1
 170.890625 1458.15039062 l 5,0,-1
EndSplineSet
Substitution2: "'fina' Terminal Forms in Arabic lookup 9 subtable" uniFE8E
EndChar

StartChar: uni062C
Encoding: 1580 1580 20
GlifName: uni062C_
Width: 1386
VWidth: 2703
GlyphClass: 2
Flags: W
AnchorPoint: "Anchor-7" 536.833 -922.619 basechar 0
AnchorPoint: "Anchor-10" 633.478 1366.07 basechar 0
LayerCount: 2
Fore
SplineSet
791.528320312 -701.249023438 m 1024
EndSplineSet
Refer: 21 1581 N 1 0 0 1 0 0 2
Refer: 264 -1 S 1.07 0 0 1.07 701.95 -154.716 2
Substitution2: "'fina' Terminal Forms in Arabic lookup 9 subtable" uniFE9E
Substitution2: "'medi' Medial Forms in Arabic lookup 11 subtable" uniFEA0
Substitution2: "'init' Initial Forms in Arabic lookup 13 subtable" uniFE9F
EndChar

StartChar: uni062D
Encoding: 1581 1581 21
GlifName: uni062D_
Width: 1386
VWidth: 2972
GlyphClass: 2
Flags: W
AnchorPoint: "Anchor-7" 536.833 -902.619 basechar 0
AnchorPoint: "Anchor-10" 633.478 1386.07 basechar 0
LayerCount: 2
Fore
SplineSet
104.987304688 -124.852539062 m 0,0,1
 104.987304688 163.37890625 104.987304688 163.37890625 276.095703125 351.393554688 c 128,-1,2
 447.203125 539.408203125 447.203125 539.408203125 784.044921875 624.821289062 c 1,3,4
 772.123046875 629.545898438 772.123046875 629.545898438 758.640625 634.90234375 c 128,-1,5
 745.158203125 640.259765625 745.158203125 640.259765625 729.424804688 646.5234375 c 0,6,7
 538.145507812 723.983398438 538.145507812 723.983398438 469.56640625 723.6875 c 0,8,9
 434.750976562 723.784179688 434.750976562 723.784179688 404.62109375 714.477539062 c 128,-1,10
 374.491210938 705.171875 374.491210938 705.171875 348.290039062 686.110351562 c 128,-1,11
 322.087890625 667.048828125 322.087890625 667.048828125 299.436523438 637.872070312 c 2,12,-1
 271.408203125 601.76953125 l 1,13,-1
 261.396484375 588.873046875 l 1,14,-1
 246.756835938 596.100585938 l 1,15,-1
 92.896484375 672.060546875 l 1,16,-1
 73.3515625 681.709960938 l 1,17,-1
 84.642578125 700.353515625 l 1,18,-1
 101.336914062 727.923828125 l 2,19,20
 166.436523438 835.477539062 166.436523438 835.477539062 259.547851562 890.440429688 c 128,-1,21
 352.66015625 945.40234375 352.66015625 945.40234375 471.036132812 945.840820312 c 0,22,23
 515.952148438 945.897460938 515.952148438 945.897460938 565.646484375 936.01953125 c 128,-1,24
 615.341796875 926.141601562 615.341796875 926.141601562 669.334960938 906.75 c 128,-1,25
 723.328125 887.358398438 723.328125 887.358398438 783.751953125 858.008789062 c 0,26,27
 1092.015625 707.803710938 1092.015625 707.803710938 1258.76269531 700.672851562 c 2,28,-1
 1279.39160156 699.791015625 l 1,29,-1
 1277.85253906 679.200195312 l 1,30,-1
 1264.86328125 505.438476562 l 1,31,-1
 1263.56347656 488.049804688 l 1,32,-1
 1246.15917969 486.967773438 l 2,33,34
 1221.21289062 485.41796875 1221.21289062 485.41796875 1197.44628906 483.55078125 c 128,-1,35
 1173.68066406 481.682617188 1173.68066406 481.682617188 1151.1875 479.505859375 c 128,-1,36
 1128.69433594 477.329101562 1128.69433594 477.329101562 1107.40234375 474.840820312 c 128,-1,37
 1086.11132812 472.3515625 1086.11132812 472.3515625 1066.09375 469.559570312 c 128,-1,38
 1046.07617188 466.767578125 1046.07617188 466.767578125 1027.28320312 463.66796875 c 128,-1,39
 1008.49023438 460.569335938 1008.49023438 460.569335938 990.97265625 457.172851562 c 128,-1,40
 973.455078125 453.775390625 973.455078125 453.775390625 957.182617188 450.077148438 c 0,41,42
 315.008789062 301.110351562 315.008789062 301.110351562 315.249023438 -109.31640625 c 0,43,44
 315.130859375 -283.9609375 315.130859375 -283.9609375 440.446289062 -370.92578125 c 128,-1,45
 565.760742188 -457.889648438 565.760742188 -457.889648438 826.403320312 -457.783203125 c 0,46,47
 1038.4765625 -457.995117188 1038.4765625 -457.995117188 1234.68847656 -364.23828125 c 2,48,-1
 1257.84375 -353.173828125 l 1,49,-1
 1262.91699219 -378.331054688 l 1,50,-1
 1298.9765625 -557.157226562 l 1,51,-1
 1302.03613281 -572.33203125 l 1,52,-1
 1288.11328125 -579.098632812 l 2,53,54
 1084.61132812 -677.99609375 1084.61132812 -677.99609375 811.515625 -678.249023438 c 0,55,56
 681.081054688 -678.165039062 681.081054688 -678.165039062 574.313476562 -657.143554688 c 128,-1,57
 467.544921875 -636.122070312 467.544921875 -636.122070312 383.330078125 -593.283203125 c 128,-1,58
 299.115234375 -550.4453125 299.115234375 -550.4453125 239.325195312 -485.895507812 c 0,59,60
 104.987304688 -340.82421875 104.987304688 -340.82421875 104.987304688 -124.852539062 c 0,0,1
EndSplineSet
Substitution2: "'fina' Terminal Forms in Arabic lookup 9 subtable" uniFEA2
Substitution2: "'medi' Medial Forms in Arabic lookup 11 subtable" uniFEA4
Substitution2: "'init' Initial Forms in Arabic lookup 13 subtable" uniFEA3
EndChar

StartChar: uni062F
Encoding: 1583 1583 23
GlifName: uni062F_
Width: 994
VWidth: 2972
GlyphClass: 2
Flags: W
AnchorPoint: "Anchor-10" 424.137 1395.03 basechar 0
AnchorPoint: "Anchor-7" 437.24 -219.316 basechar 0
LayerCount: 2
Fore
SplineSet
105.0546875 250.7890625 m 2,0,1
 229.048828125 225.001953125 229.048828125 225.001953125 341.668945312 225.107421875 c 0,2,3
 691.995117188 225.005859375 691.995117188 225.005859375 691.954101562 386.385742188 c 0,4,5
 691.998046875 583.953125 691.998046875 583.953125 286.352539062 839.0703125 c 2,6,-1
 269.056640625 849.947265625 l 1,7,-1
 280.30078125 867.006835938 l 1,8,-1
 380.553710938 1019.10644531 l 1,9,-1
 391.077148438 1035.07128906 l 1,10,-1
 407.498046875 1025.27636719 l 2,11,12
 911.983398438 724.368164062 911.983398438 724.368164062 912.479492188 388.8984375 c 0,13,14
 912.2265625 196.094726562 912.2265625 196.094726562 770.3359375 99.3662109375 c 128,-1,15
 628.4453125 2.63671875 628.4453125 2.63671875 354.845703125 2.259765625 c 0,16,17
 205.815429688 1.99609375 205.815429688 1.99609375 96.630859375 26.337890625 c 2,18,-1
 80.982421875 29.826171875 l 1,19,-1
 80.982421875 45.8583984375 l 1,20,-1
 80.982421875 231.208007812 l 1,21,-1
 80.982421875 255.794921875 l 1,22,-1
 105.0546875 250.7890625 l 2,0,1
EndSplineSet
Substitution2: "'fina' Terminal Forms in Arabic lookup 9 subtable" uniFEAA
EndChar

StartChar: uni0631
Encoding: 1585 1585 25
GlifName: uni0631
Width: 826
VWidth: 2164
GlyphClass: 2
Flags: W
AnchorPoint: "Anchor-10" 459.256 1390.2 basechar 0
AnchorPoint: "Anchor-7" 364.969 -729.998 basechar 0
LayerCount: 2
Fore
SplineSet
663.4453125 559.634765625 m 2,0,1
 706.138671875 462.611328125 706.138671875 462.611328125 727.661132812 368.692382812 c 128,-1,2
 749.182617188 274.7734375 749.182617188 274.7734375 749.375 184.0078125 c 0,3,4
 749.247070312 -14.591796875 749.247070312 -14.591796875 668.180664062 -156.459960938 c 128,-1,5
 587.115234375 -298.328125 587.115234375 -298.328125 427.59375 -381.649414062 c 128,-1,6
 268.072265625 -464.970703125 268.072265625 -464.970703125 31.5458984375 -490.04296875 c 2,7,-1
 14.251953125 -491.875976562 l 1,8,-1
 10.0341796875 -475.004882812 l 1,9,-1
 -32.5341796875 -304.729492188 l 1,10,-1
 -38.14453125 -282.287109375 l 1,11,-1
 -15.126953125 -279.978515625 l 2,12,13
 263.350585938 -252.049804688 263.350585938 -252.049804688 398.48046875 -139.388671875 c 128,-1,14
 533.609375 -26.7265625 533.609375 -26.7265625 533.250976562 172.209960938 c 0,15,16
 533.006835938 320.543945312 533.006835938 320.543945312 456.87890625 483.536132812 c 2,17,-1
 447.522460938 503.568359375 l 1,18,-1
 468.389648438 510.875976562 l 1,19,-1
 638.529296875 570.455078125 l 1,20,-1
 655.993164062 576.5703125 l 1,21,-1
 663.4453125 559.634765625 l 2,0,1
EndSplineSet
PairPos2: "'kern' Horizontal Kerning lookup 15-2" uniFBFE dx=60 dy=0 dh=60 dv=0 dx=0 dy=0 dh=0 dv=0
PairPos2: "'kern' Horizontal Kerning lookup 15-1" uniFEE7 dx=-178 dy=0 dh=-178 dv=0 dx=0 dy=0 dh=0 dv=0
PairPos2: "'kern' Horizontal Kerning lookup 15-2" uniFB90 dx=-226 dy=0 dh=-226 dv=0 dx=0 dy=0 dh=0 dv=0
PairPos2: "'kern' Horizontal Kerning lookup 15-2" uniFB8E dx=-226 dy=0 dh=-226 dv=0 dx=0 dy=0 dh=0 dv=0
PairPos2: "'kern' Horizontal Kerning lookup 15-2" uni06A9 dx=-226 dy=0 dh=-226 dv=0 dx=0 dy=0 dh=0 dv=0
PairPos2: "'kern' Horizontal Kerning lookup 15-2" uni064A dx=-60 dy=0 dh=-60 dv=0 dx=0 dy=0 dh=0 dv=0
PairPos2: "'kern' Horizontal Kerning lookup 15-2" afii57414 dx=-60 dy=0 dh=-60 dv=0 dx=0 dy=0 dh=0 dv=0
PairPos2: "'kern' Horizontal Kerning lookup 15-2" uni0649 dx=-60 dy=0 dh=-60 dv=0 dx=0 dy=0 dh=0 dv=0
PairPos2: "'kern' Horizontal Kerning lookup 15-2" uniFEEB dx=-178 dy=0 dh=-178 dv=0 dx=0 dy=0 dh=0 dv=0
PairPos2: "'kern' Horizontal Kerning lookup 15-2" uni0647 dx=-178 dy=0 dh=-178 dv=0 dx=0 dy=0 dh=0 dv=0
PairPos2: "'kern' Horizontal Kerning lookup 15-2" uni0646 dx=-60 dy=0 dh=-60 dv=0 dx=0 dy=0 dh=0 dv=0
PairPos2: "'kern' Horizontal Kerning lookup 15-2" uniFEE3 dx=-178 dy=0 dh=-178 dv=0 dx=0 dy=0 dh=0 dv=0
PairPos2: "'kern' Horizontal Kerning lookup 15-2" uni0645 dx=-178 dy=0 dh=-178 dv=0 dx=0 dy=0 dh=0 dv=0
PairPos2: "'kern' Horizontal Kerning lookup 15-2" uniFEFB dx=-143 dy=0 dh=-143 dv=0 dx=0 dy=0 dh=0 dv=0
PairPos2: "'kern' Horizontal Kerning lookup 15-2" uniFEDF dx=-143 dy=0 dh=-143 dv=0 dx=0 dy=0 dh=0 dv=0
PairPos2: "'kern' Horizontal Kerning lookup 15-2" uni0644 dx=-60 dy=0 dh=-60 dv=0 dx=0 dy=0 dh=0 dv=0
PairPos2: "'kern' Horizontal Kerning lookup 15-2" uniFEDB dx=-226 dy=0 dh=-226 dv=0 dx=0 dy=0 dh=0 dv=0
PairPos2: "'kern' Horizontal Kerning lookup 15-2" uni0643 dx=-143 dy=0 dh=-143 dv=0 dx=0 dy=0 dh=0 dv=0
PairPos2: "'kern' Horizontal Kerning lookup 15-2" uniFED7 dx=-178 dy=0 dh=-178 dv=0 dx=0 dy=0 dh=0 dv=0
PairPos2: "'kern' Horizontal Kerning lookup 15-2" uni0642 dx=-60 dy=0 dh=-60 dv=0 dx=0 dy=0 dh=0 dv=0
PairPos2: "'kern' Horizontal Kerning lookup 15-2" uniFED3 dx=-178 dy=0 dh=-178 dv=0 dx=0 dy=0 dh=0 dv=0
PairPos2: "'kern' Horizontal Kerning lookup 15-2" uni0641 dx=-178 dy=0 dh=-178 dv=0 dx=0 dy=0 dh=0 dv=0
PairPos2: "'kern' Horizontal Kerning lookup 15-2" uniFECF dx=-178 dy=0 dh=-178 dv=0 dx=0 dy=0 dh=0 dv=0
PairPos2: "'kern' Horizontal Kerning lookup 15-2" uniFECB dx=-178 dy=0 dh=-178 dv=0 dx=0 dy=0 dh=0 dv=0
PairPos2: "'kern' Horizontal Kerning lookup 15-2" uniFEC7 dx=-178 dy=0 dh=-178 dv=0 dx=0 dy=0 dh=0 dv=0
PairPos2: "'kern' Horizontal Kerning lookup 15-2" uni0638 dx=-178 dy=0 dh=-178 dv=0 dx=0 dy=0 dh=0 dv=0
PairPos2: "'kern' Horizontal Kerning lookup 15-2" uniFEC3 dx=-178 dy=0 dh=-178 dv=0 dx=0 dy=0 dh=0 dv=0
PairPos2: "'kern' Horizontal Kerning lookup 15-2" uni0637 dx=-178 dy=0 dh=-178 dv=0 dx=0 dy=0 dh=0 dv=0
PairPos2: "'kern' Horizontal Kerning lookup 15-2" uniFEBF dx=-178 dy=0 dh=-178 dv=0 dx=0 dy=0 dh=0 dv=0
PairPos2: "'kern' Horizontal Kerning lookup 15-2" uni0636 dx=-178 dy=0 dh=-178 dv=0 dx=0 dy=0 dh=0 dv=0
PairPos2: "'kern' Horizontal Kerning lookup 15-2" uniFEBB dx=-178 dy=0 dh=-178 dv=0 dx=0 dy=0 dh=0 dv=0
PairPos2: "'kern' Horizontal Kerning lookup 15-2" uni0635 dx=-178 dy=0 dh=-178 dv=0 dx=0 dy=0 dh=0 dv=0
PairPos2: "'kern' Horizontal Kerning lookup 15-2" uniFEB7 dx=-178 dy=0 dh=-178 dv=0 dx=0 dy=0 dh=0 dv=0
PairPos2: "'kern' Horizontal Kerning lookup 15-2" uni0634 dx=-178 dy=0 dh=-178 dv=0 dx=0 dy=0 dh=0 dv=0
PairPos2: "'kern' Horizontal Kerning lookup 15-2" uniFEB3 dx=-178 dy=0 dh=-178 dv=0 dx=0 dy=0 dh=0 dv=0
PairPos2: "'kern' Horizontal Kerning lookup 15-2" uni0633 dx=-178 dy=0 dh=-178 dv=0 dx=0 dy=0 dh=0 dv=0
PairPos2: "'kern' Horizontal Kerning lookup 15-2" uni0630 dx=-178 dy=0 dh=-178 dv=0 dx=0 dy=0 dh=0 dv=0
PairPos2: "'kern' Horizontal Kerning lookup 15-2" uni062F dx=-178 dy=0 dh=-178 dv=0 dx=0 dy=0 dh=0 dv=0
PairPos2: "'kern' Horizontal Kerning lookup 15-2" uniFEA7 dx=-178 dy=0 dh=-178 dv=0 dx=0 dy=0 dh=0 dv=0
PairPos2: "'kern' Horizontal Kerning lookup 15-2" uniFEA3 dx=-178 dy=0 dh=-178 dv=0 dx=0 dy=0 dh=0 dv=0
PairPos2: "'kern' Horizontal Kerning lookup 15-2" uniFE9F dx=-178 dy=0 dh=-178 dv=0 dx=0 dy=0 dh=0 dv=0
PairPos2: "'kern' Horizontal Kerning lookup 15-2" uniFE9B dx=-178 dy=0 dh=-178 dv=0 dx=0 dy=0 dh=0 dv=0
PairPos2: "'kern' Horizontal Kerning lookup 15-2" uni062B dx=-178 dy=0 dh=-178 dv=0 dx=0 dy=0 dh=0 dv=0
PairPos2: "'kern' Horizontal Kerning lookup 15-2" uniFE97 dx=-178 dy=0 dh=-178 dv=0 dx=0 dy=0 dh=0 dv=0
PairPos2: "'kern' Horizontal Kerning lookup 15-2" uni062A dx=-178 dy=0 dh=-178 dv=0 dx=0 dy=0 dh=0 dv=0
PairPos2: "'kern' Horizontal Kerning lookup 15-2" uni0629 dx=-178 dy=0 dh=-178 dv=0 dx=0 dy=0 dh=0 dv=0
PairPos2: "'kern' Horizontal Kerning lookup 15-2" uni0628 dx=-178 dy=0 dh=-178 dv=0 dx=0 dy=0 dh=0 dv=0
PairPos2: "'kern' Horizontal Kerning lookup 15-2" uni0627 dx=-143 dy=0 dh=-143 dv=0 dx=0 dy=0 dh=0 dv=0
PairPos2: "'kern' Horizontal Kerning lookup 15-2" uni0623 dx=-143 dy=0 dh=-143 dv=0 dx=0 dy=0 dh=0 dv=0
PairPos2: "'kern' Horizontal Kerning lookup 15-2" uni0622 dx=-143 dy=0 dh=-143 dv=0 dx=0 dy=0 dh=0 dv=0
PairPos2: "'kern' Horizontal Kerning lookup 15-2" uni0621 dx=-178 dy=0 dh=-178 dv=0 dx=0 dy=0 dh=0 dv=0
PairPos2: "'kern' Horizontal Kerning lookup 15-2" uniFB94 dx=-226 dy=0 dh=-226 dv=0 dx=0 dy=0 dh=0 dv=0
PairPos2: "'kern' Horizontal Kerning lookup 15-2" uniFB92 dx=-226 dy=0 dh=-226 dv=0 dx=0 dy=0 dh=0 dv=0
PairPos2: "'kern' Horizontal Kerning lookup 15-2" uni06AF dx=-226 dy=0 dh=-226 dv=0 dx=0 dy=0 dh=0 dv=0
PairPos2: "'kern' Horizontal Kerning lookup 15-2" afii57506 dx=-178 dy=0 dh=-178 dv=0 dx=0 dy=0 dh=0 dv=0
PairPos2: "'kern' Horizontal Kerning lookup 15-2" afii57440 dx=-178 dy=0 dh=-178 dv=0 dx=0 dy=0 dh=0 dv=0
PairPos2: "'kern' Horizontal Kerning lookup 15-2" uniFE8B dx=-178 dy=0 dh=-178 dv=0 dx=0 dy=0 dh=0 dv=0
Substitution2: "'fina' Terminal Forms in Arabic lookup 9 subtable" uniFEAE
EndChar

StartChar: uni0633
Encoding: 1587 1587 27
GlifName: uni0633
Width: 2506
VWidth: 2972
GlyphClass: 2
Flags: W
AnchorPoint: "Anchor-10" 1794.53 1397.1 basechar 0
AnchorPoint: "Anchor-7" 595.902 -780.086 basechar 0
LayerCount: 2
Fore
SplineSet
1552.80371094 -0.0810546875 m 0,0,1
 1455.57519531 -0.0810546875 1455.57519531 -0.0810546875 1388.50292969 38.8486328125 c 1,2,3
 1380.03613281 -82.4736328125 1380.03613281 -82.4736328125 1321.92089844 -205.594726562 c 0,4,5
 1170.56542969 -520.0078125 1170.56542969 -520.0078125 707.34375 -519.724609375 c 0,6,7
 398.098632812 -519.865234375 398.098632812 -519.865234375 239.989257812 -373.461914062 c 128,-1,8
 81.8798828125 -227.05859375 81.8798828125 -227.05859375 81.7529296875 61.0517578125 c 0,9,10
 82.0048828125 269.986328125 82.0048828125 269.986328125 184.547851562 517.772460938 c 2,11,-1
 192.185546875 536.2265625 l 1,12,-1
 210.649414062 528.616210938 l 1,13,-1
 369.169921875 463.278320312 l 1,14,-1
 387.381835938 455.771484375 l 1,15,-1
 380.153320312 437.447265625 l 2,16,17
 298.005859375 229.212890625 298.005859375 229.212890625 298.268554688 62.869140625 c 0,18,19
 298.139648438 -122.18359375 298.139648438 -122.18359375 400.309570312 -212.64453125 c 128,-1,20
 502.479492188 -303.104492188 502.479492188 -303.104492188 714.353515625 -303.203125 c 0,21,22
 868.444335938 -303.137695312 868.444335938 -303.137695312 969.397460938 -256.380859375 c 128,-1,23
 1070.34960938 -209.625 1070.34960938 -209.625 1120.20214844 -115.548828125 c 128,-1,24
 1170.05371094 -21.47265625 1170.05371094 -21.47265625 1170.5546875 121.982421875 c 0,25,26
 1170.98925781 301.408203125 1170.98925781 301.408203125 1082.46875 483.004882812 c 2,27,-1
 1072.61035156 503.228515625 l 1,28,-1
 1093.84960938 510.649414062 l 1,29,-1
 1266.49121094 570.966796875 l 1,30,-1
 1285.8125 577.716796875 l 1,31,-1
 1292.11621094 558.245117188 l 1,32,-1
 1352.03613281 373.133789062 l 2,33,34
 1375.75195312 299.196289062 1375.75195312 299.196289062 1425.34179688 263.596679688 c 128,-1,35
 1474.93261719 227.99609375 1474.93261719 227.99609375 1554.5 227.9921875 c 0,36,37
 1644.80664062 227.99609375 1644.80664062 227.99609375 1686.71582031 269.237304688 c 128,-1,38
 1728.625 310.479492188 1728.625 310.479492188 1728.30175781 398.627929688 c 0,39,40
 1728.00195312 481.484375 1728.00195312 481.484375 1725.296875 511.900390625 c 2,41,-1
 1719.89648438 572.616210938 l 1,42,-1
 1718.17285156 591.984375 l 1,43,-1
 1737.48632812 594.250976562 l 1,44,-1
 1902.21191406 613.583984375 l 1,45,-1
 1923.04003906 616.029296875 l 1,46,-1
 1924.49511719 595.107421875 l 1,47,-1
 1940.56738281 363.915039062 l 2,48,49
 1945.32421875 293.12890625 1945.32421875 293.12890625 1978.66699219 260.701171875 c 128,-1,50
 2012.01074219 228.2734375 2012.01074219 228.2734375 2078.93261719 228.5 c 0,51,52
 2143.34082031 228.717773438 2143.34082031 228.717773438 2175.01953125 273.98046875 c 128,-1,53
 2206.69726562 319.244140625 2206.69726562 319.244140625 2206.42285156 419.235351562 c 128,-1,54
 2206.01171875 519.153320312 2206.01171875 519.153320312 2163.19140625 668.721679688 c 2,55,-1
 2157.58984375 688.287109375 l 1,56,-1
 2177.25 693.546875 l 1,57,-1
 2348.20117188 739.287109375 l 1,58,-1
 2366.69335938 744.235351562 l 1,59,-1
 2372.44628906 725.9765625 l 2,60,61
 2437.26855469 520.223632812 2437.26855469 520.223632812 2422.25878906 423.1484375 c 1,62,-1
 2422.44726562 422.03515625 l 1,63,-1
 2422.43652344 420.29296875 l 2,64,65
 2422.06738281 361.9921875 2422.06738281 361.9921875 2414.0078125 311.139648438 c 128,-1,66
 2405.94726562 260.288085938 2405.94726562 260.288085938 2390.06738281 216.5546875 c 128,-1,67
 2374.1875 172.8203125 2374.1875 172.8203125 2350.11230469 136.588867188 c 128,-1,68
 2326.03613281 100.357421875 2326.03613281 100.357421875 2293.94628906 72.1064453125 c 0,69,70
 2266.65039062 48.275390625 2266.65039062 48.275390625 2233.54199219 32.400390625 c 128,-1,71
 2200.43359375 16.5263671875 2200.43359375 16.5263671875 2162.41796875 8.734375 c 128,-1,72
 2124.40332031 0.9423828125 2124.40332031 0.9423828125 2081.15234375 0.912109375 c 0,73,74
 1993.91699219 0.953125 1993.91699219 0.953125 1931.33691406 31.6005859375 c 128,-1,75
 1868.75683594 62.248046875 1868.75683594 62.248046875 1833.33105469 123.55078125 c 1,76,77
 1728.44921875 -0.0810546875 1728.44921875 -0.0810546875 1552.80371094 -0.0810546875 c 0,0,1
EndSplineSet
Substitution2: "'fina' Terminal Forms in Arabic lookup 9 subtable" uniFEB2
Substitution2: "'medi' Medial Forms in Arabic lookup 11 subtable" uniFEB4
Substitution2: "'init' Initial Forms in Arabic lookup 13 subtable" uniFEB3
EndChar

StartChar: uni0635
Encoding: 1589 1589 29
GlifName: uni0635
Width: 2655
VWidth: 2972
GlyphClass: 2
Flags: W
AnchorPoint: "Anchor-7" 595.902 -780.086 basechar 0
AnchorPoint: "Anchor-10" 2064.53 1392.1 basechar 0
LayerCount: 2
Fore
SplineSet
1360.0390625 347.125 m 2,0,1
 1385.00097656 269.5390625 1385.00097656 269.5390625 1423.91113281 255.596679688 c 1,2,3
 1790.47851562 867.01171875 1790.47851562 867.01171875 2161.38867188 866.42578125 c 0,4,5
 2380.44335938 865.978515625 2380.44335938 865.978515625 2496.6484375 699.529296875 c 0,6,7
 2563.96972656 603.346679688 2563.96972656 603.346679688 2564.56445312 477.9296875 c 0,8,9
 2565.01855469 399.905273438 2565.01855469 399.905273438 2543.02734375 331.8671875 c 0,10,11
 2435.54492188 0 2435.54492188 0 1773.15136719 0 c 2,12,-1
 1722.34082031 0 l 2,13,14
 1505.58691406 0 1505.58691406 0 1388.9453125 45.80859375 c 1,15,16
 1381.68066406 -78.98828125 1381.68066406 -78.98828125 1321.92089844 -205.594726562 c 0,17,18
 1170.56542969 -520.0078125 1170.56542969 -520.0078125 707.34375 -519.724609375 c 0,19,20
 398.098632812 -519.865234375 398.098632812 -519.865234375 239.989257812 -373.461914062 c 128,-1,21
 81.8798828125 -227.05859375 81.8798828125 -227.05859375 81.7529296875 61.0517578125 c 0,22,23
 82.0048828125 269.986328125 82.0048828125 269.986328125 184.547851562 517.772460938 c 2,24,-1
 192.185546875 536.2265625 l 1,25,-1
 210.649414062 528.616210938 l 1,26,-1
 369.169921875 463.278320312 l 1,27,-1
 387.381835938 455.771484375 l 1,28,-1
 380.153320312 437.447265625 l 2,29,30
 298.005859375 229.212890625 298.005859375 229.212890625 298.268554688 62.869140625 c 0,31,32
 298.139648438 -122.18359375 298.139648438 -122.18359375 400.309570312 -212.64453125 c 128,-1,33
 502.479492188 -303.104492188 502.479492188 -303.104492188 714.353515625 -303.203125 c 0,34,35
 868.444335938 -303.137695312 868.444335938 -303.137695312 969.397460938 -256.380859375 c 128,-1,36
 1070.34960938 -209.625 1070.34960938 -209.625 1120.20214844 -115.548828125 c 128,-1,37
 1170.05371094 -21.47265625 1170.05371094 -21.47265625 1170.5546875 121.982421875 c 0,38,39
 1170.98925781 301.408203125 1170.98925781 301.408203125 1082.46875 483.004882812 c 2,40,-1
 1072.61035156 503.228515625 l 1,41,-1
 1093.84960938 510.649414062 l 1,42,-1
 1266.49121094 570.966796875 l 1,43,-1
 1285.84765625 577.729492188 l 1,44,-1
 1292.12695312 558.2109375 l 1,45,-1
 1360.0390625 347.125 l 2,0,1
1661.34472656 224.416992188 m 1,46,-1
 1778.78125 224.416992188 l 2,47,48
 2067.78613281 224.005859375 2067.78613281 224.005859375 2208.55859375 286.307617188 c 0,49,50
 2343.87011719 345.981445312 2343.87011719 345.981445312 2342.66992188 466.9375 c 0,51,52
 2342.06933594 525.1953125 2342.06933594 525.1953125 2312.04101562 564.887695312 c 0,53,54
 2298.73242188 582.268554688 2298.73242188 582.268554688 2282.97558594 595.211914062 c 128,-1,55
 2267.21777344 608.15625 2267.21777344 608.15625 2248.59472656 616.896484375 c 128,-1,56
 2229.97167969 625.63671875 2229.97167969 625.63671875 2208.40136719 630.0390625 c 128,-1,57
 2186.83105469 634.440429688 2186.83105469 634.440429688 2162.08691406 634.573242188 c 0,58,59
 1929.69824219 634.044921875 1929.69824219 634.044921875 1661.34472656 224.416992188 c 1,46,-1
EndSplineSet
Substitution2: "'fina' Terminal Forms in Arabic lookup 9 subtable" uniFEBA
Substitution2: "'medi' Medial Forms in Arabic lookup 11 subtable" uniFEBC
Substitution2: "'init' Initial Forms in Arabic lookup 13 subtable" uniFEBB
EndChar

StartChar: uni0637
Encoding: 1591 1591 31
GlifName: uni0637
Width: 1524
VWidth: 2972
GlyphClass: 2
Flags: W
AnchorPoint: "Anchor-10" 475.36 1602.58 basechar 0
AnchorPoint: "Anchor-7" 641.602 -216.453 basechar 0
LayerCount: 2
Fore
SplineSet
1037.84960938 856.423828125 m 0,0,1
 1261 856 1261 856 1376.00878906 688.350585938 c 0,2,3
 1440 595 1440 595 1439.67382812 473.770507812 c 0,4,5
 1440 236 1440 236 1241.765625 118.013671875 c 0,6,7
 1044 0 1044 0 658.228515625 0 c 2,8,-1
 101.302734375 0 l 1,9,-1
 81.302734375 0 l 1,10,-1
 81.302734375 20 l 1,11,-1
 81.302734375 204.221679688 l 1,12,-1
 81.302734375 224.208007812 l 1,13,-1
 101.2890625 224.221679688 l 1,14,-1
 313.12109375 224.37109375 l 1,15,16
 334 255 334 255 375.6328125 323.381835938 c 1,17,-1
 375.6328125 1438.87402344 l 5,18,-1
 375.6328125 1458.87402344 l 5,19,-1
 395.6328125 1458.87402344 l 5,20,-1
 568.946289062 1458.87402344 l 5,21,-1
 588.946289062 1458.87402344 l 5,22,-1
 588.946289062 1438.87402344 l 5,23,-1
 588.946289062 619.077148438 l 1,24,25
 798 856 798 856 1037.84960938 856.423828125 c 0,0,1
663.833007812 224.534179688 m 2,26,27
 961.040039062 224.534179688 961.040039062 224.534179688 1082.92675781 277.916992188 c 0,28,29
 1152.19335938 308.252929688 1152.19335938 308.252929688 1185.02441406 352.047851562 c 128,-1,30
 1217.85644531 395.842773438 1217.85644531 395.842773438 1217.73828125 455.384765625 c 0,31,32
 1217.97265625 531.143554688 1217.97265625 531.143554688 1165.4453125 578.622070312 c 0,33,34
 1115.22460938 624.9609375 1115.22460938 624.9609375 1037.4296875 624.573242188 c 0,35,36
 807.758789062 624.965820312 807.758789062 624.965820312 546.362304688 224.534179688 c 1,37,-1
 663.833007812 224.534179688 l 2,26,27
EndSplineSet
Substitution2: "'fina' Terminal Forms in Arabic lookup 9 subtable" uniFEC2
Substitution2: "'medi' Medial Forms in Arabic lookup 11 subtable" uniFEC4
Substitution2: "'init' Initial Forms in Arabic lookup 13 subtable" uniFEC3
EndChar

StartChar: uni0639
Encoding: 1593 1593 33
GlifName: uni0639
Width: 1330
VWidth: 2972
GlyphClass: 2
Flags: W
AnchorPoint: "Anchor-10" 723.478 1386.07 basechar 0
AnchorPoint: "Anchor-7" 516.833 -902.619 basechar 0
LayerCount: 2
Fore
SplineSet
643.482421875 504.947265625 m 1,0,1
 816.834960938 534.012695312 816.834960938 534.012695312 941.107421875 534.546875 c 0,2,3
 1036.09179688 535.005859375 1036.09179688 535.005859375 1126.01367188 524.719726562 c 2,4,-1
 1146.14550781 522.416992188 l 1,5,-1
 1143.58007812 502.318359375 l 1,6,-1
 1121.22753906 327.158203125 l 1,7,-1
 1118.91113281 309.002929688 l 1,8,-1
 1100.62304688 309.704101562 l 2,9,10
 1014.89257812 312.989257812 1014.89257812 312.989257812 985.594726562 312.180664062 c 0,11,12
 635.22265625 302.2265625 635.22265625 302.2265625 465.173828125 192.701171875 c 128,-1,13
 295.125976562 83.17578125 295.125976562 83.17578125 295.240234375 -124.868164062 c 0,14,15
 295.057617188 -393.116210938 295.057617188 -393.116210938 614.681640625 -445.193359375 c 0,16,17
 695.27734375 -458.143554688 695.27734375 -458.143554688 795.296875 -458.266601562 c 0,18,19
 998.475585938 -458.005859375 998.475585938 -458.005859375 1194.72460938 -364.705078125 c 2,20,-1
 1217.85449219 -353.708007812 l 1,21,-1
 1222.91699219 -378.814453125 l 1,22,-1
 1258.9765625 -557.640625 l 1,23,-1
 1262.0234375 -572.751953125 l 1,24,-1
 1248.18652344 -579.545898438 l 2,25,26
 1045.63574219 -679.004882812 1045.63574219 -679.004882812 783.060546875 -678.733398438 c 0,27,28
 438.4453125 -678.869140625 438.4453125 -678.869140625 261.716796875 -541.686523438 c 128,-1,29
 84.98828125 -404.50390625 84.98828125 -404.50390625 84.9755859375 -132.310546875 c 0,30,31
 85 259.260742188 85 259.260742188 430.791015625 425.5 c 1,32,33
 321.99609375 562.155273438 321.99609375 562.155273438 321.84375 715.083007812 c 0,34,35
 321.884765625 733.334960938 321.884765625 733.334960938 323.719726562 751.586914062 c 128,-1,36
 325.553710938 769.837890625 325.553710938 769.837890625 329.177734375 788.076171875 c 128,-1,37
 332.801757812 806.313476562 332.801757812 806.313476562 338.1953125 824.537109375 c 128,-1,38
 343.588867188 842.76171875 343.588867188 842.76171875 350.765625 861.0390625 c 0,39,40
 364.850585938 896.107421875 364.850585938 896.107421875 385.963867188 928.4609375 c 128,-1,41
 407.077148438 960.814453125 407.077148438 960.814453125 435.16015625 990.501953125 c 0,42,43
 542.380859375 1104 542.380859375 1104 734 1104 c 0,44,45
 893.190429688 1104 893.190429688 1104 1076.95996094 978.18359375 c 2,46,-1
 1090.77539062 968.724609375 l 1,47,-1
 1083.89355469 953.459960938 l 1,48,-1
 1016.54492188 804.086914062 l 1,49,-1
 1007.34375 783.680664062 l 1,50,-1
 988.098632812 795.112304688 l 2,51,52
 915.436523438 838.2734375 915.436523438 838.2734375 854.161132812 859.583984375 c 128,-1,53
 792.884765625 880.89453125 792.884765625 880.89453125 743.947265625 880.802734375 c 0,54,55
 626.3046875 880.982421875 626.3046875 880.982421875 572.971679688 792.219726562 c 0,56,57
 546.022460938 748.380859375 546.022460938 748.380859375 546.20703125 702.16015625 c 0,58,59
 546.021484375 661.618164062 546.021484375 661.618164062 567.469726562 618.110351562 c 0,60,61
 573.977539062 604.999023438 573.977539062 604.999023438 584.586914062 588.020507812 c 128,-1,62
 595.196289062 571.041992188 595.196289062 571.041992188 610.0546875 550.0625 c 128,-1,63
 624.913085938 529.083007812 624.913085938 529.083007812 643.482421875 504.947265625 c 1,0,1
EndSplineSet
Substitution2: "'fina' Terminal Forms in Arabic lookup 9 subtable" uniFECA
Substitution2: "'medi' Medial Forms in Arabic lookup 11 subtable" uniFECC
Substitution2: "'init' Initial Forms in Arabic lookup 13 subtable" uniFECB
EndChar

StartChar: afii57440
Encoding: 1600 1600 35
GlifName: afii57440
Width: 286
VWidth: 2972
GlyphClass: 2
Flags: W
AnchorPoint: "Anchor-10" 143.774 1396.11 basechar 0
AnchorPoint: "Anchor-7" 147.7 -214.739 basechar 0
LayerCount: 2
Fore
SplineSet
-6.9384765625 0 m 2,0,1
 -53.79296875 0 -53.79296875 0 -79.2861328125 28.916015625 c 128,-1,2
 -104.778320312 57.83203125 -104.778320312 57.83203125 -104.778320312 108.313476562 c 2,3,-1
 -104.778320312 127.163085938 l 2,4,5
 -104.91015625 172.713867188 -104.91015625 172.713867188 -78.923828125 198.356445312 c 128,-1,6
 -52.9375 223.999023438 -52.9375 223.999023438 -6.9384765625 223.999023438 c 2,7,-1
 294.643554688 223.999023438 l 2,8,9
 304.443359375 223.999023438 304.443359375 223.999023438 311.693359375 220.220703125 c 128,-1,10
 318.943359375 216.442382812 318.943359375 216.442382812 323.1484375 207.859375 c 128,-1,11
 327.353515625 199.275390625 327.353515625 199.275390625 329.9140625 191.924804688 c 128,-1,12
 332.473632812 184.57421875 332.473632812 184.57421875 333.436523438 170.653320312 c 128,-1,13
 334.399414062 156.732421875 334.399414062 156.732421875 334.5859375 149.5078125 c 128,-1,14
 334.771484375 142.283203125 334.771484375 142.283203125 334.771484375 127.174804688 c 2,15,-1
 334.771484375 108.350585938 l 2,16,17
 334.776367188 106.5859375 334.776367188 106.5859375 334.790039062 103.016601562 c 0,18,19
 334.881835938 78.7431640625 334.881835938 78.7431640625 334.166992188 65.783203125 c 128,-1,20
 333.452148438 52.8232421875 333.452148438 52.8232421875 330.120117188 34.7470703125 c 128,-1,21
 326.788085938 16.6708984375 326.788085938 16.6708984375 317.936523438 8.3349609375 c 128,-1,22
 309.084960938 0 309.084960938 0 294.69140625 0 c 2,23,-1
 -6.9384765625 0 l 2,0,1
EndSplineSet
EndChar

StartChar: uni0643
Encoding: 1603 1603 38
GlifName: uni0643
Width: 1981
VWidth: 2972
GlyphClass: 2
Flags: W
AnchorPoint: "Anchor-7" 750.268 -216.468 basechar 0
AnchorPoint: "Anchor-10" 943.11 1586.05 basechar 0
LayerCount: 2
Fore
SplineSet
950.447265625 224.215820312 m 0,0,1
 973 224 973 224 997.697265625 224.791015625 c 0,2,3
 1022 225 1022 225 1048.01367188 226.731445312 c 0,4,5
 1074 228 1074 228 1101.41992188 230.041992188 c 128,-1,6
 1129 232 1129 232 1157.87597656 234.724609375 c 0,7,8
 1397 257 1397 257 1510.97460938 345.909179688 c 0,9,10
 1621.82910156 432.865943411 1621.82910156 432.865943411 1621.82910156 591.778320312 c 2,11,-1
 1621.82910156 1434.56640625 l 5,12,-1
 1621.82910156 1454.56640625 l 5,13,-1
 1641.82910156 1454.56640625 l 5,14,-1
 1819.70996094 1454.56640625 l 5,15,-1
 1839.70996094 1454.56640625 l 5,16,-1
 1839.70996094 1434.56640625 l 5,17,-1
 1839.70996094 594.360351562 l 2,18,19
 1840 317 1840 317 1665.28613281 172.72265625 c 0,20,21
 1458 0 1458 0 952.133789062 0 c 0,22,23
 456.353669634 -1.22124532709e-14 456.353669634 -1.22124532709e-14 263.907226562 139.625976562 c 0,24,25
 90 266 90 266 89.1611328125 524.484375 c 0,26,27
 88.9997057515 662.251120599 88.9997057515 662.251120599 137.391601562 770.921875 c 2,28,-1
 145.454101562 789.02734375 l 1,29,-1
 163.631835938 781.129882812 l 1,30,-1
 321.403320312 712.584960938 l 1,31,-1
 339.022460938 704.9296875 l 1,32,-1
 332.083007812 687.017578125 l 2,33,34
 307 622 307 622 308.451171875 537.138671875 c 0,35,36
 309 485 309 485 321.688476562 443.369140625 c 0,37,38
 334 402 334 402 359.188476562 369.697265625 c 0,39,40
 384 338 384 338 421.21484375 314.48046875 c 0,41,42
 565 225 565 225 950.447265625 224.215820312 c 0,0,1
728.282226562 771.901367188 m 2,43,44
 821.170898438 761.98828125 821.170898438 761.98828125 888.673828125 761.266601562 c 0,45,46
 939.873046875 761.137695312 939.873046875 761.137695312 978.388671875 766.358398438 c 128,-1,47
 1016.90527344 771.578125 1016.90527344 771.578125 1040.90136719 781.40234375 c 0,48,49
 1052.34570312 786.129882812 1052.34570312 786.129882812 1060.390625 791.571289062 c 128,-1,50
 1068.43554688 797.013671875 1068.43554688 797.013671875 1073.29199219 803.33984375 c 128,-1,51
 1078.1484375 809.666015625 1078.1484375 809.666015625 1080.38183594 816.584960938 c 128,-1,52
 1082.61425781 823.50390625 1082.61425781 823.50390625 1082.74804688 831.861328125 c 0,53,54
 1082.9453125 865.65234375 1082.9453125 865.65234375 1059.26953125 885.299804688 c 0,55,56
 1033.32617188 908.01171875 1033.32617188 908.01171875 978.215820312 915.658203125 c 0,57,58
 865.467773438 932.799804688 865.467773438 932.799804688 807.135742188 991.916015625 c 128,-1,59
 748.803710938 1051.03222656 748.803710938 1051.03222656 750.935546875 1148.95507812 c 0,60,61
 756.451171875 1373.61425781 756.451171875 1373.61425781 1162.140625 1403.49902344 c 2,62,-1
 1183.61035156 1405.08007812 l 1,63,-1
 1183.61035156 1383.55273438 l 1,64,-1
 1183.61035156 1254.98925781 l 1,65,-1
 1183.61035156 1236.75195312 l 1,66,-1
 1165.45019531 1235.07421875 l 2,67,68
 1080.6953125 1227.2421875 1080.6953125 1227.2421875 1024.69824219 1211.58203125 c 128,-1,69
 968.700195312 1195.921875 968.700195312 1195.921875 946.404296875 1178.25390625 c 128,-1,70
 924.108398438 1160.5859375 924.108398438 1160.5859375 924.139648438 1140.44238281 c 0,71,72
 924.032226562 1083.16894531 924.032226562 1083.16894531 1045.96191406 1064.5234375 c 0,73,74
 1096.9609375 1056.6640625 1096.9609375 1056.6640625 1136.15234375 1038.08398438 c 128,-1,75
 1175.34277344 1019.50292969 1175.34277344 1019.50292969 1201.87402344 990.833984375 c 128,-1,76
 1228.40429688 962.165039062 1228.40429688 962.165039062 1241.96972656 923.1953125 c 128,-1,77
 1255.53515625 884.225585938 1255.53515625 884.225585938 1255.36425781 836.06640625 c 0,78,79
 1255.23242188 792.1171875 1255.23242188 792.1171875 1240.38964844 754.353515625 c 128,-1,80
 1225.54785156 716.588867188 1225.54785156 716.588867188 1196.81640625 686.131835938 c 128,-1,81
 1168.08496094 655.674804688 1168.08496094 655.674804688 1125.99707031 632.692382812 c 0,82,83
 1046.10546875 588.997070312 1046.10546875 588.997070312 906.004882812 589.088867188 c 0,84,85
 824.481445312 588.998046875 824.481445312 588.998046875 723.118164062 604.598632812 c 2,86,-1
 706.16015625 607.208984375 l 1,87,-1
 706.16015625 624.366210938 l 1,88,-1
 706.16015625 752.014648438 l 1,89,-1
 706.16015625 774.262695312 l 1,90,-1
 728.282226562 771.901367188 l 2,43,44
EndSplineSet
Substitution2: "'fina' Terminal Forms in Arabic lookup 9 subtable" uniFEDA
Substitution2: "'medi' Medial Forms in Arabic lookup 11 subtable" uniFEDC
Substitution2: "'init' Initial Forms in Arabic lookup 13 subtable" uniFEDB
EndChar

StartChar: uni0644
Encoding: 1604 1604 39
GlifName: uni0644
Width: 1441
VWidth: 2972
GlyphClass: 2
Flags: W
AnchorPoint: "Anchor-7" 595.902 -780.086 basechar 0
AnchorPoint: "Anchor-10" 593.908 1201.66 basechar 0
LayerCount: 2
Fore
SplineSet
1092.60449219 119.841796875 m 2,0,-1
 1095.91699219 1438.04199219 l 5,1,-1
 1095.96582031 1457.99316406 l 5,2,-1
 1115.91699219 1457.99316406 l 5,3,-1
 1287.88574219 1457.99316406 l 5,4,-1
 1307.89746094 1457.99316406 l 5,5,-1
 1307.88574219 1437.98144531 l 5,6,-1
 1307.18554688 319.295898438 l 2,7,8
 1307 173 1307 173 1297.80273438 46.994140625 c 0,9,10
 1276 -234 1276 -234 1120.88378906 -376.963867188 c 0,11,12
 965 -520 965 -520 681.438476562 -519.734375 c 0,13,14
 384 -520 384 -520 233.11328125 -373.37109375 c 0,15,16
 82 -227 82 -227 82.740234375 60.7822265625 c 0,17,18
 83 164 83 164 103.879882812 265.490234375 c 0,19,20
 126.156449079 371.746239523 126.156449079 371.746239523 167.806640625 474.016601562 c 2,21,-1
 175.381835938 492.6171875 l 1,22,-1
 193.950195312 484.963867188 l 1,23,-1
 352.474609375 419.624023438 l 1,24,-1
 370.662109375 412.126953125 l 1,25,-1
 363.467773438 393.818359375 l 2,26,27
 298 227 298 227 298.24609375 58.1943359375 c 0,28,29
 298 -125 298 -125 392.360351562 -214.045898438 c 0,30,31
 487 -303 487 -303 681.774414062 -303.2265625 c 0,32,33
 890 -303 890 -303 990.9765625 -198.909179688 c 128,-1,34
 1092 -95 1092 -95 1092.60449219 119.841796875 c 2,0,-1
EndSplineSet
Substitution2: "'fina' Terminal Forms in Arabic lookup 9 subtable" uniFEDE
Substitution2: "'medi' Medial Forms in Arabic lookup 11 subtable" uniFEE0
Substitution2: "'init' Initial Forms in Arabic lookup 13 subtable" uniFEDF
EndChar

StartChar: uni0645
Encoding: 1605 1605 40
GlifName: uni0645
Width: 1242
VWidth: 2642
GlyphClass: 2
Flags: W
AnchorPoint: "Anchor-7" 724.983 -316.909 basechar 0
AnchorPoint: "Anchor-10" 697.239 1394.48 basechar 0
LayerCount: 2
Fore
SplineSet
842.077148438 198 m 0,0,1
 899.614257812 197.557617188 899.614257812 197.557617188 925.79296875 225.495117188 c 128,-1,2
 951.970703125 253.432617188 951.970703125 253.432617188 952.357421875 316.479492188 c 0,3,4
 951.59765625 344.670898438 951.59765625 344.670898438 946.564453125 369.8671875 c 128,-1,5
 941.53125 395.063476562 941.53125 395.063476562 931.921875 419.423828125 c 0,6,7
 893.438476562 514.233398438 893.438476562 514.233398438 791.478515625 516.0078125 c 0,8,9
 733.681640625 516.856445312 733.681640625 516.856445312 687.158203125 472.82421875 c 128,-1,10
 640.634765625 428.79296875 640.634765625 428.79296875 604.899414062 334.682617188 c 1,11,12
 764.21484375 198 764.21484375 198 842.077148438 198 c 0,0,1
1163.39257812 329.012695312 m 0,13,14
 1163.18847656 255.22265625 1163.18847656 255.22265625 1145.03417969 193.318359375 c 128,-1,15
 1126.87988281 131.415039062 1126.87988281 131.415039062 1090.60351562 82.1904296875 c 0,16,17
 1071.42773438 55.791015625 1071.42773438 55.791015625 1046.52734375 35.9248046875 c 128,-1,18
 1021.62695312 16.05859375 1021.62695312 16.05859375 991.5859375 3.0146484375 c 128,-1,19
 961.544921875 -10.0302734375 961.544921875 -10.0302734375 926.629882812 -16.5654296875 c 128,-1,20
 891.71484375 -23.1015625 891.71484375 -23.1015625 851.995117188 -23.13671875 c 0,21,22
 744.352539062 -22.9921875 744.352539062 -22.9921875 596.375976562 67.5869140625 c 0,23,24
 549.205078125 96.544921875 549.205078125 96.544921875 495.06640625 124.192382812 c 0,25,26
 480.78515625 131.51171875 480.78515625 131.51171875 464.392578125 134.913085938 c 128,-1,27
 448.000976562 138.315429688 448.000976562 138.315429688 428.778320312 137.75 c 0,28,29
 367.423828125 137.051757812 367.423828125 137.051757812 331.404296875 20.150390625 c 128,-1,30
 295.384765625 -96.7509765625 295.384765625 -96.7509765625 295.751953125 -337.974609375 c 0,31,32
 295.999023438 -533.129882812 295.999023438 -533.129882812 309.740234375 -693.1015625 c 2,33,-1
 311.60546875 -714.813476562 l 1,34,-1
 289.813476562 -714.813476562 l 1,35,-1
 110.231445312 -714.813476562 l 1,36,-1
 91.478515625 -714.813476562 l 1,37,-1
 90.2724609375 -696.099609375 l 2,38,39
 77.99609375 -505.58203125 77.99609375 -505.58203125 79.0625 -333.857421875 c 0,40,41
 82.0390625 33.853515625 82.0390625 33.853515625 160.170898438 188.061523438 c 0,42,43
 199.326171875 264.866210938 199.326171875 264.866210938 254.3828125 311.051757812 c 128,-1,44
 309.440429688 357.23828125 309.440429688 357.23828125 378.265625 370.521484375 c 1,45,46
 530.060546875 743.9453125 530.060546875 743.9453125 788.821289062 745.381835938 c 0,47,48
 960.430664062 746.036132812 960.430664062 746.036132812 1062.46191406 621.686523438 c 0,49,50
 1162.98242188 499.17578125 1162.98242188 499.17578125 1163.39257812 329.012695312 c 0,13,14
EndSplineSet
Substitution2: "'init' Initial Forms in Arabic lookup 13 subtable" uniFEE3
Substitution2: "'medi' Medial Forms in Arabic lookup 11 subtable" uniFEE4
Substitution2: "'fina' Terminal Forms in Arabic lookup 9 subtable" uniFEE2
EndChar

StartChar: uni0647
Encoding: 1607 1607 42
GlifName: uni0647
Width: 942
VWidth: 2972
GlyphClass: 2
Flags: W
AnchorPoint: "Anchor-10" 430.775 1399.01 basechar 0
AnchorPoint: "Anchor-7" 450.63 -220.576 basechar 0
LayerCount: 2
Fore
SplineSet
462.4765625 637.9765625 m 1,0,1
 427.625 606.634765625 427.625 606.634765625 399.786132812 576.685546875 c 128,-1,2
 371.946289062 546.735351562 371.946289062 546.735351562 351.8046875 519.223632812 c 128,-1,3
 331.6640625 491.7109375 331.6640625 491.7109375 318.252929688 465.772460938 c 128,-1,4
 304.841796875 439.833007812 304.841796875 439.833007812 298.373046875 416.299804688 c 128,-1,5
 291.904296875 392.766601562 291.904296875 392.766601562 291.884765625 370.987304688 c 0,6,7
 291.936523438 295.940429688 291.936523438 295.940429688 335.745117188 259.967773438 c 128,-1,8
 379.5546875 223.99609375 379.5546875 223.99609375 475.344726562 223.9921875 c 0,9,10
 572.327148438 223.99609375 572.327148438 223.99609375 616.51171875 260.241210938 c 128,-1,11
 660.696289062 296.486328125 660.696289062 296.486328125 660.423828125 372.075195312 c 0,12,13
 660.379882812 384.234375 660.379882812 384.234375 657.358398438 397.560546875 c 128,-1,14
 654.3359375 410.88671875 654.3359375 410.88671875 648.336914062 425.424804688 c 128,-1,15
 642.336914062 439.962890625 642.336914062 439.962890625 633.163085938 455.66796875 c 128,-1,16
 623.98828125 471.374023438 623.98828125 471.374023438 611.846679688 488.073242188 c 128,-1,17
 599.704101562 504.7734375 599.704101562 504.7734375 584.177734375 522.654296875 c 128,-1,18
 568.650390625 540.534179688 568.650390625 540.534179688 550.165039062 559.19140625 c 128,-1,19
 531.6796875 577.848632812 531.6796875 577.848632812 509.599609375 597.700195312 c 128,-1,20
 487.51953125 617.551757812 487.51953125 617.551757812 462.4765625 637.9765625 c 1,0,1
384.274414062 1006.97460938 m 2,21,22
 871.0078125 653.182617188 871.0078125 653.182617188 870.791992188 366.380859375 c 0,23,24
 871.013671875 166.303710938 871.013671875 166.303710938 696.866210938 57.5439453125 c 0,25,26
 654.399414062 31.0224609375 654.399414062 31.0224609375 599.21484375 17.8173828125 c 128,-1,27
 544.030273438 4.6123046875 544.030273438 4.6123046875 476.127929688 4.1943359375 c 0,28,29
 350.291015625 3.9921875 350.291015625 3.9921875 260.5078125 48.91015625 c 0,30,31
 80.978515625 138.6484375 80.978515625 138.6484375 81.3681640625 365.788085938 c 0,32,33
 80.998046875 573.23046875 80.998046875 573.23046875 308.265625 801.35546875 c 1,34,-1
 259.961914062 842.080078125 l 1,35,-1
 245.546875 854.233398438 l 1,36,-1
 256.830078125 869.33984375 l 1,37,-1
 356.4921875 1002.765625 l 1,38,-1
 368.305664062 1018.58203125 l 1,39,-1
 384.274414062 1006.97460938 l 2,21,22
EndSplineSet
Substitution2: "'fina' Terminal Forms in Arabic lookup 9 subtable" uniFEEA
Substitution2: "'medi' Medial Forms in Arabic lookup 11 subtable" uniFEEC
Substitution2: "'init' Initial Forms in Arabic lookup 13 subtable" uniFEEB
EndChar

StartChar: uni0648
Encoding: 1608 1608 43
GlifName: uni0648
Width: 910
VWidth: 2164
GlyphClass: 2
Flags: W
AnchorPoint: "Anchor-7" 364.969 -749.998 basechar 0
AnchorPoint: "Anchor-10" 459.256 1390.2 basechar 0
LayerCount: 2
Fore
SplineSet
609.541015625 236.173828125 m 1,0,1
 597.509765625 390.555664062 597.509765625 390.555664062 553.7265625 462.813476562 c 128,-1,2
 509.944335938 535.071289062 509.944335938 535.071289062 437.411132812 535.124023438 c 0,3,4
 355.359375 535.018554688 355.359375 535.018554688 319.36328125 428.494140625 c 0,5,6
 302.010742188 377.708984375 302.010742188 377.708984375 302.159179688 332.583984375 c 0,7,8
 302.090820312 273.453125 302.090820312 273.453125 343.766601562 244.584960938 c 128,-1,9
 385.44140625 215.716796875 385.44140625 215.716796875 478.797851562 216.362304688 c 0,10,11
 499.610351562 216.543945312 499.610351562 216.543945312 521.326171875 218.8515625 c 128,-1,12
 543.041992188 221.158203125 543.041992188 221.158203125 565.133789062 225.501953125 c 128,-1,13
 587.224609375 229.846679688 587.224609375 229.846679688 609.541015625 236.173828125 c 1,0,1
478.241210938 -2.1884765625 m 0,14,15
 289.6875 -2.0908203125 289.6875 -2.0908203125 191.344726562 78.8271484375 c 128,-1,16
 93.001953125 159.74609375 93.001953125 159.74609375 93.0048828125 318.352539062 c 0,17,18
 93 443.51953125 93 443.51953125 146.618164062 556.088867188 c 0,19,20
 246.413085938 763.995117188 246.413085938 763.995117188 449.11328125 764.077148438 c 0,21,22
 666.744140625 763.995117188 666.744140625 763.995117188 759.64453125 522.150390625 c 0,23,24
 822.022460938 360.671875 822.022460938 360.671875 820.833007812 160.02734375 c 0,25,26
 818.862304688 -127.927734375 818.862304688 -127.927734375 640.794921875 -291.168945312 c 128,-1,27
 462.727539062 -454.409179688 462.727539062 -454.409179688 115.352539062 -490.05859375 c 2,28,-1
 98.111328125 -491.828125 l 1,29,-1
 93.9072265625 -475.013671875 l 1,30,-1
 51.33203125 -304.712890625 l 1,31,-1
 45.7275390625 -282.293945312 l 1,32,-1
 68.71875 -279.963867188 l 2,33,34
 287.798828125 -257.760742188 287.798828125 -257.760742188 419.041992188 -184.881835938 c 128,-1,35
 550.284179688 -112.001953125 550.284179688 -112.001953125 597.170898438 9.32421875 c 1,36,37
 573.431640625 6.427734375 573.431640625 6.427734375 554.98828125 4.3388671875 c 128,-1,38
 536.544921875 2.2490234375 536.544921875 2.2490234375 521.626953125 0.7841796875 c 128,-1,39
 506.708007812 -0.681640625 506.708007812 -0.681640625 496.010742188 -1.412109375 c 128,-1,40
 485.314453125 -2.142578125 485.314453125 -2.142578125 478.241210938 -2.1884765625 c 0,14,15
EndSplineSet
Substitution2: "'fina' Terminal Forms in Arabic lookup 9 subtable" uniFEEE
EndChar

StartChar: uni0649
Encoding: 1609 1609 44
GlifName: uni0649
Width: 1524
VWidth: 2972
GlyphClass: 2
Flags: MW
AnchorPoint: "Anchor-10" 717.6 1398.22 basechar 0
AnchorPoint: "Anchor-7" 595.902 -770.086 basechar 0
LayerCount: 2
Fore
SplineSet
1231.80761719 -20.498046875 m 0,0,1
 1231.85058594 -7.771484375 1231.85058594 -7.771484375 1227.36816406 -0.083984375 c 128,-1,2
 1222.88574219 7.6025390625 1222.88574219 7.6025390625 1209.77441406 12.2392578125 c 128,-1,3
 1196.66308594 16.8759765625 1196.66308594 16.8759765625 1173.44628906 17.0146484375 c 2,4,-1
 1060.28320312 17.693359375 l 2,5,6
 1046.2421875 17.763671875 1046.2421875 17.763671875 1032.94140625 18.4375 c 0,7,8
 910.028320312 24.6630859375 910.028320312 24.6630859375 847.78125 84.9873046875 c 128,-1,9
 785.533203125 145.3125 785.533203125 145.3125 791.287109375 255.337890625 c 0,10,11
 801.41015625 445.227539062 801.41015625 445.227539062 916.260742188 570.518554688 c 0,12,13
 1076.79199219 745.549804688 1076.79199219 745.549804688 1367 745.549804688 c 2,14,-1
 1388.37597656 745.549804688 l 1,15,-1
 1408.40722656 745.549804688 l 1,16,-1
 1408.37597656 725.518554688 l 1,17,-1
 1408.0703125 532.708984375 l 1,18,-1
 1408.0390625 512.740234375 l 1,19,-1
 1388.0703125 512.740234375 l 1,20,-1
 1365.98339844 512.740234375 l 2,21,22
 1212.2734375 512.990234375 1212.2734375 512.990234375 1119.4609375 448.22265625 c 0,23,24
 1067.01953125 411.5546875 1067.01953125 411.5546875 1040.78417969 370.048828125 c 128,-1,25
 1014.54980469 328.541992188 1014.54980469 328.541992188 1012.54785156 281.130859375 c 0,26,27
 1011.43359375 256.251953125 1011.43359375 256.251953125 1020.71289062 248.8125 c 0,28,29
 1032.14550781 239.1484375 1032.14550781 239.1484375 1069.96484375 239.215820312 c 2,30,-1
 1181.01074219 239.413085938 l 2,31,32
 1306.01757812 239.721679688 1306.01757812 239.721679688 1372.359375 183.716796875 c 128,-1,33
 1438.70117188 127.711914062 1438.70117188 127.711914062 1438.34960938 19.0048828125 c 0,34,35
 1437.77246094 -283.092773438 1437.77246094 -283.092773438 1138.31835938 -419.8984375 c 0,36,37
 965.366210938 -498.995117188 965.366210938 -498.995117188 755.979492188 -499.208984375 c 0,38,39
 208.986328125 -499.034179688 208.986328125 -499.034179688 105.876953125 -126.609375 c 0,40,41
 82.9306640625 -42.6357421875 82.9306640625 -42.6357421875 82.76171875 58.0322265625 c 0,42,43
 83.0048828125 277.248046875 83.0048828125 277.248046875 224.1953125 595.451171875 c 2,44,-1
 232.09375 613.251953125 l 1,45,-1
 250.09765625 605.831054688 l 1,46,-1
 408.62109375 540.491210938 l 1,47,-1
 427.56640625 532.681640625 l 1,48,-1
 419.30078125 513.931640625 l 2,49,50
 298.005859375 238.80078125 298.005859375 238.80078125 298.268554688 61.2412109375 c 0,51,52
 298.140625 -111.875 298.140625 -111.875 411.030273438 -197.592773438 c 128,-1,53
 523.918945312 -283.309570312 523.918945312 -283.309570312 758.92578125 -283.60546875 c 0,54,55
 923.625976562 -283.989257812 923.625976562 -283.989257812 1060.58398438 -220.720703125 c 0,56,57
 1130.22265625 -188.416015625 1130.22265625 -188.416015625 1178.10253906 -139.052734375 c 0,58,59
 1231.09082031 -84.7646484375 1231.09082031 -84.7646484375 1231.80761719 -20.498046875 c 0,0,1
EndSplineSet
Substitution2: "'fina' Terminal Forms in Arabic lookup 9 subtable" uniFEF0
Substitution2: "'medi' Medial Forms in Arabic lookup 11 subtable" uniFBE9
Substitution2: "'init' Initial Forms in Arabic lookup 13 subtable" uniFBE8
EndChar

StartChar: uni064B
Encoding: 1611 1611 46
GlifName: uni064B_
Width: -26
VWidth: 2316
GlyphClass: 4
Flags: W
AnchorPoint: "Anchor-10" 593.551 1113.65 mark 0
AnchorPoint: "Anchor-9" 593.551 1113.65 mark 0
AnchorPoint: "Anchor-1" 553.285 1666.25 basemark 0
AnchorPoint: "Anchor-1" 593.551 1113.65 mark 0
LayerCount: 2
Fore
SplineSet
316.700195312 1076.40039062 m 1,0,-1
 316.700195312 1179.97753906 l 1,1,-1
 316.700195312 1186.69103815 l 1,2,-1
 322.91384908 1189.23300135 l 1,3,-1
 778.313263143 1375.5337826 l 1,4,-1
 792.099609375 1381.17368242 l 1,5,-1
 792.099609375 1366.27832031 l 1,6,-1
 792.099609375 1262.70019531 l 1,7,-1
 792.099609375 1255.98668289 l 1,8,-1
 785.885938605 1253.44472606 l 1,9,-1
 330.486524542 1067.14492137 l 1,10,-1
 316.700195312 1061.50505807 l 1,11,-1
 316.700195312 1076.40039062 l 1,0,-1
316.700195312 1328.40039062 m 1,12,-1
 316.700195312 1431.97753906 l 1,13,-1
 316.700195312 1438.69103815 l 1,14,-1
 322.91384908 1441.23300135 l 1,15,-1
 778.313263143 1627.5337826 l 1,16,-1
 792.099609375 1633.17368242 l 1,17,-1
 792.099609375 1618.27832031 l 1,18,-1
 792.099609375 1514.70019531 l 1,19,-1
 792.099609375 1507.98668289 l 1,20,-1
 785.885938605 1505.44472606 l 1,21,-1
 330.486524542 1319.14492137 l 1,22,-1
 316.700195312 1313.50505807 l 1,23,-1
 316.700195312 1328.40039062 l 1,12,-1
EndSplineSet
EndChar

StartChar: uni064C
Encoding: 1612 1612 47
GlifName: uni064C_
Width: -26
VWidth: 2316
GlyphClass: 4
Flags: W
AnchorPoint: "Anchor-10" 680.906 1218.67 mark 0
AnchorPoint: "Anchor-9" 680.906 1218.67 mark 0
AnchorPoint: "Anchor-1" 571.739 1915.46 basemark 0
AnchorPoint: "Anchor-1" 680.906 1218.67 mark 0
LayerCount: 2
Fore
SplineSet
595.332988616 1710.73949001 m 0,0,1
 590.936791136 1705.56224996 590.936791136 1705.56224996 587.657875341 1700.09285866 c 128,-1,2
 584.378959546 1694.62346735 584.378959546 1694.62346735 582.190196765 1688.80538407 c 128,-1,3
 580.001433983 1682.98730079 580.001433983 1682.98730079 578.889314262 1676.82567593 c 128,-1,4
 577.777194541 1670.66405107 577.777194541 1670.66405107 577.714102801 1664.06956461 c 0,5,6
 577.837544302 1639.00756958 577.837544302 1639.00756958 592.325803191 1620.47765325 c 128,-1,7
 606.81406208 1601.94773693 606.81406208 1601.94773693 637.457754306 1589.06409619 c 0,8,9
 642.632877748 1586.88829992 642.632877748 1586.88829992 649.343514408 1584.39381355 c 128,-1,10
 656.054151068 1581.89932719 656.054151068 1581.89932719 664.258102478 1579.10109687 c 128,-1,11
 672.462053887 1576.30286655 672.462053887 1576.30286655 682.168599427 1573.19904567 c 128,-1,12
 691.875144968 1570.0952248 691.875144968 1570.0952248 703.013938048 1566.70926047 c 1,13,14
 725.00025965 1607.35703093 725.00025965 1607.35703093 725.001953127 1648.82011357 c 0,15,16
 725.001035166 1694.96419042 725.001035166 1694.96419042 707.752262602 1715.78725957 c 128,-1,17
 690.503490037 1736.61032872 690.503490037 1736.61032872 654.369293948 1736.29418675 c 0,18,19
 644.701357554 1736.22700335 644.701357554 1736.22700335 636.245503082 1734.59458644 c 128,-1,20
 627.78964861 1732.96216953 627.78964861 1732.96216953 620.468368965 1729.74486852 c 128,-1,21
 613.147089319 1726.5275675 613.147089319 1726.5275675 606.913689328 1721.80230354 c 128,-1,22
 600.680289337 1717.07703957 600.680289337 1717.07703957 595.332988616 1710.73949001 c 0,0,1
328.794175989 1514.66508857 m 2,23,24
 330.854530626 1403.67155877 330.854530626 1403.67155877 362.043298008 1351.18176536 c 128,-1,25
 393.23206539 1298.69197195 393.23206539 1298.69197195 452.435717992 1299.2748766 c 0,26,27
 519.908803243 1299.95903071 519.908803243 1299.95903071 593.516393978 1371.25249643 c 0,28,29
 633.301872698 1410.50617478 633.301872698 1410.50617478 669.71311544 1479.12629336 c 1,30,-1
 652.935409954 1482.68687219 l 2,31,32
 618.744621666 1490.04763248 618.744621666 1490.04763248 591.753761594 1500.38731518 c 128,-1,33
 564.762901521 1510.72699787 564.762901521 1510.72699787 544.189389231 1524.67339062 c 128,-1,34
 523.615876941 1538.61978337 523.615876941 1538.61978337 510.334967988 1556.01050735 c 0,35,36
 493.260007915 1578.71173903 493.260007915 1578.71173903 484.630003958 1603.56743182 c 128,-1,37
 476 1628.4231246 476 1628.4231246 476 1655.09960938 c 0,38,39
 476 1708.38809745 476 1708.38809745 494.163645835 1744.24880196 c 0,40,41
 540.889269719 1834.97555686 540.889269719 1834.97555686 650.113950745 1835.41389881 c 0,42,43
 726.006785132 1836.0330194 726.006785132 1836.0330194 772.146698583 1791.46525142 c 0,44,45
 789.194599828 1774.96232863 789.194599828 1774.96232863 800.588811506 1753.51021729 c 128,-1,46
 811.983023185 1732.05810595 811.983023185 1732.05810595 817.619402999 1706.35287682 c 128,-1,47
 823.255782813 1680.64764769 823.255782813 1680.64764769 823.39028863 1650.47664788 c 0,48,49
 823.962530996 1612.55825469 823.962530996 1612.55825469 805.141720143 1550.42903107 c 1,50,-1
 822.39407597 1549.52321916 l 2,51,52
 851.343008583 1547.99581168 851.343008583 1547.99581168 880.659935647 1547.51820491 c 2,53,-1
 890.497070312 1547.35797083 l 1,54,-1
 890.497070312 1537.51953125 l 1,55,-1
 890.497070312 1459.00878906 l 1,56,-1
 890.497070312 1448.76103296 l 1,57,-1
 880.252382446 1449.01178312 l 2,58,59
 839.883564296 1449.99985495 839.883564296 1449.99985495 828.933500934 1451.05274565 c 2,60,-1
 760.098965306 1457.671451 l 1,61,62
 713.287940518 1348.35514582 713.287940518 1348.35514582 626.599967731 1273.58686553 c 0,63,64
 543.763167734 1201.00157435 543.763167734 1201.00157435 453.707735365 1200.96387805 c 0,65,66
 258.158918039 1199.94878 258.158918039 1199.94878 253.148730662 1514.3201408 c 2,67,-1
 252.986819431 1524.47949219 l 1,68,-1
 263.147460938 1524.47949219 l 1,69,-1
 318.795898438 1524.47949219 l 1,70,-1
 328.611992829 1524.47949219 l 1,71,-1
 328.794175989 1514.66508857 l 2,23,24
EndSplineSet
EndChar

StartChar: uni064D
Encoding: 1613 1613 48
GlifName: uni064D_
Width: -26
VWidth: 2316
GlyphClass: 4
Flags: W
AnchorPoint: "Anchor-7" 546.278 61.7109 mark 0
AnchorPoint: "Anchor-6" 546.278 61.7109 mark 0
AnchorPoint: "Anchor-0" 592.022 -447.025 basemark 0
AnchorPoint: "Anchor-0" 546.278 61.7109 mark 0
LayerCount: 2
Fore
SplineSet
322.099609375 -486 m 1,0,-1
 322.099609375 -382.422851562 l 1,1,-1
 322.099609375 -375.709347019 l 1,2,-1
 328.313270098 -373.167386426 l 1,3,-1
 783.713660723 -186.866605176 l 1,4,-1
 797.5 -181.226720295 l 1,5,-1
 797.5 -196.122070312 l 1,6,-1
 797.5 -299.700195312 l 1,7,-1
 797.5 -306.413713179 l 1,8,-1
 791.286322275 -308.955667403 l 1,9,-1
 335.88593165 -495.255472091 l 1,10,-1
 322.099609375 -500.895320453 l 1,11,-1
 322.099609375 -486 l 1,0,-1
322.099609375 -234 m 1,12,-1
 322.099609375 -130.422851562 l 1,13,-1
 322.099609375 -123.709347019 l 1,14,-1
 328.313270098 -121.167386426 l 1,15,-1
 783.713660723 65.1333948234 l 1,16,-1
 797.5 70.7732797042 l 1,17,-1
 797.5 55.8779296875 l 1,18,-1
 797.5 -47.7001953125 l 1,19,-1
 797.5 -54.4137131796 l 1,20,-1
 791.286322275 -56.9556674038 l 1,21,-1
 335.88593165 -243.255472091 l 1,22,-1
 322.099609375 -248.895320453 l 1,23,-1
 322.099609375 -234 l 1,12,-1
EndSplineSet
EndChar

StartChar: uni064E
Encoding: 1614 1614 49
GlifName: uni064E_
Width: -26
VWidth: 2316
GlyphClass: 4
Flags: W
AnchorPoint: "Anchor-10" 581.66 1364.63 mark 0
AnchorPoint: "Anchor-9" 581.66 1364.63 mark 0
AnchorPoint: "Anchor-1" 541.396 1691.77 basemark 0
AnchorPoint: "Anchor-1" 581.66 1364.63 mark 0
LayerCount: 2
Fore
SplineSet
286.099609375 1349.09960938 m 1,0,-1
 286.099609375 1452.67773438 l 1,1,-1
 286.099609375 1459.39123892 l 1,2,-1
 292.313270098 1461.93319952 l 1,3,-1
 747.713660723 1648.23398076 l 1,4,-1
 761.5 1653.87386564 l 1,5,-1
 761.5 1638.97851562 l 1,6,-1
 761.5 1535.40039062 l 1,7,-1
 761.5 1528.68688608 l 1,8,-1
 755.286339277 1526.14492548 l 1,9,-1
 299.885948652 1339.84414424 l 1,10,-1
 286.099609375 1334.20425936 l 1,11,-1
 286.099609375 1349.09960938 l 1,0,-1
EndSplineSet
EndChar

StartChar: uni064F
Encoding: 1615 1615 50
GlifName: uni064F_
Width: -26
VWidth: 2316
GlyphClass: 4
Flags: W
AnchorPoint: "Anchor-10" 611.295 1299.37 mark 0
AnchorPoint: "Anchor-9" 611.295 1299.37 mark 0
AnchorPoint: "Anchor-1" 580.134 1920.4 basemark 0
AnchorPoint: "Anchor-1" 611.295 1299.37 mark 0
LayerCount: 2
Fore
SplineSet
822.652665768 1464.00195313 m 2,0,1
 761.78021351 1464.00195313 761.78021351 1464.00195313 722.710230408 1469.08352409 c 2,2,-1
 697.318280911 1472.38608487 l 1,3,4
 561.335834134 1285.19918833 561.335834134 1285.19918833 319.090113649 1272.68519124 c 2,5,-1
 308.57421875 1272.14195821 l 1,6,-1
 308.57421875 1282.671875 l 1,7,-1
 308.57421875 1360.92578125 l 1,8,-1
 308.57421875 1370.50861437 l 1,9,-1
 318.148358353 1370.91670928 l 2,10,11
 493.811260653 1378.40428932 493.811260653 1378.40428932 588.810543344 1501.17167549 c 1,12,13
 551.038598289 1511.14822841 551.038598289 1511.14822841 511.68402816 1532.69510988 c 0,14,15
 419.982875175 1584.15430851 419.982875175 1584.15430851 420.250170025 1675.62552974 c 0,16,17
 421.041612066 1743.63389695 421.041612066 1743.63389695 458.490385339 1789.17916878 c 0,18,19
 507.305666103 1848.0023159 507.305666103 1848.0023159 592.964142497 1847.95995879 c 0,20,21
 599.369623659 1847.96416119 599.369623659 1847.96416119 605.624119139 1847.58509767 c 128,-1,22
 611.878614618 1847.20603416 611.878614618 1847.20603416 617.976955964 1846.444684 c 128,-1,23
 624.075297309 1845.68333383 624.075297309 1845.68333383 630.017402785 1844.5380795 c 128,-1,24
 635.95950826 1843.39282517 635.95950826 1843.39282517 641.737483872 1841.86682566 c 128,-1,25
 647.515459484 1840.34082616 647.515459484 1840.34082616 653.13213074 1838.43013891 c 128,-1,26
 658.748801997 1836.51945166 658.748801997 1836.51945166 664.193367661 1834.22956072 c 128,-1,27
 669.637933324 1831.93966977 669.637933324 1831.93966977 674.916126148 1829.2643075 c 128,-1,28
 680.194318971 1826.58894524 680.194318971 1826.58894524 685.292430472 1823.53592075 c 128,-1,29
 690.390541973 1820.48289627 690.390541973 1820.48289627 695.317212149 1817.04361688 c 128,-1,30
 700.243882324 1813.6043375 700.243882324 1813.6043375 704.982677151 1809.78879206 c 0,31,32
 709.273120827 1806.33401428 709.273120827 1806.33401428 713.276229603 1802.66146127 c 128,-1,33
 717.279338378 1798.98890825 717.279338378 1798.98890825 720.99418643 1795.09966495 c 128,-1,34
 724.709034482 1791.21042166 724.709034482 1791.21042166 728.134982528 1787.10423489 c 128,-1,35
 731.560930575 1782.99804812 731.560930575 1782.99804812 734.696373129 1778.67752014 c 128,-1,36
 737.831815683 1774.35699216 737.831815683 1774.35699216 740.676838439 1769.82025131 c 128,-1,37
 743.521861195 1765.28351046 743.521861195 1765.28351046 746.07413369 1760.53477748 c 128,-1,38
 748.626406185 1755.7860445 748.626406185 1755.7860445 750.886739089 1750.82182926 c 128,-1,39
 753.147071992 1745.85761402 753.147071992 1745.85761402 755.112455178 1740.68365456 c 0,40,41
 766.023852439 1710.69730299 766.023852439 1710.69730299 765.545266838 1675.28608535 c 0,42,43
 765.293971349 1648.40241303 765.293971349 1648.40241303 759.816436729 1620.56827958 c 128,-1,44
 754.33890211 1592.73414612 754.33890211 1592.73414612 744.013440752 1565.02343669 c 1,45,-1
 750.497736842 1564.44642139 l 2,46,47
 769.894859264 1562.72983209 769.894859264 1562.72983209 787.868656864 1562.18766484 c 128,-1,48
 805.842454464 1561.64549759 805.842454464 1561.64549759 822.271598554 1562.27497559 c 2,49,-1
 832.65234375 1562.67050427 l 1,50,-1
 832.65234375 1552.28222656 l 1,51,-1
 832.65234375 1474.00195312 l 1,52,-1
 832.65234375 1464.00227513 l 1,53,-1
 822.652665768 1464.00195313 l 2,0,1
644.23867863 1581.78321197 m 1,54,-1
 646.931063156 1587.99221245 l 2,55,56
 667.007895062 1634.10082108 667.007895062 1634.10082108 667.158130462 1673.71659773 c 0,57,58
 667.086043618 1692.52770418 667.086043618 1692.52770418 661.69349576 1705.77088063 c 128,-1,59
 656.300947903 1719.01405709 656.300947903 1719.01405709 645.655859298 1727.72299222 c 0,60,61
 623.218317253 1747.05811108 623.218317253 1747.05811108 596.804180607 1747.47260192 c 0,62,63
 583.167059216 1747.63291662 583.167059216 1747.63291662 571.884167576 1744.59500291 c 128,-1,64
 560.601275937 1741.5570892 560.601275937 1741.5570892 551.595473297 1735.41888103 c 128,-1,65
 542.589670656 1729.28067286 542.589670656 1729.28067286 535.390844037 1719.88704718 c 0,66,67
 520.378353178 1699.57134333 520.378353178 1699.57134333 519.868422807 1671.94906334 c 0,68,69
 519.982046733 1631.41814678 519.982046733 1631.41814678 579.930076292 1603.86909017 c 0,70,71
 586.512086811 1600.8159989 586.512086811 1600.8159989 596.146595164 1597.2388984 c 128,-1,72
 605.781103517 1593.6617979 605.781103517 1593.6617979 617.962338256 1589.74613021 c 128,-1,73
 630.143572995 1585.83046252 630.143572995 1585.83046252 644.23867863 1581.78321197 c 1,54,-1
EndSplineSet
EndChar

StartChar: uni0650
Encoding: 1616 1616 51
GlifName: uni0650
Width: -26
VWidth: 2316
GlyphClass: 4
Flags: W
AnchorPoint: "Anchor-7" 571.144 -21.8242 mark 0
AnchorPoint: "Anchor-6" 571.144 -21.8242 mark 0
AnchorPoint: "Anchor-0" 619.091 -334.624 basemark 0
AnchorPoint: "Anchor-0" 571.144 -21.8242 mark 0
LayerCount: 2
Fore
SplineSet
332.900390625 -345.599609375 m 1,0,-1
 332.900390625 -242.022460938 l 1,1,-1
 332.900390625 -235.308961846 l 1,2,-1
 339.114044393 -232.766998648 l 1,3,-1
 794.513458456 -46.466217397 l 1,4,-1
 808.299804688 -40.8263175765 l 1,5,-1
 808.299804688 -55.7216796875 l 1,6,-1
 808.299804688 -159.299804688 l 1,7,-1
 808.299804688 -166.013317104 l 1,8,-1
 802.086133918 -168.555273934 l 1,9,-1
 346.686719855 -354.855078621 l 1,10,-1
 332.900390625 -360.494941922 l 1,11,-1
 332.900390625 -345.599609375 l 1,0,-1
EndSplineSet
EndChar

StartChar: uni0651
Encoding: 1617 1617 52
GlifName: uni0651
Width: -26
VWidth: 2393
GlyphClass: 4
Flags: W
AnchorPoint: "Anchor-10" 598.801 1463.71 mark 0
AnchorPoint: "Anchor-9" 598.801 1463.71 mark 0
AnchorPoint: "Anchor-1" 570.087 1849.1 basemark 0
AnchorPoint: "Anchor-1" 598.801 1463.71 mark 0
LayerCount: 2
Fore
SplineSet
618.412645919 1768.89242112 m 2,0,1
 619.30749402 1748.07848034 619.30749402 1748.07848034 619.858659898 1727.40284431 c 128,-1,2
 620.409825777 1706.72720828 620.409825777 1706.72720828 620.623282745 1685.93068262 c 0,3,4
 620.423638877 1642.49315672 620.423638877 1642.49315672 634.277786218 1623.29711008 c 128,-1,5
 648.131933559 1604.10106343 648.131933559 1604.10106343 676.611536658 1604.25164957 c 0,6,7
 707.00449922 1604.48846798 707.00449922 1604.48846798 722.167046056 1626.04174361 c 128,-1,8
 737.329592892 1647.59501923 737.329592892 1647.59501923 737.627208882 1695.2404651 c 0,9,10
 737.659516994 1699.7577161 737.659516994 1699.7577161 737.431492037 1704.9594675 c 128,-1,11
 737.20346708 1710.1612189 737.20346708 1710.1612189 736.71568548 1716.04815989 c 128,-1,12
 736.227903879 1721.93510088 736.227903879 1721.93510088 735.473833248 1728.51195407 c 128,-1,13
 734.719762616 1735.08880727 734.719762616 1735.08880727 733.706793956 1742.31800659 c 128,-1,14
 732.693825296 1749.54720591 732.693825296 1749.54720591 731.408157339 1757.47427959 c 128,-1,15
 730.122489382 1765.40135328 730.122489382 1765.40135328 728.578782012 1773.94792963 c 128,-1,16
 727.035074641 1782.49450598 727.035074641 1782.49450598 725.212257706 1791.74691885 c 128,-1,17
 723.389440772 1800.99933173 723.389440772 1800.99933173 721.308988734 1810.84095415 c 2,18,-1
 719.13196939 1821.13939027 l 1,19,-1
 729.528395956 1822.7860579 l 1,20,-1
 817.60456783 1836.73625321 l 1,21,-1
 826.334444655 1838.11895961 l 1,22,-1
 828.778902953 1829.62500588 l 2,23,24
 847.011141889 1766.27199467 847.011141889 1766.27199467 846.527436109 1705.01225672 c 0,25,26
 846.769789179 1601.41683475 846.769789179 1601.41683475 807.605412545 1546.89629847 c 128,-1,27
 768.441035912 1492.37576219 768.441035912 1492.37576219 690.470246765 1491.66628051 c 0,28,29
 631.084250607 1491.23402318 631.084250607 1491.23402318 588.240970019 1535.03857026 c 1,30,31
 551.365722158 1428.19470822 551.365722158 1428.19470822 431.98662674 1427.88961904 c 0,32,33
 360.213905445 1428.05473914 360.213905445 1428.05473914 322.956209773 1473.69156341 c 128,-1,34
 285.698514102 1519.32838767 285.698514102 1519.32838767 284.303887988 1606.3481088 c 0,35,36
 283.379905143 1667.17297955 283.379905143 1667.17297955 297.434663046 1718.38765035 c 2,37,-1
 299.821453858 1727.08496883 l 1,38,-1
 308.718205051 1725.60580102 l 1,39,-1
 387.032658176 1712.5852932 l 1,40,-1
 397.382508131 1710.86453417 l 1,41,-1
 395.167108556 1700.60917409 l 2,42,43
 385.30795128 1654.96990922 385.30795128 1654.96990922 385.576868959 1619.70855201 c 0,44,45
 385.866831848 1580.92533379 385.866831848 1580.92533379 400.043558855 1563.50064917 c 128,-1,46
 414.220285862 1546.07596454 414.220285862 1546.07596454 443.719459544 1545.90215613 c 0,47,48
 480.086450215 1545.67938079 480.086450215 1545.67938079 498.983795789 1570.47892633 c 128,-1,49
 517.881141363 1595.27847187 517.881141363 1595.27847187 519.957531817 1649.59880369 c 0,50,51
 521.89813562 1700.23233456 521.89813562 1700.23233456 521.096395807 1768.34519121 c 2,52,-1
 520.977302836 1778.46289062 l 1,53,-1
 531.095703125 1778.46289062 l 1,54,-1
 608.421875 1778.46289062 l 1,55,-1
 618.001185324 1778.46289062 l 1,56,-1
 618.412645919 1768.89242112 l 2,0,1
EndSplineSet
EndChar

StartChar: uni0652
Encoding: 1618 1618 53
GlifName: uni0652
Width: -26
VWidth: 2316
GlyphClass: 4
Flags: W
AnchorPoint: "Anchor-10" 603.219 1222.43 mark 0
AnchorPoint: "Anchor-9" 603.219 1222.43 mark 0
AnchorPoint: "Anchor-1" 577.537 1799.66 basemark 0
AnchorPoint: "Anchor-1" 603.219 1222.43 mark 0
LayerCount: 2
Fore
SplineSet
388.139648438 1461.671875 m 128,-1,1
 388.139648438 1547.7143508 388.139648438 1547.7143508 447.76786027 1607.34358965 c 128,-1,2
 507.396977322 1666.97167969 507.396977322 1666.97167969 593.439453125 1666.97167969 c 128,-1,3
 679.480952365 1666.97167969 679.480952365 1666.97167969 739.110130312 1607.34352875 c 0,4,5
 768.794066273 1577.65959279 768.794066273 1577.65959279 783.766662042 1541.06079133 c 128,-1,6
 798.739257812 1504.46198987 798.739257812 1504.46198987 798.739257812 1461.671875 c 0,7,8
 798.739257812 1375.63032532 798.739257812 1375.63032532 739.110130312 1316.00119781 c 0,9,10
 709.426204109 1286.31727161 709.426204109 1286.31727161 672.827648554 1271.34467096 c 128,-1,11
 636.229092998 1256.37207031 636.229092998 1256.37207031 593.439453125 1256.37207031 c 0,12,13
 507.396926877 1256.37207031 507.396926877 1256.37207031 447.767738482 1316.0012587 c 128,-1,0
 388.139648438 1375.63037576 388.139648438 1375.63037576 388.139648438 1461.671875 c 128,-1,1
494.539324642 1460.77257275 m 0,14,15
 494.23045463 1418.04970837 494.23045463 1418.04970837 524.01090201 1388.64323768 c 0,16,17
 553.173312079 1359.10597117 553.173312079 1359.10597117 596.155202806 1359.1718629 c 0,18,19
 638.487861988 1359.10601705 638.487861988 1359.10601705 668.267554951 1388.6432087 c 0,20,21
 678.042996785 1398.49993638 678.042996785 1398.49993638 684.543356192 1409.71569337 c 128,-1,22
 691.043715599 1420.93145037 691.043715599 1420.93145037 694.33943196 1433.66982307 c 128,-1,23
 697.635148321 1446.40819577 697.635148321 1446.40819577 697.73899567 1460.77234913 c 0,24,25
 697.430115035 1503.36494145 697.430115035 1503.36494145 668.267525981 1532.90060131 c 0,26,27
 638.487925481 1562.30623576 638.487925481 1562.30623576 596.154978534 1562.37208206 c 0,28,29
 553.172832243 1562.30618994 553.172832243 1562.30618994 524.010766485 1532.90073685 c 0,30,31
 494.230453769 1503.36381879 494.230453769 1503.36381879 494.539324642 1460.77257275 c 0,14,15
EndSplineSet
EndChar

StartChar: uni0653
Encoding: 1619 1619 54
GlifName: uni0653
Width: -30
VWidth: 2673
GlyphClass: 4
Flags: W
AnchorPoint: "Anchor-10" 461.017 1539.11 mark 0
AnchorPoint: "Anchor-9" 461.017 1539.11 mark 0
AnchorPoint: "Anchor-1" 461.017 2005.25 basemark 0
AnchorPoint: "Anchor-1" 461.017 1539.11 mark 0
LayerCount: 2
Fore
SplineSet
400.348632812 1636.8046875 m 2,0,1
 289.097070303 1652.11547185 289.097070303 1652.11547185 197.061523438 1542.6328125 c 1,2,-1
 95.6953125 1679.29980469 l 5,3,4
 214.313143403 1849.44918336 214.313143403 1849.44918336 383.756835938 1822.15820312 c 6,5,-1
 532.506835938 1798.20019531 l 6,6,7
 632 1782 632 1782 752.004882812 1843.74121094 c 5,8,-1
 817.659179688 1677.28320312 l 1,9,10
 689.104504559 1597.06521074 689.104504559 1597.06521074 540.869140625 1617.46582031 c 2,11,-1
 400.348632812 1636.8046875 l 2,0,1
EndSplineSet
EndChar

StartChar: uni0657
Encoding: 1623 1623 57
GlifName: uni0657
Width: -26
VWidth: 2316
GlyphClass: 4
Flags: W
AnchorPoint: "Anchor-10" 573.285 1350.55 mark 0
AnchorPoint: "Anchor-9" 573.285 1350.55 mark 0
AnchorPoint: "Anchor-1" 573.285 2089.85 basemark 0
AnchorPoint: "Anchor-1" 573.285 1350.55 mark 0
LayerCount: 2
Fore
SplineSet
264.808507494 1814.65723412 m 2,0,1
 321.90247807 1813.06248809 321.90247807 1813.06248809 389.727361986 1806.15219534 c 1,2,3
 541.443736303 2019.70779015 541.443736303 2019.70779015 783.730396573 2042.668288 c 2,4,-1
 794.673828125 2043.70535143 l 1,5,-1
 794.673828125 2032.71289062 l 1,6,-1
 794.673828125 1954.59179688 l 1,7,-1
 794.673828125 1946.06661093 l 1,8,-1
 786.256026125 1944.71775771 l 2,9,10
 699.39612922 1930.7994865 699.39612922 1930.7994865 628.593810435 1890.3349333 c 128,-1,11
 557.79149165 1849.8703801 557.79149165 1849.8703801 503.201464312 1783.38144601 c 1,12,13
 557.798449709 1765.22347105 557.798449709 1765.22347105 597.073754521 1736.50521159 c 0,14,15
 632.265637506 1709.94804333 632.265637506 1709.94804333 650.127296646 1675.33309362 c 128,-1,16
 667.988955785 1640.71814391 667.988955785 1640.71814391 667.976561937 1598.87444814 c 0,17,18
 667.984749854 1574.46490521 667.984749854 1574.46490521 662.706686796 1552.59069946 c 128,-1,19
 657.428623737 1530.7164937 657.428623737 1530.7164937 646.836830423 1511.48171698 c 128,-1,20
 636.245037108 1492.24694026 636.245037108 1492.24694026 620.447595793 1475.98124782 c 0,21,22
 574.252928555 1427.99915345 574.252928555 1427.99915345 501.360237084 1428.01367205 c 0,23,24
 422.921952913 1427.99925002 422.921952913 1427.99925002 366.660355719 1483.05479978 c 0,25,26
 322.021094029 1527.84669221 322.021094029 1527.84669221 321.63552931 1603.29540241 c 0,27,28
 321.982169769 1644.90155089 321.982169769 1644.90155089 342.2098304 1713.45910995 c 1,29,30
 324.067200349 1714.79035361 324.067200349 1714.79035361 305.006142728 1715.50353931 c 128,-1,31
 285.945085106 1716.21672502 285.945085106 1716.21672502 264.454611447 1716.37723202 c 2,32,-1
 254.529296875 1716.45136172 l 1,33,-1
 254.529296875 1726.37695312 l 1,34,-1
 254.529296875 1804.66113281 l 1,35,-1
 254.529296875 1814.94435254 l 1,36,-1
 264.808507494 1814.65723412 l 2,0,1
501.186651833 1526.40112916 m 0,37,38
 536.869352751 1526.92566049 536.869352751 1526.92566049 553.59522326 1549.80158766 c 0,39,40
 560.222509977 1559.35675663 560.222509977 1559.35675663 563.697201699 1571.10290841 c 128,-1,41
 567.171893421 1582.8490602 567.171893421 1582.8490602 567.313206395 1596.65855147 c 0,42,43
 567.175414574 1622.75357532 567.175414574 1622.75357532 549.632087961 1643.44819442 c 128,-1,44
 532.088761349 1664.14281352 532.088761349 1664.14281352 495.132733237 1679.77805618 c 0,45,46
 482.447208429 1685.09779239 482.447208429 1685.09779239 468.861357254 1689.63242809 c 128,-1,47
 455.275506079 1694.16706379 455.275506079 1694.16706379 443.200105724 1697.20299204 c 1,48,49
 420.0026413 1640.46636587 420.0026413 1640.46636587 420.023431251 1604.95366433 c 0,50,51
 420.00233399 1586.08216436 420.00233399 1586.08216436 425.95840058 1572.43794911 c 0,52,53
 434.856324819 1552.00548951 434.856324819 1552.00548951 457.021477414 1539.16442005 c 0,54,55
 479.615981606 1526.04460345 479.615981606 1526.04460345 501.186651833 1526.40112916 c 0,37,38
EndSplineSet
EndChar

StartChar: uni065A
Encoding: 1626 1626 58
GlifName: uni065A_
Width: 1135
VWidth: 2316
GlyphClass: 4
Flags: W
AnchorPoint: "Anchor-10" 573.285 1350.55 mark 0
AnchorPoint: "Anchor-9" 573.285 1350.55 mark 0
AnchorPoint: "Anchor-1" 571.012 1862.38 basemark 0
AnchorPoint: "Anchor-1" 573.285 1350.55 mark 0
LayerCount: 2
Fore
SplineSet
493.785304065 1439.29243179 m 1,0,-1
 299.942530627 1763.35688492 l 1,1,-1
 290.89034856 1778.49023438 l 1,2,-1
 308.524414062 1778.49023438 l 1,3,-1
 412.922851562 1778.49023438 l 1,4,-1
 418.274779537 1778.49023438 l 1,5,-1
 421.243432456 1774.03711941 l 1,6,-1
 573.285181585 1545.96755152 l 1,7,-1
 725.327872196 1774.0371428 l 1,8,-1
 728.296527603 1778.49023438 l 1,9,-1
 733.6484375 1778.49023438 l 1,10,-1
 838.047851562 1778.49023438 l 1,11,-1
 855.682053877 1778.49023438 l 1,12,-1
 846.629700818 1763.35682778 l 1,13,-1
 652.783997694 1439.29237465 l 1,14,-1
 649.872946482 1434.42578125 l 1,15,-1
 644.202148438 1434.42578125 l 1,16,-1
 502.3671875 1434.42578125 l 1,17,-1
 496.696345459 1434.42578125 l 1,18,-1
 493.785304065 1439.29243179 l 1,0,-1
EndSplineSet
EndChar

StartChar: afii57392
Encoding: 1632 1632 59
GlifName: afii57392
Width: 1077
VWidth: 2972
GlyphClass: 2
Flags: W
LayerCount: 2
Fore
SplineSet
419.290039062 613.262695312 m 0,0,1
 419.290039062 602.783203125 419.290039062 602.783203125 420.67578125 593.141601562 c 128,-1,2
 422.061523438 583.500976562 422.061523438 583.500976562 424.844726562 574.583007812 c 128,-1,3
 427.62890625 565.665039062 427.62890625 565.665039062 431.860351562 557.405273438 c 128,-1,4
 436.091796875 549.145507812 436.091796875 549.145507812 441.739257812 541.510742188 c 128,-1,5
 447.385742188 533.876953125 447.385742188 533.876953125 454.54296875 526.720703125 c 0,6,7
 463.458007812 517.8046875 463.458007812 517.8046875 473.288085938 511.209960938 c 128,-1,8
 483.1171875 504.615234375 483.1171875 504.615234375 494.055664062 500.163085938 c 0,9,10
 516.1015625 491.189453125 516.1015625 491.189453125 542.590820312 490.967773438 c 0,11,12
 594.329101562 491.41015625 594.329101562 491.41015625 629.639648438 526.721679688 c 0,13,14
 647.3046875 544.385742188 647.3046875 544.385742188 656.078125 565.877929688 c 0,15,16
 660.471679688 576.64453125 660.471679688 576.64453125 662.681640625 588.434570312 c 128,-1,17
 664.890625 600.224609375 664.890625 600.224609375 664.890625 613.262695312 c 0,18,19
 664.890625 639.056640625 664.890625 639.056640625 656.078125 660.649414062 c 0,20,21
 651.692382812 671.39453125 651.692382812 671.39453125 645.127929688 681.138671875 c 128,-1,22
 638.563476562 690.8828125 638.563476562 690.8828125 629.640625 699.806640625 c 0,23,24
 594.330078125 735.116210938 594.330078125 735.116210938 541.588867188 735.559570312 c 0,25,26
 528.633789062 735.44921875 528.633789062 735.44921875 516.627929688 733.130859375 c 128,-1,27
 504.622070312 730.813476562 504.622070312 730.813476562 493.864257812 726.390625 c 0,28,29
 486.658203125 723.427734375 486.658203125 723.427734375 479.943359375 719.532226562 c 128,-1,30
 473.227539062 715.637695312 473.227539062 715.637695312 466.868164062 710.705078125 c 128,-1,31
 460.509765625 705.7734375 460.509765625 705.7734375 454.541992188 699.806640625 c 0,32,33
 419.290039062 664.555664062 419.290039062 664.555664062 419.290039062 613.262695312 c 0,0,1
299.48828125 851.606445312 m 128,-1,35
 324.1171875 876.234375 324.1171875 876.234375 351.228515625 894.737304688 c 128,-1,36
 378.484375 913.338867188 378.484375 913.338867188 408.219726562 925.7421875 c 0,37,38
 467.616210938 950.51953125 467.616210938 950.51953125 536.678710938 950.51953125 c 0,39,40
 582.643554688 950.51953125 582.643554688 950.51953125 624.352539062 939.534179688 c 128,-1,41
 666.232421875 928.50390625 666.232421875 928.50390625 703.717773438 906.42578125 c 0,42,43
 711.198242188 902.020507812 711.198242188 902.020507812 718.50390625 897.172851562 c 128,-1,44
 725.810546875 892.326171875 725.810546875 892.326171875 732.915039062 887.057617188 c 128,-1,45
 740.01953125 881.7890625 740.01953125 881.7890625 746.947265625 876.0859375 c 128,-1,46
 753.874023438 870.3828125 753.874023438 870.3828125 760.599609375 864.266601562 c 128,-1,47
 767.325195312 858.150390625 767.325195312 858.150390625 773.870117188 851.606445312 c 0,48,49
 823.240234375 802.235351562 823.240234375 802.235351562 848.001953125 742.87890625 c 0,50,51
 860.399414062 713.161132812 860.399414062 713.161132812 866.591796875 680.984375 c 128,-1,52
 872.784179688 648.806640625 872.784179688 648.806640625 872.784179688 614.4140625 c 0,53,54
 872.784179688 476.13671875 872.784179688 476.13671875 773.870117188 377.221679688 c 0,55,56
 761.577148438 364.9296875 761.577148438 364.9296875 748.635742188 354.1484375 c 128,-1,57
 735.6953125 343.368164062 735.6953125 343.368164062 722.115234375 334.12109375 c 0,58,59
 694.849609375 315.5546875 694.849609375 315.5546875 665.102539062 303.228515625 c 128,-1,60
 635.330078125 290.890625 635.330078125 290.890625 603.118164062 284.813476562 c 128,-1,61
 571.059570312 278.765625 571.059570312 278.765625 536.625 278.923828125 c 0,62,63
 467.646484375 278.606445312 467.646484375 278.606445312 408.237304688 303.231445312 c 0,64,65
 403.27734375 305.287109375 403.27734375 305.287109375 398.384765625 307.517578125 c 128,-1,66
 393.4921875 309.747070312 393.4921875 309.747070312 388.670898438 312.150390625 c 128,-1,67
 383.850585938 314.552734375 383.850585938 314.552734375 379.100585938 317.126953125 c 128,-1,68
 374.350585938 319.701171875 374.350585938 319.701171875 369.672851562 322.447265625 c 0,69,70
 350.991210938 333.413085938 350.991210938 333.413085938 333.403320312 347.145507812 c 128,-1,71
 315.891601562 360.817382812 315.891601562 360.817382812 299.487304688 377.22265625 c 0,72,73
 289.671875 387.038085938 289.671875 387.038085938 280.814453125 397.270507812 c 128,-1,74
 271.958007812 407.502929688 271.958007812 407.502929688 264.041992188 418.180664062 c 128,-1,75
 256.126953125 428.859375 256.126953125 428.859375 249.192382812 439.935546875 c 128,-1,76
 242.258789062 451.012695312 242.258789062 451.012695312 236.291015625 462.53125 c 128,-1,77
 230.322265625 474.048828125 230.322265625 474.048828125 225.358398438 485.948242188 c 0,78,79
 212.9609375 515.666015625 212.9609375 515.666015625 206.76953125 547.84375 c 128,-1,80
 200.577148438 580.021484375 200.577148438 580.021484375 200.577148438 614.415039062 c 128,-1,81
 200.577148438 648.809570312 200.577148438 648.809570312 206.767578125 680.986328125 c 128,-1,82
 212.958984375 713.162109375 212.958984375 713.162109375 225.353515625 742.875976562 c 128,-1,83
 237.745117188 772.583984375 237.745117188 772.583984375 256.32421875 799.801757812 c 128,-1,34
 274.90234375 827.020507812 274.90234375 827.020507812 299.48828125 851.606445312 c 128,-1,35
EndSplineSet
EndChar

StartChar: afii57393
Encoding: 1633 1633 60
GlifName: afii57393
Width: 756
VWidth: 2972
GlyphClass: 2
Flags: W
LayerCount: 2
Fore
SplineSet
327.916015625 1404.31054688 m 6,0,1
 534.115234375 952.094146253 534.115234375 952.094146253 534.115234375 288.771484375 c 6,2,-1
 534.115234375 31.5537109375 l 1,3,-1
 534.115234375 11.5537109375 l 1,4,-1
 514.115234375 11.5537109375 l 1,5,-1
 334.796875 11.5537109375 l 1,6,-1
 314.796875 11.5537109375 l 1,7,-1
 314.796875 31.5537109375 l 1,8,-1
 314.791992188 291.923828125 l 6,9,10
 314.999786915 948.326885893 314.999786915 948.326885893 126.9453125 1329.05078125 c 6,11,-1
 116.95703125 1349.27246094 l 5,12,-1
 138.228515625 1356.77050781 l 5,13,-1
 303.0703125 1414.875 l 5,14,-1
 320.325195312 1420.95800781 l 5,15,-1
 327.916015625 1404.31054688 l 6,0,1
EndSplineSet
EndChar

StartChar: afii57394
Encoding: 1634 1634 61
GlifName: afii57394
Width: 1217
VWidth: 2972
GlyphClass: 2
Flags: W
LayerCount: 2
Fore
SplineSet
430.086914062 1120.9921875 m 5,0,1
 486 962 486 962 685.025390625 961.76953125 c 4,2,3
 801 962 801 962 843.51953125 1045.15625 c 4,4,5
 869 1095 869 1095 882.569335938 1180.23339844 c 4,6,7
 895.971354654 1265.81707428 895.971354654 1265.81707428 895.948242188 1384.54003906 c 6,8,-1
 895.944335938 1404.60546875 l 5,9,-1
 916.009765625 1404.54394531 l 5,10,-1
 1095.75488281 1403.99023438 l 5,11,-1
 1115.87890625 1403.92773438 l 5,12,-1
 1115.69238281 1383.80566406 l 6,13,14
 1115 1308 1115 1308 1110.70800781 1242.28320312 c 4,15,16
 1091 980 1091 980 998.356445312 863.58984375 c 4,17,18
 895 734 895 734 689.1796875 734.568359375 c 4,19,20
 578 735 578 735 505.107421875 766.079101562 c 5,21,22
 534.115234375 528.054440141 534.115234375 528.054440141 534.115234375 288.771484375 c 6,23,-1
 534.115234375 31.5537109375 l 1,24,-1
 534.115234375 11.5537109375 l 1,25,-1
 514.115234375 11.5537109375 l 1,26,-1
 334.796875 11.5537109375 l 1,27,-1
 314.796875 11.5537109375 l 1,28,-1
 314.796875 31.5537109375 l 1,29,-1
 314.791992188 291.923828125 l 6,30,31
 314.999786915 948.326885893 314.999786915 948.326885893 126.9453125 1329.05078125 c 6,32,-1
 116.95703125 1349.27246094 l 5,33,-1
 138.227539062 1356.77050781 l 5,34,-1
 302.84765625 1414.79980469 l 5,35,-1
 321.564453125 1421.39746094 l 5,36,-1
 328.307617188 1402.73242188 l 5,37,-1
 430.086914062 1120.9921875 l 5,0,1
EndSplineSet
EndChar

StartChar: afii57395
Encoding: 1635 1635 62
GlifName: afii57395
Width: 1492
VWidth: 2972
GlyphClass: 2
Flags: W
LayerCount: 2
Fore
SplineSet
505.276367188 764.950195312 m 1,0,1
 534.115234375 522.029336584 534.115234375 522.029336584 534.115234375 288.771484375 c 2,2,-1
 534.115234375 31.5537109375 l 1,3,-1
 534.115234375 11.5537109375 l 1,4,-1
 514.115234375 11.5537109375 l 1,5,-1
 334.796875 11.5537109375 l 1,6,-1
 314.796875 11.5537109375 l 1,7,-1
 314.796875 31.5537109375 l 1,8,-1
 314.791992188 291.922851562 l 2,9,10
 314.999786915 948.326885892 314.999786915 948.326885892 126.9453125 1329.05078125 c 2,11,-1
 116.95703125 1349.27246094 l 1,12,-1
 138.227539062 1356.77050781 l 1,13,-1
 302.817382812 1414.7890625 l 1,14,-1
 321.739257812 1421.45898438 l 1,15,-1
 328.349609375 1402.51757812 l 1,16,-1
 438.040039062 1088.23242188 l 2,17,18
 476 979 476 979 602.654296875 977.631835938 c 4,19,20
 680 977 680 977 713.470703125 1033.69824219 c 0,21,22
 747.227398909 1090.38184392 747.227398909 1090.38184392 744.370117188 1214.09863281 c 2,23,-1
 741.666992188 1331.140625 l 1,24,-1
 741.209960938 1350.96191406 l 1,25,-1
 761.025390625 1351.59277344 l 1,26,-1
 919.680664062 1356.64355469 l 1,27,-1
 939.795898438 1357.28320312 l 1,28,-1
 940.310546875 1337.16503906 l 1,29,-1
 944.004882812 1192.89648438 l 2,30,31
 947 1077 947 1077 981.267578125 1024.37109375 c 0,32,33
 1016 971 1016 971 1080.74609375 970.890625 c 0,34,35
 1136 970 1136 970 1159.46484375 1019.23242188 c 0,36,37
 1165 1031 1165 1031 1168.80957031 1044.29101562 c 0,38,39
 1173 1058 1173 1058 1176.20800781 1074.42285156 c 0,40,41
 1181 1102 1181 1102 1181.38476562 1108.99609375 c 0,42,43
 1183 1131 1183 1131 1184.87402344 1152.62402344 c 0,44,45
 1186 1174 1186 1174 1187.39746094 1193.82324219 c 0,46,47
 1188 1214 1188 1214 1188.94628906 1232.43554688 c 0,48,49
 1189 1251 1189 1251 1189.51855469 1268.34472656 c 2,50,-1
 1189.83105469 1401.17773438 l 1,51,-1
 1189.87792969 1421.11230469 l 1,52,-1
 1209.8125 1421.13085938 l 1,53,-1
 1386.61523438 1421.29394531 l 1,54,-1
 1406.72265625 1421.3125 l 1,55,-1
 1406.63378906 1401.20507812 l 1,56,-1
 1406.0546875 1270.56152344 l 2,57,58
 1406.01117977 1214.42489467 1406.01117977 1214.42489467 1398.64355469 1121.89941406 c 0,59,60
 1384 938 1384 938 1305.43554688 842.40234375 c 128,-1,61
 1227 747 1227 747 1086.50976562 747.76953125 c 0,62,63
 938 749 938 749 837.9296875 853.482421875 c 1,64,65
 806 818 806 818 772.040039062 794.41015625 c 128,-1,66
 738 771 738 771 700.576171875 758.881835938 c 0,67,68
 663 747 663 747 623.088867188 746.943359375 c 0,69,70
 549 747 549 747 505.276367188 764.950195312 c 1,0,1
EndSplineSet
EndChar

StartChar: afii57396
Encoding: 1636 1636 63
GlifName: afii57396
Width: 1056
VWidth: 2972
GlyphClass: 2
Flags: W
LayerCount: 2
Fore
SplineSet
119.3203125 331.176757812 m 0,0,1
 111 558 111 558 453.935546875 749.158203125 c 1,2,3
 198.927658258 855.446958207 198.927658258 855.446958207 201.663085938 1060.01757812 c 0,4,5
 203 1157 203 1157 253.037109375 1230.65527344 c 0,6,7
 401.206108826 1447.30136311 401.206108826 1447.30136311 822.442382812 1397.24121094 c 2,8,-1
 841.350585938 1394.99414062 l 1,9,-1
 840.034179688 1375.99804688 l 1,10,-1
 827.4140625 1193.89355469 l 1,11,-1
 825.969726562 1173.04882812 l 1,12,-1
 805.208007812 1175.40332031 l 2,13,14
 756 1181 756 1181 713.874023438 1181.45898438 c 0,15,16
 452 1182 452 1182 450.830078125 1061.95996094 c 0,17,18
 450.002510812 919.432423904 450.002510812 919.432423904 789.400390625 891.642578125 c 2,19,-1
 807.541015625 890.157226562 l 1,20,-1
 807.766601562 871.95703125 l 1,21,-1
 810.046875 688.353515625 l 1,22,-1
 810.216796875 674.672851562 l 1,23,-1
 797.52734375 669.556640625 l 2,24,25
 347.330966794 487.015071795 347.330966794 487.015071795 355.474609375 371.564453125 c 4,26,27
 360 306 360 306 449.616210938 270.576171875 c 0,28,29
 539.285376381 234.886415654 539.285376381 234.886415654 723.704101562 236.053710938 c 2,30,-1
 917.640625 237.28125 l 1,31,-1
 937.54296875 237.407226562 l 1,32,-1
 937.766601562 217.505859375 l 1,33,-1
 939.983398438 20.244140625 l 1,34,-1
 940.2109375 -0.025390625 l 1,35,-1
 919.940429688 0.01953125 l 1,36,-1
 717.02734375 0.46875 l 2,37,38
 130 2 130 2 119.3203125 331.176757812 c 0,0,1
EndSplineSet
EndChar

StartChar: afii57397
Encoding: 1637 1637 64
GlifName: afii57397
Width: 1257
VWidth: 2972
GlyphClass: 2
Flags: W
LayerCount: 2
Fore
SplineSet
602.853515625 1023.66308594 m 5,0,1
 330 726 330 726 329.721679688 513.233398438 c 0,2,3
 330 378 330 378 429.040039062 299.807617188 c 0,4,5
 470 268 470 268 526.235351562 251.397460938 c 0,6,7
 582 235 582 235 654.083007812 235.291015625 c 0,8,9
 725 235 725 235 778.846679688 257.358398438 c 0,10,11
 832 280 832 280 870.000976562 324.252929688 c 0,12,13
 889 346 889 346 901.178710938 374.82421875 c 0,14,15
 914 403 914 403 920.087890625 439.966796875 c 128,-1,16
 926 477 926 477 926.259765625 520.24609375 c 0,17,18
 926 771 926 771 602.853515625 1023.66308594 c 5,0,1
380.211914062 1221.44238281 m 5,19,-1
 484.9140625 1390.27050781 l 5,20,-1
 495.6171875 1407.52734375 l 5,21,-1
 512.708984375 1396.56347656 l 6,22,23
 1156 984 1156 984 1156.70605469 497.28515625 c 0,24,25
 1157 357 1157 357 1105.48925781 253.5859375 c 128,-1,26
 1054 150 1054 150 951.696289062 86.974609375 c 0,27,28
 823 7 823 7 640.133789062 8.388671875 c 0,29,30
 458 9 458 9 325.381835938 82.8583984375 c 0,31,32
 96 209 96 209 98.6298828125 496.139648438 c 0,33,34
 102 803 102 803 422.716796875 1166.1640625 c 5,35,-1
 385.045898438 1195.02539062 l 5,36,-1
 370.663085938 1206.04394531 l 5,37,-1
 380.211914062 1221.44238281 l 5,19,-1
EndSplineSet
EndChar

StartChar: afii57398
Encoding: 1638 1638 65
GlifName: afii57398
Width: 1305
VWidth: 2972
GlyphClass: 2
Flags: W
LayerCount: 2
Fore
SplineSet
821.90234375 1121.44726562 m 5,0,1
 664 1081 664 1081 494.084960938 1080.07324219 c 4,2,3
 261.704324615 1079.99990669 261.704324615 1079.99990669 73.189453125 1165.09277344 c 6,4,-1
 61.41796875 1170.40625 l 5,5,-1
 61.41796875 1183.32128906 l 5,6,-1
 61.41796875 1393.89746094 l 5,7,-1
 61.41796875 1425.25683594 l 5,8,-1
 89.8525390625 1412.03222656 l 6,9,10
 283 1322 283 1322 509.771484375 1321.84277344 c 4,11,12
 573 1322 573 1322 634.641601562 1327.5859375 c 4,13,14
 697 1334 697 1334 757.8828125 1344.99023438 c 4,15,16
 819 1356 819 1356 879.020507812 1373.92285156 c 4,17,18
 909 1382 909 1382 939.087890625 1392.54394531 c 4,19,20
 975.048192042 1405.11420151 975.048192042 1405.11420151 998.120117188 1414.31347656 c 6,21,-1
 1025.16210938 1425.09570312 l 5,22,-1
 1025.52539062 1395.98535156 l 6,23,24
 1031 939 1031 939 1070.51611328 608.520996094 c 0,25,26
 1110.22709624 277.104721018 1110.22709624 277.104721018 1182.23046875 37.3056640625 c 2,27,-1
 1189.96289062 11.5537109375 l 1,28,-1
 1163.07519531 11.5537109375 l 1,29,-1
 974.34765625 11.5537109375 l 1,30,-1
 958.654296875 11.5537109375 l 1,31,-1
 954.921875 26.796875 l 2,32,33
 835 518 835 518 821.90234375 1121.44726562 c 5,0,1
EndSplineSet
EndChar

StartChar: afii57399
Encoding: 1639 1639 66
GlifName: afii57399
Width: 1301
VWidth: 2972
GlyphClass: 2
Flags: W
LayerCount: 2
Fore
SplineSet
1229.51757812 1318.91015625 m 5,0,1
 883 638 883 638 750.493164062 11.5537109375 c 1,2,-1
 550.520507812 11.5537109375 l 1,3,4
 415 630 415 630 71.517578125 1318.97949219 c 5,5,-1
 276.11328125 1422.90136719 l 5,6,-1
 284.854492188 1404.15332031 l 6,7,8
 534 870 534 870 650.41796875 394.982421875 c 5,9,10
 766.823412895 871.277460236 766.823412895 871.277460236 1016.046875 1404.17578125 c 6,11,-1
 1024.79980469 1422.89160156 l 5,12,-1
 1229.51757812 1318.91015625 l 5,0,1
EndSplineSet
EndChar

StartChar: afii57400
Encoding: 1640 1640 67
GlifName: afii57400
Width: 1301
VWidth: 2972
GlyphClass: 2
Flags: W
LayerCount: 2
Fore
SplineSet
276.083007812 -15.2529296875 m 1,0,-1
 71.521484375 88.65234375 l 1,1,2
 415 778 415 778 550.522460938 1396.08105469 c 5,3,-1
 750.403320312 1396.08105469 l 5,4,5
 885 778 885 778 1229.39453125 88.6630859375 c 1,6,-1
 1024.77148438 -15.2724609375 l 1,7,-1
 1016.03417969 3.486328125 l 2,8,9
 767 538 767 538 650.513671875 1012.60839844 c 1,10,11
 533.710513806 534.815833806 533.710513806 534.815833806 284.841796875 3.4482421875 c 2,12,-1
 276.083007812 -15.2529296875 l 1,0,-1
EndSplineSet
EndChar

StartChar: afii57401
Encoding: 1641 1641 68
GlifName: afii57401
Width: 1179
VWidth: 2972
GlyphClass: 2
Flags: W
LayerCount: 2
Fore
SplineSet
509.524414062 575.165039062 m 4,0,1
 304 575 304 575 197.708007812 669.264648438 c 4,2,3
 91 763 91 763 91.9482421875 947.637695312 c 4,4,5
 92 1097 92 1097 165.513671875 1215.05664062 c 4,6,7
 229 1317 229 1317 316.5546875 1368.375 c 4,8,9
 404 1420 404 1420 515.057617188 1420.31542969 c 4,10,11
 729 1420 729 1420 842.705078125 1288.7578125 c 4,12,13
 957 1157 957 1157 967.927734375 902.3046875 c 4,14,15
 991.651844471 365.872241418 991.651844471 365.872241418 1001.7734375 32.16015625 c 2,16,-1
 1002.3984375 11.5537109375 l 1,17,-1
 981.782226562 11.5537109375 l 1,18,-1
 809.748046875 11.5537109375 l 1,19,-1
 790.151367188 11.5537109375 l 1,20,-1
 789.751953125 31.146484375 l 1,21,-1
 776.698242188 631.665039062 l 5,22,23
 649 575 649 575 509.524414062 575.165039062 c 4,0,1
757.262695312 861.3984375 m 5,24,-1
 756.477539062 870.75390625 l 6,25,26
 742 1038 742 1038 681.782226562 1115.07421875 c 4,27,28
 621 1192 621 1192 513.854492188 1188.5546875 c 4,29,30
 420 1185 420 1185 357.48828125 1101.59667969 c 4,31,32
 307 1033 307 1033 307.008789062 955.330078125 c 4,33,34
 307 879 307 879 356.904296875 841.82421875 c 4,35,36
 406 805 406 805 513.95703125 804.892578125 c 4,37,38
 638 805 638 805 757.262695312 861.3984375 c 5,24,-1
EndSplineSet
EndChar

StartChar: afii57381
Encoding: 1642 1642 69
GlifName: afii57381
Width: 1288
VWidth: 4058
GlyphClass: 2
Flags: W
LayerCount: 2
Fore
SplineSet
729.512695312 365.344726562 m 0,0,1
 729.512695312 443.622070312 729.512695312 443.622070312 785.442382812 498.514648438 c 0,2,3
 840.25 553.322265625 840.25 553.322265625 918.368164062 553.83984375 c 0,4,5
 928.036132812 553.903320312 928.036132812 553.903320312 937.405273438 553.088867188 c 128,-1,6
 946.774414062 552.2734375 946.774414062 552.2734375 955.852539062 550.577148438 c 128,-1,7
 964.930664062 548.879882812 964.930664062 548.879882812 973.706054688 546.27734375 c 128,-1,8
 982.481445312 543.673828125 982.481445312 543.673828125 990.866210938 540.18359375 c 0,9,10
 1002.01074219 535.54296875 1002.01074219 535.54296875 1012.58105469 529.265625 c 128,-1,11
 1023.15234375 522.98828125 1023.15234375 522.98828125 1032.90429688 515.267578125 c 128,-1,12
 1042.65625 507.546875 1042.65625 507.546875 1051.65039062 498.3828125 c 0,13,14
 1078.98339844 471.048828125 1078.98339844 471.048828125 1092.74902344 437.671875 c 128,-1,15
 1106.50390625 404.323242188 1106.50390625 404.323242188 1106.50390625 365.344726562 c 0,16,17
 1106.50390625 326.693359375 1106.50390625 326.693359375 1092.62988281 293.051757812 c 128,-1,18
 1078.75585938 259.411132812 1078.75585938 259.411132812 1051.58496094 232.23828125 c 0,19,20
 996.6640625 177.318359375 996.6640625 177.318359375 918.48046875 177.318359375 c 0,21,22
 892.771484375 177.318359375 892.771484375 177.318359375 869.157226562 183.504882812 c 128,-1,23
 845.54296875 189.69140625 845.54296875 189.69140625 824.501953125 201.921875 c 128,-1,24
 803.461914062 214.153320312 803.461914062 214.153320312 785.422851562 232.192382812 c 0,25,26
 757.836914062 259.266601562 757.836914062 259.266601562 743.674804688 292.971679688 c 128,-1,27
 729.512695312 326.67578125 729.512695312 326.67578125 729.512695312 365.344726562 c 0,0,1
180.96875 1179.37011719 m 4,28,29
 181 1257 181 1257 236.895507812 1312.53710938 c 4,30,31
 255 1330 255 1330 275.936523438 1342.68847656 c 4,32,33
 297 1355 297 1355 320.469726562 1361.22558594 c 4,34,35
 344 1368 344 1368 369.815429688 1367.86523438 c 4,36,37
 448 1368 448 1368 503.109375 1312.40527344 c 4,38,39
 558 1257 558 1257 557.959960938 1179.38183594 c 4,40,41
 558 1101 558 1101 502.922851562 1046.14941406 c 4,42,43
 475 1019 475 1019 442.584960938 1005.09960938 c 4,44,45
 409 991 409 991 369.880859375 991.344726562 c 4,46,47
 331 991 331 991 297.646484375 1005.09082031 c 4,48,49
 264 1019 264 1019 236.893554688 1046.20507812 c 4,50,51
 181 1101 181 1101 180.96875 1179.37011719 c 4,28,29
904.888671875 1450.74511719 m 5,52,-1
 1058.16015625 1371.77929688 l 5,53,-1
 1075.97558594 1362.60058594 l 5,54,-1
 1066.75976562 1344.80371094 l 5,55,-1
 372.7109375 44.4775390625 l 1,56,-1
 363.28515625 26.2734375 l 1,57,-1
 345.319335938 36.146484375 l 1,58,-1
 192.479492188 120.13671875 l 1,59,-1
 175.356445312 129.545898438 l 1,60,-1
 184.36328125 146.883789062 l 1,61,-1
 877.98046875 1442.18554688 l 5,62,-1
 887.168945312 1459.87402344 l 5,63,-1
 904.888671875 1450.74511719 l 5,52,-1
EndSplineSet
EndChar

StartChar: uni066B
Encoding: 1643 1643 70
GlifName: uni066B_
Width: 822
VWidth: 2972
GlyphClass: 2
Flags: W
LayerCount: 2
Fore
SplineSet
540.571289062 856.416015625 m 1,0,-1
 671.874023438 800.676757812 l 1,1,-1
 690.421875 792.802734375 l 1,2,-1
 682.409179688 774.314453125 l 1,3,-1
 218.139648438 -297.013671875 l 1,4,-1
 210.174804688 -315.393554688 l 1,5,-1
 191.807617188 -307.400390625 l 1,6,-1
 58.3828125 -249.331054688 l 1,7,-1
 40.0283203125 -241.341796875 l 1,8,-1
 48.033203125 -222.994140625 l 1,9,-1
 514.424804688 846.00390625 l 1,10,-1
 522.342773438 864.153320312 l 1,11,-1
 540.571289062 856.416015625 l 1,0,-1
EndSplineSet
EndChar

StartChar: uni066C
Encoding: 1644 1644 71
GlifName: uni066C_
Width: 588
VWidth: 2862
GlyphClass: 2
Flags: W
LayerCount: 2
Fore
SplineSet
107.028320312 170.78515625 m 0,0,1
 107.567382812 224.553710938 107.567382812 224.553710938 128.250976562 261.262695312 c 0,2,3
 149.6484375 299.240234375 149.6484375 299.240234375 191.822265625 318.107421875 c 0,4,5
 231.844726562 336.01171875 231.844726562 336.01171875 290.49609375 336.182617188 c 0,6,7
 329.658203125 336.35546875 329.658203125 336.35546875 361.874023438 327.219726562 c 128,-1,8
 394.088867188 318.083984375 394.088867188 318.083984375 418.54296875 300.03125 c 128,-1,9
 442.99609375 281.979492188 442.99609375 281.979492188 459.399414062 254.723632812 c 128,-1,10
 475.802734375 227.466796875 475.802734375 227.466796875 483.25390625 191.868164062 c 0,11,12
 498.75 116.337890625 498.75 116.337890625 471.151367188 5.8212890625 c 0,13,14
 411.063476562 -223.826171875 411.063476562 -223.826171875 201.357421875 -396.494140625 c 2,15,-1
 190.127929688 -405.740234375 l 1,16,-1
 177.873046875 -397.90625 l 1,17,-1
 126.724609375 -365.2109375 l 1,18,-1
 105.892578125 -351.89453125 l 1,19,-1
 123.266601562 -334.3046875 l 2,20,21
 285.334960938 -170.225585938 285.334960938 -170.225585938 302.578125 -0.22265625 c 1,22,23
 262.115234375 -0.5537109375 262.115234375 -0.5537109375 242.569335938 3.8564453125 c 0,24,25
 175.719726562 17.634765625 175.719726562 17.634765625 141.165039062 60.3779296875 c 128,-1,26
 106.610351562 103.120117188 106.610351562 103.120117188 107.028320312 170.78515625 c 0,0,1
EndSplineSet
EndChar

StartChar: afii63167
Encoding: 1645 1645 72
GlifName: afii63167
Width: 1584
VWidth: 2972
GlyphClass: 2
Flags: W
LayerCount: 2
Fore
SplineSet
232.590820312 1078.65136719 m 1,0,-1
 650.431640625 1078.65136719 l 1,1,-1
 780.994140625 1476.16992188 l 1,2,-1
 799.995117188 1534.02246094 l 1,3,-1
 818.99609375 1476.16992188 l 1,4,-1
 949.560546875 1078.65136719 l 1,5,-1
 1367.40136719 1078.65136719 l 1,6,-1
 1428.64941406 1078.65136719 l 1,7,-1
 1379.20410156 1042.50585938 l 1,8,-1
 1041.61035156 795.711914062 l 1,9,-1
 1170.71875 399.084960938 l 1,10,-1
 1189.70507812 340.7578125 l 1,11,-1
 1139.98730469 376.68359375 l 1,12,-1
 799.995117188 622.362304688 l 1,13,-1
 460.005859375 376.68359375 l 1,14,-1
 410.288085938 340.7578125 l 1,15,-1
 429.274414062 399.084960938 l 1,16,-1
 558.380859375 795.711914062 l 1,17,-1
 220.788085938 1042.50585938 l 1,18,-1
 171.34375 1078.65136719 l 1,19,-1
 232.590820312 1078.65136719 l 1,0,-1
EndSplineSet
EndChar

StartChar: uni066E
Encoding: 1646 1646 73
GlifName: uni066E_
Width: 1837
VWidth: 2972
GlyphClass: 2
Flags: W
AnchorPoint: "Anchor-10" 1007.36 1435.35 basechar 0
AnchorPoint: "Anchor-7" 957.36 -237.261 basechar 0
LayerCount: 2
Fore
SplineSet
890.911132812 0 m 2,0,1
 490.80078125 0 490.80078125 0 285.438476562 126.150390625 c 128,-1,2
 80.076171875 252.301757812 80.076171875 252.301757812 80.16015625 505.848632812 c 0,3,4
 79.9951171875 645.271484375 79.9951171875 645.271484375 136.416015625 770.975585938 c 2,5,-1
 144.5078125 789.00390625 l 1,6,-1
 162.631835938 781.129882812 l 1,7,-1
 320.403320312 712.584960938 l 1,8,-1
 338.241210938 704.834960938 l 1,9,-1
 330.9921875 686.787109375 l 2,10,11
 299.021484375 607.1875 299.021484375 607.1875 299.424804688 534.564453125 c 0,12,13
 299.2265625 380.6328125 299.2265625 380.6328125 439.536132812 302.350585938 c 128,-1,14
 579.845703125 224.069335938 579.845703125 224.069335938 871.873046875 224.13671875 c 0,15,16
 1366.43554688 224.001953125 1366.43554688 224.001953125 1491.69921875 316.197265625 c 0,17,18
 1548.03222656 357.203125 1548.03222656 357.203125 1548.37988281 465.400390625 c 0,19,20
 1548.00976562 552.663085938 1548.00976562 552.663085938 1512.328125 706.1015625 c 2,21,-1
 1507.87890625 725.234375 l 1,22,-1
 1526.92871094 730.02734375 l 1,23,-1
 1690.01367188 771.0625 l 1,24,-1
 1708.01367188 775.591796875 l 1,25,-1
 1713.87207031 757.978515625 l 2,26,27
 1765.00292969 604.231445312 1765.00292969 604.231445312 1764.90625 479.716796875 c 0,28,29
 1765.00390625 232.584960938 1765.00390625 232.584960938 1618.26464844 129.944335938 c 0,30,31
 1432.29492188 0 1432.29492188 0 894.356445312 0 c 2,32,-1
 890.911132812 0 l 2,0,1
EndSplineSet
Substitution2: "'init' Initial Forms in Arabic lookup 13 subtable" uni066E.init
Substitution2: "'medi' Medial Forms in Arabic lookup 11 subtable" uni066E.medi
Substitution2: "'fina' Terminal Forms in Arabic lookup 9 subtable" uni066E.fina
EndChar

StartChar: uni066F
Encoding: 1647 1647 74
GlifName: uni066F_
Width: 1511
VWidth: 2972
GlyphClass: 2
Flags: W
AnchorPoint: "Anchor-10" 121.809 1382.22 basechar 0
AnchorPoint: "Anchor-7" 335.219 -741.353 basechar 0
LayerCount: 2
Fore
SplineSet
1416.27929688 37.2451171875 m 4,0,1
 1403.29589844 -46.021484375 1403.29589844 -46.021484375 1375.375 -115.71484375 c 132,-1,2
 1347.45410156 -185.409179688 1347.45410156 -185.409179688 1304.95410156 -241.0078125 c 132,-1,3
 1262.453125 -296.606445312 1262.453125 -296.606445312 1205.47167969 -338.489257812 c 132,-1,4
 1148.49023438 -380.372070312 1148.49023438 -380.372070312 1077.33300781 -408.228515625 c 132,-1,5
 1006.17480469 -436.083984375 1006.17480469 -436.083984375 920.997070312 -450.067382812 c 132,-1,6
 835.818359375 -464.049804688 835.818359375 -464.049804688 736.87109375 -464.060546875 c 4,7,8
 523.758789062 -463.999023438 523.758789062 -463.999023438 380.459960938 -400.407226562 c 4,9,10
 230.76171875 -333.544921875 230.76171875 -333.544921875 156.0234375 -199.224609375 c 4,11,12
 82.0283203125 -66.2392578125 82.0283203125 -66.2392578125 80.9580078125 132.690429688 c 4,13,14
 79.9814453125 367.401367188 79.9814453125 367.401367188 182.883789062 587.6640625 c 6,15,-1
 190.897460938 604.817382812 l 5,16,-1
 208.46484375 597.754882812 l 5,17,-1
 371.19140625 532.33203125 l 5,18,-1
 389.717773438 524.8828125 l 5,19,-1
 382.298828125 506.344726562 l 6,20,21
 340.180664062 401.099609375 340.180664062 401.099609375 320.231445312 310.255859375 c 4,22,23
 300.012695312 219.846679688 300.012695312 219.846679688 300.459960938 140.875976562 c 4,24,25
 301.274414062 11.080078125 301.274414062 11.080078125 348.784179688 -73.94921875 c 132,-1,26
 396.29296875 -158.977539062 396.29296875 -158.977539062 492.6640625 -201.26171875 c 132,-1,27
 589.03515625 -243.544921875 589.03515625 -243.544921875 736.256835938 -243.326171875 c 4,28,29
 960.064453125 -242.69921875 960.064453125 -242.69921875 1079.12695312 -157.021484375 c 132,-1,30
 1198.18945312 -71.34375 1198.18945312 -71.34375 1219.87402344 100.575195312 c 5,31,32
 1177.57324219 90.01953125 1177.57324219 90.01953125 1134.2734375 84.8193359375 c 132,-1,33
 1090.97460938 79.6181640625 1090.97460938 79.6181640625 1043.88476562 79.3193359375 c 4,34,35
 875.50390625 78.1171875 875.50390625 78.1171875 786.413085938 151.740234375 c 132,-1,36
 697.321289062 225.36328125 697.321289062 225.36328125 695.42578125 370.452148438 c 4,37,38
 695.3515625 378.020507812 695.3515625 378.020507812 695.524414062 385.47265625 c 132,-1,39
 695.696289062 392.92578125 695.696289062 392.92578125 696.115234375 400.280273438 c 132,-1,40
 696.53515625 407.635742188 696.53515625 407.635742188 697.203125 414.884765625 c 132,-1,41
 697.87109375 422.133789062 697.87109375 422.133789062 698.788085938 429.284179688 c 132,-1,42
 699.705078125 436.434570312 699.705078125 436.434570312 700.872070312 443.48828125 c 132,-1,43
 702.040039062 450.54296875 702.040039062 450.54296875 703.458007812 457.498046875 c 4,44,45
 737.577148438 624.751953125 737.577148438 624.751953125 822.083007812 711.4765625 c 4,46,47
 910.485351562 802.970703125 910.485351562 802.970703125 1043.77734375 803.43359375 c 4,48,49
 1133.91894531 804.040039062 1133.91894531 804.040039062 1201.80664062 759.453125 c 4,50,51
 1380.77929688 644.717773438 1380.77929688 644.717773438 1418.62890625 317.045898438 c 4,52,53
 1436.17871094 166.631835938 1436.17871094 166.631835938 1416.27929688 37.2451171875 c 4,0,1
899.454101562 397.69140625 m 4,54,55
 899.6875 344.34765625 899.6875 344.34765625 936.559570312 318.412109375 c 132,-1,56
 973.430664062 292.477539062 973.430664062 292.477539062 1056.50195312 293.232421875 c 4,57,58
 1129.99023438 293.900390625 1129.99023438 293.900390625 1205.06347656 314.034179688 c 5,59,60
 1197.75097656 366.232421875 1197.75097656 366.232421875 1186.08105469 408.868164062 c 132,-1,61
 1174.41113281 451.50390625 1174.41113281 451.50390625 1157.88671875 486.999023438 c 4,62,63
 1114.09570312 583.979492188 1114.09570312 583.979492188 1037.39453125 583.857421875 c 4,64,65
 947.763671875 583.979492188 947.763671875 583.979492188 910.623046875 463.30078125 c 4,66,67
 899.952148438 428.8203125 899.952148438 428.8203125 899.454101562 397.69140625 c 4,54,55
EndSplineSet
Substitution2: "'init' Initial Forms in Arabic lookup 13 subtable" uni066F.init
Substitution2: "'medi' Medial Forms in Arabic lookup 11 subtable" uni066F.medi
Substitution2: "'fina' Terminal Forms in Arabic lookup 9 subtable" uni066F.fina
EndChar

StartChar: uni0670
Encoding: 1648 1648 75
GlifName: uni0670
Width: -29
VWidth: 2574
GlyphClass: 4
Flags: W
AnchorPoint: "Anchor-10" 636.984 1500.61 mark 0
AnchorPoint: "Anchor-9" 636.984 1500.61 mark 0
AnchorPoint: "Anchor-1" 636.984 2087.18 basemark 0
AnchorPoint: "Anchor-1" 636.984 1500.61 mark 0
LayerCount: 2
Fore
SplineSet
583.435546875 1568.26757812 m 1,0,-1
 583.435546875 2019.51660156 l 1,1,-1
 583.435546875 2029.51660156 l 1,2,-1
 593.435546875 2029.51660156 l 1,3,-1
 680.533203125 2029.51660156 l 1,4,-1
 690.533203125 2029.51660156 l 1,5,-1
 690.533203125 2019.51660156 l 1,6,-1
 690.533203125 1568.26757812 l 1,7,-1
 690.533203125 1558.26757812 l 1,8,-1
 680.533203125 1558.26757812 l 1,9,-1
 593.435546875 1558.26757812 l 1,10,-1
 583.435546875 1558.26757812 l 1,11,-1
 583.435546875 1568.26757812 l 1,0,-1
EndSplineSet
EndChar

StartChar: uni0674
Encoding: 1652 1652 76
GlifName: uni0674
Width: 711
VWidth: 2537
GlyphClass: 2
Flags: W
LayerCount: 2
Fore
SplineSet
232.640585996 1995.68983626 m 1,0,1
 191.452466793 2032.25893679 191.452466793 2032.25893679 171.169631918 2075.69544636 c 128,-1,2
 150.886797043 2119.13195593 150.886797043 2119.13195593 150.783178423 2170.52072383 c 0,3,4
 150.895962881 2216.5515159 150.895962881 2216.5515159 166.356480786 2256.04312115 c 128,-1,5
 181.816998691 2295.5347264 181.816998691 2295.5347264 212.443085849 2327.88512727 c 0,6,7
 236.465153392 2353.18805261 236.465153392 2353.18805261 265.140733452 2370.13292284 c 128,-1,8
 293.816313512 2387.07779307 293.816313512 2387.07779307 326.816856815 2395.54401849 c 128,-1,9
 359.817400119 2404.0102439 359.817400119 2404.0102439 397.015316849 2404.01562486 c 0,10,11
 494.612108059 2403.99957045 494.612108059 2403.99957045 572.752559562 2360.20273457 c 2,12,-1
 577.832053413 2357.35573594 l 1,13,-1
 577.863138755 2351.53287644 l 1,14,-1
 578.565287193 2220.00748581 l 1,15,-1
 578.647837642 2204.54425975 l 1,16,-1
 564.511822609 2210.81253333 l 2,17,18
 473.863086801 2251.00852028 473.863086801 2251.00852028 411.000638899 2251.26154791 c 0,19,20
 352.165364243 2251.01721203 352.165364243 2251.01721203 321.132392926 2219.92006407 c 0,21,22
 308.500273918 2206.86851924 308.500273918 2206.86851924 302.384584205 2191.53851383 c 128,-1,23
 296.268894492 2176.20850842 296.268894492 2176.20850842 296.490950871 2158.16202177 c 0,24,25
 297.164568896 2124.65563297 297.164568896 2124.65563297 323.461616834 2098.40291296 c 128,-1,26
 349.758664773 2072.15019296 349.758664773 2072.15019296 404.16639415 2053.26658038 c 0,27,28
 413.183908356 2050.16725678 413.183908356 2050.16725678 423.926351619 2051.23651804 c 0,29,30
 472.542079548 2056.89779998 472.542079548 2056.89779998 592.99058863 2078.38847537 c 2,31,-1
 604.747070312 2080.48609147 l 1,32,-1
 604.747070312 2068.54394531 l 1,33,-1
 604.747070312 1933.015625 l 1,34,-1
 604.747070312 1925.01177151 l 1,35,-1
 596.937608128 1923.25849714 l 1,36,-1
 160.476670628 1825.27021589 l 1,37,-1
 148.286132812 1822.53336192 l 1,38,-1
 148.286132812 1835.02734375 l 1,39,-1
 148.286132812 1968.27050781 l 1,40,-1
 148.286132812 1976.22585765 l 1,41,-1
 156.03780465 1978.01448136 l 1,42,-1
 232.640585996 1995.68983626 l 1,0,1
EndSplineSet
EndChar

StartChar: uni06A1
Encoding: 1697 1697 80
GlifName: uni06A_1
Width: 1851
VWidth: 2972
GlyphClass: 2
Flags: W
AnchorPoint: "Anchor-10" 670.853 1650.62 basechar 0
AnchorPoint: "Anchor-7" 653.182 -332.248 basechar 0
LayerCount: 2
Fore
SplineSet
1767.56054688 493.369140625 m 0,0,1
 1766.75976562 347.96484375 1766.75976562 347.96484375 1731.41699219 247.751953125 c 128,-1,2
 1696.07421875 147.5390625 1696.07421875 147.5390625 1624.140625 93.5693359375 c 0,3,4
 1498.63476562 0 1498.63476562 0 1190.20996094 0 c 2,5,-1
 859.911132812 0 l 6,6,7
 474.68359375 0 474.68359375 0 276.879882812 126.299804688 c 128,-1,8
 79.0771484375 252.600585938 79.0771484375 252.600585938 79.16015625 505.848632812 c 0,9,10
 78.9951171875 645.271484375 78.9951171875 645.271484375 135.416015625 770.975585938 c 2,11,-1
 143.5078125 789.00390625 l 1,12,-1
 161.631835938 781.129882812 l 1,13,-1
 319.403320312 712.584960938 l 1,14,-1
 337.096679688 704.897460938 l 1,15,-1
 330.052734375 686.938476562 l 2,16,17
 298.021484375 605.271484375 298.021484375 605.271484375 298.43359375 531.317382812 c 0,18,19
 298.231445312 378.963867188 298.231445312 378.963867188 432.396484375 301.623046875 c 128,-1,20
 566.5625 224.282226562 566.5625 224.282226562 846.158203125 224.159179688 c 2,21,-1
 1211.35058594 223.999023438 l 2,22,23
 1560.546875 224 1560.546875 224 1570.63867188 392.799804688 c 1,24,25
 1486.28417969 370.974609375 1486.28417969 370.974609375 1391.16210938 370.76953125 c 0,26,27
 1223.61523438 370.888671875 1223.61523438 370.888671875 1134.59472656 444.452148438 c 128,-1,28
 1045.57421875 518.014648438 1045.57421875 518.014648438 1042.83398438 661.745117188 c 0,29,30
 1042.6171875 672.92578125 1042.6171875 672.92578125 1043.01855469 684.06640625 c 128,-1,31
 1043.41992188 695.20703125 1043.41992188 695.20703125 1044.42675781 706.135742188 c 128,-1,32
 1045.43261719 717.065429688 1045.43261719 717.065429688 1047.04199219 727.782226562 c 128,-1,33
 1048.65039062 738.5 1048.65039062 738.5 1050.84472656 748.860351562 c 0,34,35
 1081.453125 912.625976562 1081.453125 912.625976562 1169.4921875 1002.93164062 c 0,36,37
 1258.52539062 1095.0078125 1258.52539062 1095.0078125 1391.28027344 1094.88476562 c 0,38,39
 1480.88085938 1095.0078125 1480.88085938 1095.0078125 1549.18945312 1050.91894531 c 0,40,41
 1725.8671875 936.614257812 1725.8671875 936.614257812 1760.05761719 618.290039062 c 0,42,43
 1766.99023438 552.141601562 1766.99023438 552.141601562 1767.56054688 493.369140625 c 0,0,1
1246.85839844 689.228515625 m 0,44,45
 1246.91796875 636.231445312 1246.91796875 636.231445312 1283.78222656 610.296875 c 128,-1,46
 1320.64550781 584.362304688 1320.64550781 584.362304688 1404.01367188 584.684570312 c 0,47,48
 1477.05175781 584.958984375 1477.05175781 584.958984375 1552.41308594 605.41015625 c 1,49,50
 1537.74804688 707.557617188 1537.74804688 707.557617188 1505.28320312 778.470703125 c 0,51,52
 1498.63476562 793.012695312 1498.63476562 793.012695312 1491.3984375 805.276367188 c 128,-1,53
 1484.16308594 817.540039062 1484.16308594 817.540039062 1476.45800781 827.439453125 c 128,-1,54
 1468.75292969 837.33984375 1468.75292969 837.33984375 1460.3984375 845.1328125 c 128,-1,55
 1452.04492188 852.92578125 1452.04492188 852.92578125 1443.24316406 858.580078125 c 128,-1,56
 1434.44042969 864.234375 1434.44042969 864.234375 1424.92285156 867.951171875 c 128,-1,57
 1415.40527344 871.66796875 1415.40527344 871.66796875 1405.45996094 873.469726562 c 128,-1,58
 1395.51464844 875.271484375 1395.51464844 875.271484375 1384.79296875 875.30859375 c 0,59,60
 1296.10449219 875.046875 1296.10449219 875.046875 1257.98925781 754.629882812 c 0,61,62
 1246.98730469 719.869140625 1246.98730469 719.869140625 1246.85839844 689.228515625 c 0,44,45
EndSplineSet
Substitution2: "'init' Initial Forms in Arabic lookup 13 subtable" uni06A1.init
Substitution2: "'medi' Medial Forms in Arabic lookup 11 subtable" uni06A1.medi
Substitution2: "'fina' Terminal Forms in Arabic lookup 9 subtable" uni06A1.fina
EndChar

StartChar: uni06A9
Encoding: 1705 1705 81
GlifName: uni06A_9
Width: 1898
VWidth: 2972
GlyphClass: 2
Flags: W
AnchorPoint: "Anchor-7" 750.268 -216.468 basechar 0
AnchorPoint: "Anchor-10" 693.878 1394.89 basechar 0
LayerCount: 2
Fore
SplineSet
1543.93847656 693.24609375 m 0,0,1
 1679.10644531 546.700195312 1679.10644531 546.700195312 1676.70703125 370.030273438 c 0,2,3
 1674.32226562 245.499023438 1674.32226562 245.499023438 1600.37792969 162.69921875 c 128,-1,4
 1526.43359375 79.8994140625 1526.43359375 79.8994140625 1387.29394531 39.94921875 c 128,-1,5
 1248.15429688 -0 1248.15429688 -0 1044.10449219 0 c 2,6,-1
 862.553710938 0 l 2,7,8
 476.017578125 0 476.017578125 0 277.546875 126.288085938 c 128,-1,9
 79.0771484375 252.577148438 79.0771484375 252.577148438 79.16015625 505.848632812 c 0,10,11
 78.9951171875 645.271484375 78.9951171875 645.271484375 135.416015625 770.975585938 c 2,12,-1
 143.5078125 789.00390625 l 1,13,-1
 161.631835938 781.129882812 l 1,14,-1
 319.403320312 712.584960938 l 1,15,-1
 337.096679688 704.897460938 l 1,16,-1
 330.052734375 686.938476562 l 2,17,18
 313.96484375 645.921875 313.96484375 645.921875 306.096679688 607.063476562 c 128,-1,19
 298.227539062 568.204101562 298.227539062 568.204101562 298.43359375 531.370117188 c 0,20,21
 299.904296875 223.993164062 299.904296875 223.993164062 862.553710938 223.993164062 c 2,22,-1
 1043.27441406 223.993164062 l 2,23,24
 1457.91796875 224 1457.91796875 224 1457.21679688 395.0546875 c 0,25,26
 1457.01953125 484.333007812 1457.01953125 484.333007812 1360.00390625 575.53125 c 0,27,28
 1206.98632812 717.790039062 1206.98632812 717.790039062 1088.17285156 811.245117188 c 0,29,30
 1028.19238281 857.870117188 1028.19238281 857.870117188 997.1875 908.806640625 c 128,-1,31
 966.182617188 959.744140625 966.182617188 959.744140625 966.411132812 1014.46679688 c 0,32,33
 965.956054688 1154.56640625 965.956054688 1154.56640625 1119.22460938 1215.43359375 c 2,34,-1
 1832.48144531 1498.68847656 l 1,35,-1
 1859.86328125 1509.5625 l 1,36,-1
 1859.86328125 1480.10058594 l 1,37,-1
 1859.86328125 1299.46289062 l 1,38,-1
 1859.86328125 1285.80859375 l 1,39,-1
 1847.14648438 1280.8359375 l 1,40,-1
 1185.67285156 1022.18066406 l 1,41,42
 1431.72167969 814.150390625 1431.72167969 814.150390625 1543.93847656 693.24609375 c 0,0,1
EndSplineSet
Substitution2: "'init' Initial Forms in Arabic lookup 13 subtable" uniFB90
Substitution2: "'medi' Medial Forms in Arabic lookup 11 subtable" uniFB91
Substitution2: "'fina' Terminal Forms in Arabic lookup 9 subtable" uniFB8F
EndChar

StartChar: afii57514
Encoding: 1722 1722 83
GlifName: afii57514
Width: 1475
VWidth: 2972
GlyphClass: 2
Flags: W
AnchorPoint: "Anchor-10" 727.479 1217.75 basechar 0
AnchorPoint: "Anchor-7" 758.023 -703.042 basechar 0
LayerCount: 2
Fore
SplineSet
716.37109375 -239.6953125 m 4,0,1
 947.578125 -238.87109375 947.578125 -238.87109375 1059.54003906 -134.325195312 c 132,-1,2
 1171.50195312 -29.779296875 1171.50195312 -29.779296875 1171.03710938 183.40625 c 4,3,4
 1171.00097656 370.39453125 1171.00097656 370.39453125 1083.04199219 551.354492188 c 6,5,-1
 1073.21777344 571.56640625 l 5,6,-1
 1094.43261719 578.978515625 l 5,7,-1
 1267.55761719 639.465820312 l 5,8,-1
 1285.59179688 645.766601562 l 5,9,-1
 1292.71289062 628.040039062 l 6,10,11
 1392.00683594 380.850585938 1392.00683594 380.850585938 1391.67871094 182.11328125 c 4,12,13
 1391.33203125 86.935546875 1391.33203125 86.935546875 1374.04199219 4.4375 c 132,-1,14
 1356.75195312 -78.0615234375 1356.75195312 -78.0615234375 1322.27539062 -147.919921875 c 4,15,16
 1167.33886719 -457.015625 1167.33886719 -457.015625 707.006835938 -456.431640625 c 4,17,18
 398.998046875 -456.2109375 398.998046875 -456.2109375 241.31640625 -311.791015625 c 132,-1,19
 83.6357421875 -167.370117188 83.6357421875 -167.370117188 83.25 116.5703125 c 4,20,21
 82.9951171875 333.951171875 82.9951171875 333.951171875 184.932617188 581.083984375 c 6,22,-1
 192.557617188 599.568359375 l 5,23,-1
 211.04296875 591.94921875 l 5,24,-1
 369.655273438 526.572265625 l 5,25,-1
 387.89453125 519.053710938 l 5,26,-1
 380.627929688 500.713867188 l 6,27,28
 298.015625 292.221679688 298.015625 292.221679688 298.752929688 115.159179688 c 4,29,30
 299.828125 -64.798828125 299.828125 -64.798828125 402.31640625 -152.563476562 c 132,-1,31
 504.803710938 -240.329101562 504.803710938 -240.329101562 716.37109375 -239.6953125 c 4,0,1
EndSplineSet
Substitution2: "'init' Initial Forms in Arabic lookup 13 subtable" uni06BA.init
Substitution2: "'medi' Medial Forms in Arabic lookup 11 subtable" uni06BA.medi
Substitution2: "'fina' Terminal Forms in Arabic lookup 9 subtable" uniFB9F
EndChar

StartChar: uni06F4
Encoding: 1780 1780 90
GlifName: uni06F_4
Width: 1244
VWidth: 2972
GlyphClass: 2
Flags: W
LayerCount: 2
Fore
SplineSet
1102.74023438 1355.58300781 m 1,0,-1
 1059.74511719 1183.19433594 l 1,1,-1
 1054.1953125 1160.94335938 l 1,2,-1
 1032.90625 1169.46679688 l 2,3,4
 959 1199 959 1199 880.237304688 1198.92675781 c 0,5,6
 784 1199 784 1199 718.956054688 1151.65136719 c 0,7,8
 610 1070 610 1070 596.553710938 945.1015625 c 0,9,10
 595 932 595 932 611.436523438 913.712890625 c 0,11,12
 628 896 628 896 666.72265625 875.412109375 c 4,13,14
 699 859 699 859 745.916992188 849.66015625 c 4,15,16
 793 841 793 841 852.946289062 840.590820312 c 0,17,18
 921 841 921 841 984.719726562 852.915039062 c 0,19,20
 1048.5109874 865.097585905 1048.5109874 865.097585905 1107.60546875 889.061523438 c 2,21,-1
 1131.52832031 898.762695312 l 1,22,-1
 1134.94628906 873.17578125 l 1,23,-1
 1158.2734375 698.5390625 l 1,24,-1
 1160.26171875 683.65234375 l 1,25,-1
 1146.52050781 677.591796875 l 2,26,27
 1018 621 1018 621 873.149414062 621.181640625 c 0,28,29
 794 621 794 621 726.272460938 633.423828125 c 0,30,31
 659 645 659 645 603.326171875 669.493164062 c 0,32,33
 548 694 548 694 505.1796875 729.520507812 c 1,34,35
 534.115234375 505.106281515 534.115234375 505.106281515 534.115234375 288.771484375 c 2,36,-1
 534.115234375 31.5537109375 l 1,37,-1
 534.115234375 11.5537109375 l 1,38,-1
 514.115234375 11.5537109375 l 1,39,-1
 334.796875 11.5537109375 l 1,40,-1
 314.796875 11.5537109375 l 1,41,-1
 314.796875 31.5537109375 l 1,42,-1
 314.791992188 291.923828125 l 2,43,44
 314.999786915 948.326885893 314.999786915 948.326885893 126.9453125 1329.05078125 c 2,45,-1
 116.95703125 1349.27246094 l 1,46,-1
 138.227539062 1356.77050781 l 1,47,-1
 302.923828125 1414.82617188 l 1,48,-1
 321.887695312 1421.51074219 l 1,49,-1
 328.470703125 1402.51171875 l 2,50,51
 352 1335 352 1335 377.55859375 1259.54882812 c 128,-1,52
 403 1184 403 1184 430.629882812 1102.53320312 c 1,53,54
 446 1151 446 1151 468.376953125 1193.08398438 c 0,55,56
 490 1235 490 1235 519.1015625 1270.49414062 c 0,57,58
 548 1306 548 1306 583.217773438 1335.3828125 c 0,59,60
 697 1430 697 1430 855.119140625 1429.43164062 c 0,61,62
 980.315888544 1428.99890816 980.315888544 1428.99890816 1091.58105469 1378.64355469 c 2,63,-1
 1106.77636719 1371.76660156 l 1,64,-1
 1102.74023438 1355.58300781 l 1,0,-1
EndSplineSet
EndChar

StartChar: uni06F5
Encoding: 1781 1781 91
GlifName: uni06F_5
Width: 1328
VWidth: 2972
GlyphClass: 2
Flags: W
LayerCount: 2
Fore
SplineSet
303.965820312 359.411132812 m 0,0,1
 304 294 304 294 326.786132812 266.202148438 c 0,2,3
 350 238 350 238 398.053710938 237.844726562 c 0,4,5
 526.799573463 237.999758652 526.799573463 237.999758652 590.150390625 536.732421875 c 2,6,-1
 593.514648438 552.596679688 l 1,7,-1
 609.731445312 552.583007812 l 1,8,-1
 734.0390625 552.477539062 l 1,9,-1
 750.919921875 552.462890625 l 1,10,-1
 753.741210938 535.819335938 l 2,11,12
 805 234 805 234 939.271484375 234.079101562 c 0,13,14
 982 234 982 234 1003.09960938 263.055664062 c 128,-1,15
 1024 292 1024 292 1023.97851562 359.677734375 c 0,16,17
 1024 629 1024 629 631.040039062 1030.05761719 c 5,18,19
 304 593 304 593 303.965820312 359.411132812 c 0,0,1
383.447265625 11.9833984375 m 0,20,21
 238 12 238 12 163.53125 100.841796875 c 0,22,23
 89 190 89 190 89.2421875 359.331054688 c 0,24,25
 89 675 89 675 468.721679688 1189.30566406 c 5,26,-1
 425.515625 1229.74804688 l 5,27,-1
 411.85546875 1242.53515625 l 5,28,-1
 423.706054688 1257.015625 l 5,29,-1
 547.96484375 1408.85644531 l 5,30,-1
 561.59375 1425.51171875 l 5,31,-1
 577.20703125 1410.70019531 l 5,32,-1
 702.594726562 1291.75390625 l 5,33,34
 1242 762 1242 762 1239.44238281 369.24609375 c 0,35,36
 1239 279 1239 279 1221.44140625 216.150390625 c 0,37,38
 1203 150 1203 150 1168.04199219 104.196289062 c 0,39,40
 1133 59 1133 59 1078.8203125 35.3466796875 c 0,41,42
 1025 12 1025 12 954.303710938 11.943359375 c 0,43,44
 764 12 764 12 672.811523438 208.947265625 c 1,45,46
 585 12 585 12 383.447265625 11.9833984375 c 0,20,21
EndSplineSet
EndChar

StartChar: uni06F6
Encoding: 1782 1782 92
GlifName: uni06F_6
Width: 1124
VWidth: 2972
GlyphClass: 2
Flags: W
LayerCount: 2
Fore
SplineSet
750.57421875 1185.01660156 m 2,0,1
 738 1186 738 1186 715.147460938 1187.83398438 c 0,2,3
 697 1189 697 1189 677.443359375 1189.65332031 c 0,4,5
 658 1190 658 1190 637.623046875 1190.46582031 c 0,6,7
 576 1190 576 1190 526.4453125 1180.83007812 c 0,8,9
 477 1171 477 1171 442.081054688 1153.63769531 c 0,10,11
 407 1136 407 1136 383.9609375 1109.97460938 c 0,12,13
 358 1080 358 1080 344.688476562 1048.89453125 c 0,14,15
 332 1018 332 1018 331.594726562 983.73046875 c 0,16,17
 332 936 332 936 352.258789062 900.672851562 c 0,18,19
 373 865 373 865 415.444335938 839.895507812 c 0,20,21
 458 815 458 815 525.3828125 801.857421875 c 0,22,23
 593 789 593 789 684.461914062 788.37890625 c 1,24,25
 884.849022063 897.088078452 884.849022063 897.088078452 966.333984375 930.287109375 c 2,26,-1
 992.690429688 941.025390625 l 1,27,-1
 993.86328125 912.58984375 l 1,28,-1
 1001.54003906 726.4609375 l 1,29,-1
 1002.09570312 712.977539062 l 5,30,31
 563 510 563 510 329.630859375 -33.3115234375 c 5,32,-1
 142.659179688 29.30859375 l 1,33,-1
 122.53515625 36.048828125 l 1,34,-1
 130.456054688 55.73828125 l 2,35,36
 253 359 253 359 481.923828125 600.591796875 c 1,37,38
 297 627 297 627 201.684570312 724.922851562 c 0,39,40
 107 823 107 823 107.64453125 988.967773438 c 0,41,42
 108 1088 108 1088 148.4375 1171.21484375 c 0,43,44
 273 1421 273 1421 606.114257812 1416.40820312 c 0,45,46
 633 1416 633 1416 661.868164062 1414.61816406 c 0,47,48
 690 1413 690 1413 720.26171875 1409.81738281 c 0,49,50
 747.561633649 1407.04452496 747.561633649 1407.04452496 781.313476562 1402.01367188 c 2,51,-1
 801.034179688 1399.07421875 l 1,52,-1
 798.155273438 1379.34570312 l 1,53,-1
 772.2890625 1202.03710938 l 1,54,-1
 769.5390625 1183.18261719 l 1,55,-1
 750.57421875 1185.01660156 l 2,0,1
EndSplineSet
EndChar

StartChar: uniFB8F
Encoding: 64399 64399 107
GlifName: uniF_B_8F_
Width: 1954
VWidth: 2972
GlyphClass: 2
Flags: W
AnchorPoint: "Anchor-10" 743.878 1394.89 basechar 0
AnchorPoint: "Anchor-7" 750.268 -216.468 basechar 0
LayerCount: 2
Fore
SplineSet
860.911132812 0 m 2,0,1
 475.1875 0 475.1875 0 277.131835938 126.294921875 c 128,-1,2
 79.0771484375 252.58984375 79.0771484375 252.58984375 79.16015625 505.848632812 c 0,3,4
 78.9951171875 645.271484375 78.9951171875 645.271484375 135.416015625 770.975585938 c 2,5,-1
 143.5078125 789.00390625 l 1,6,-1
 161.631835938 781.129882812 l 1,7,-1
 319.403320312 712.584960938 l 1,8,-1
 337.096679688 704.897460938 l 1,9,-1
 330.052734375 686.938476562 l 2,10,11
 313.96484375 645.921875 313.96484375 645.921875 306.096679688 607.063476562 c 128,-1,12
 298.227539062 568.204101562 298.227539062 568.204101562 298.43359375 531.370117188 c 0,13,14
 299.163085938 379.001953125 299.163085938 379.001953125 437.041015625 301.498046875 c 128,-1,15
 574.918945312 223.993164062 574.918945312 223.993164062 860.911132812 223.993164062 c 2,16,-1
 1042.63183594 223.993164062 l 2,17,18
 1456.05957031 224 1456.05957031 224 1456.57421875 395.205078125 c 0,19,20
 1456.765625 439.137695312 1456.765625 439.137695312 1432.85742188 484.170898438 c 128,-1,21
 1408.95019531 529.204101562 1408.95019531 529.204101562 1359.38378906 575.510742188 c 0,22,23
 1306.57128906 624.616210938 1306.57128906 624.616210938 1258.70019531 667.227539062 c 128,-1,24
 1210.82910156 709.838867188 1210.82910156 709.838867188 1168.05566406 745.82421875 c 128,-1,25
 1125.28222656 781.810546875 1125.28222656 781.810546875 1087.53222656 811.243164062 c 0,26,27
 966.022460938 906.23046875 966.022460938 906.23046875 965.768554688 1014.453125 c 0,28,29
 965.895507812 1084.14257812 965.895507812 1084.14257812 1004.984375 1134.99316406 c 128,-1,30
 1044.07226562 1185.84375 1044.07226562 1185.84375 1118.58203125 1215.43359375 c 2,31,-1
 1831.83886719 1498.68847656 l 1,32,-1
 1859.22070312 1509.5625 l 1,33,-1
 1859.22070312 1480.10058594 l 1,34,-1
 1859.22070312 1299.46289062 l 1,35,-1
 1859.22070312 1285.80859375 l 1,36,-1
 1846.50390625 1280.8359375 l 1,37,-1
 1185.11914062 1022.21582031 l 1,38,39
 1427.88476562 817.958007812 1427.88476562 817.958007812 1543.27832031 693.263671875 c 0,40,41
 1626.47265625 603.572265625 1626.47265625 603.572265625 1676.77050781 461.572265625 c 0,42,43
 1761.125 223.993164062 1761.125 223.993164062 1945.76367188 223.993164062 c 2,44,-1
 1962.08984375 223.993164062 l 2,45,46
 1971.88867188 223.99609375 1971.88867188 223.99609375 1979.13476562 220.223632812 c 128,-1,47
 1986.38183594 216.450195312 1986.38183594 216.450195312 1990.58203125 207.84765625 c 128,-1,48
 1994.78222656 199.244140625 1994.78222656 199.244140625 1997.33691406 191.920898438 c 128,-1,49
 1999.89160156 184.59765625 1999.89160156 184.59765625 2000.84960938 170.634765625 c 128,-1,50
 2001.80761719 156.672851562 2001.80761719 156.672851562 2001.99121094 149.50390625 c 128,-1,51
 2002.17382812 142.333984375 2002.17382812 142.333984375 2002.17382812 127.174804688 c 2,52,-1
 2002.17382812 108.28515625 l 2,53,54
 2002.16992188 106.224609375 2002.16992188 106.224609375 2002.16894531 102.047851562 c 0,55,56
 2002.16210938 77.9248046875 2002.16210938 77.9248046875 2001.40234375 65.0771484375 c 128,-1,57
 2000.64355469 52.228515625 2000.64355469 52.228515625 1997.2734375 34.341796875 c 128,-1,58
 1993.90429688 16.455078125 1993.90429688 16.455078125 1985.11914062 8.2275390625 c 128,-1,59
 1976.33398438 0 1976.33398438 0 1962.09570312 0 c 2,60,-1
 1945.65722656 0 l 2,61,62
 1732.68261719 0 1732.68261719 0 1597.51367188 163.552734375 c 1,63,64
 1465.61132812 0 1465.61132812 0 1043.46191406 0 c 2,65,-1
 860.911132812 0 l 2,0,1
EndSplineSet
EndChar

StartChar: uniFB9F
Encoding: 64415 64415 115
GlifName: uniF_B_9F_
Width: 1549
VWidth: 2972
GlyphClass: 2
Flags: W
AnchorPoint: "Anchor-10" 703.458 1386.61 basechar 0
AnchorPoint: "Anchor-7" 595.902 -780.086 basechar 0
LayerCount: 2
Fore
SplineSet
1388.4140625 36.8818359375 m 1,0,1
 1379.56445312 -86.1279296875 1379.56445312 -86.1279296875 1321.84960938 -205.743164062 c 0,2,3
 1167.45410156 -520.0078125 1167.45410156 -520.0078125 707.338867188 -519.724609375 c 0,4,5
 398.096679688 -519.865234375 398.096679688 -519.865234375 239.98828125 -373.461914062 c 128,-1,6
 81.8798828125 -227.05859375 81.8798828125 -227.05859375 81.7529296875 61.0517578125 c 0,7,8
 82.0048828125 269.986328125 82.0048828125 269.986328125 184.547851562 517.772460938 c 2,9,-1
 192.185546875 536.2265625 l 1,10,-1
 210.649414062 528.616210938 l 1,11,-1
 369.169921875 463.278320312 l 1,12,-1
 387.381835938 455.771484375 l 1,13,-1
 380.153320312 437.447265625 l 2,14,15
 298.005859375 229.212890625 298.005859375 229.212890625 298.268554688 62.869140625 c 0,16,17
 298.182617188 -60.578125 298.182617188 -60.578125 343.163085938 -141.470703125 c 128,-1,18
 388.14453125 -222.36328125 388.14453125 -222.36328125 480.44921875 -262.75 c 128,-1,19
 572.75390625 -303.137695312 572.75390625 -303.137695312 714.391601562 -303.203125 c 0,20,21
 945.055664062 -303.104492188 945.055664062 -303.104492188 1057.4296875 -198.045898438 c 128,-1,22
 1169.80371094 -92.9873046875 1169.80371094 -92.9873046875 1170.5546875 121.982421875 c 0,23,24
 1170.98925781 301.408203125 1170.98925781 301.408203125 1082.46875 483.004882812 c 2,25,-1
 1072.61035156 503.228515625 l 1,26,-1
 1093.84960938 510.649414062 l 1,27,-1
 1266.49121094 570.966796875 l 1,28,-1
 1285.86035156 577.734375 l 1,29,-1
 1292.13085938 558.198242188 l 1,30,-1
 1365.30273438 330.219726562 l 2,31,32
 1399.56445312 223.999023438 1399.56445312 223.999023438 1539.02050781 223.999023438 c 2,33,-1
 1558.13378906 223.999023438 l 2,34,35
 1572.31347656 224 1572.31347656 224 1581.14160156 216.159179688 c 128,-1,36
 1589.96972656 208.319335938 1589.96972656 208.319335938 1593.3203125 191.94140625 c 128,-1,37
 1596.67089844 175.564453125 1596.67089844 175.564453125 1597.4453125 164.041992188 c 128,-1,38
 1598.21875 152.520507812 1598.21875 152.520507812 1598.21875 131.889648438 c 2,39,-1
 1598.21875 108.287109375 l 2,40,41
 1598.21386719 106.1953125 1598.21386719 106.1953125 1598.20996094 101.956054688 c 0,42,43
 1598.19238281 77.845703125 1598.19238281 77.845703125 1597.42871094 65.0087890625 c 128,-1,44
 1596.66503906 52.1708984375 1596.66503906 52.1708984375 1593.29003906 34.3017578125 c 128,-1,45
 1589.91601562 16.43359375 1589.91601562 16.43359375 1581.13769531 8.216796875 c 128,-1,46
 1572.35839844 0 1572.35839844 0 1558.13671875 0 c 2,47,-1
 1543.41894531 0 l 2,48,49
 1448.87304688 0 1448.87304688 0 1388.4140625 36.8818359375 c 1,0,1
EndSplineSet
EndChar

StartChar: uniFBE8
Encoding: 64488 64488 118
GlifName: uniF_B_E_8
Width: 646
VWidth: 2972
GlyphClass: 2
Flags: W
AnchorPoint: "Anchor-10" 311.384 1373 basechar 0
AnchorPoint: "Anchor-7" 303.422 -203.625 basechar 0
LayerCount: 2
Fore
SplineSet
68.673828125 0 m 2,0,-1
 -6.9384765625 0 l 2,1,2
 -53.79296875 0 -53.79296875 0 -79.2861328125 28.916015625 c 128,-1,3
 -104.778320312 57.83203125 -104.778320312 57.83203125 -104.778320312 108.313476562 c 2,4,-1
 -104.778320312 127.147460938 l 2,5,6
 -104.865234375 157.341796875 -104.865234375 157.341796875 -93.197265625 179.185546875 c 128,-1,7
 -81.5302734375 201.029296875 -81.5302734375 201.029296875 -59.4609375 212.51171875 c 128,-1,8
 -37.3916015625 223.993164062 -37.3916015625 223.993164062 -6.9384765625 223.993164062 c 2,9,-1
 68.68359375 223.993164062 l 2,10,11
 145.760742188 223.99609375 145.760742188 223.99609375 198.575195312 231.868164062 c 128,-1,12
 251.390625 239.739257812 251.390625 239.739257812 275.563476562 253.483398438 c 0,13,14
 351.015625 297.497070312 351.015625 297.497070312 351.221679688 445.029296875 c 0,15,16
 351.004882812 561.502929688 351.004882812 561.502929688 314.9453125 704.751953125 c 2,17,-1
 310.0625 724.1484375 l 1,18,-1
 329.459960938 729.029296875 l 1,19,-1
 492.544921875 770.063476562 l 1,20,-1
 510.883789062 774.677734375 l 1,21,-1
 516.516601562 756.625976562 l 2,22,23
 565.995117188 598.0625 565.995117188 598.0625 566.223632812 448.333984375 c 0,24,25
 565.991210938 193.017578125 565.991210938 193.017578125 417.5859375 81.265625 c 0,26,27
 310.7421875 0 310.7421875 0 68.673828125 0 c 2,0,-1
EndSplineSet
EndChar

StartChar: uniFBE9
Encoding: 64489 64489 119
GlifName: uniF_B_E_9
Width: 717
VWidth: 2972
GlyphClass: 2
Flags: W
AnchorPoint: "Anchor-10" 315.665 1317.09 basechar 0
AnchorPoint: "Anchor-7" 350.537 -157.742 basechar 0
LayerCount: 2
Fore
SplineSet
764.731445312 108.340820312 m 2,0,1
 764.731445312 106.40625 764.731445312 106.40625 764.737304688 102.48828125 c 0,2,3
 764.7734375 78.29296875 764.7734375 78.29296875 764.033203125 65.3935546875 c 128,-1,4
 763.29296875 52.494140625 763.29296875 52.494140625 759.938476562 34.5224609375 c 128,-1,5
 756.584960938 16.55078125 756.584960938 16.55078125 747.770507812 8.275390625 c 128,-1,6
 738.956054688 0 738.956054688 0 724.650390625 0 c 2,7,-1
 715.006835938 0 l 2,8,9
 524.426757812 0 524.426757812 0 440.198242188 125.774414062 c 1,10,11
 331.760742188 0 331.760742188 0 95.759765625 0 c 2,12,-1
 -8.1171875 0 l 2,13,14
 -54.4892578125 0 -54.4892578125 0 -79.6337890625 28.96484375 c 128,-1,15
 -104.778320312 57.9296875 -104.778320312 57.9296875 -104.778320312 108.313476562 c 2,16,-1
 -104.778320312 127.157226562 l 2,17,18
 -104.909179688 172.606445312 -104.909179688 172.606445312 -79.2666015625 198.299804688 c 128,-1,19
 -53.6240234375 223.993164062 -53.6240234375 223.993164062 -8.1171875 223.993164062 c 2,20,-1
 91.01171875 223.993164062 l 2,21,22
 305.373046875 223.999023438 305.373046875 223.999023438 326.887695312 339.834960938 c 0,23,24
 333.010742188 372.896484375 333.010742188 372.896484375 333.291992188 419.265625 c 0,25,26
 333.00390625 468.358398438 333.00390625 468.358398438 330.049804688 512.340820312 c 2,27,-1
 324.559570312 594.096679688 l 1,28,-1
 323.284179688 613.08203125 l 1,29,-1
 342.182617188 615.299804688 l 1,30,-1
 506.989257812 634.647460938 l 1,31,-1
 527.818359375 637.092773438 l 1,32,-1
 529.2734375 616.170898438 l 1,33,-1
 545.344726562 385.0078125 l 2,34,35
 549.247070312 329.400390625 549.247070312 329.400390625 568.880859375 293.903320312 c 128,-1,36
 588.514648438 258.405273438 588.514648438 258.405273438 624.961914062 241.19921875 c 128,-1,37
 661.409179688 223.993164062 661.409179688 223.993164062 716.57421875 223.993164062 c 2,38,-1
 724.64453125 223.993164062 l 2,39,40
 738.9296875 223.998046875 738.9296875 223.998046875 747.747070312 215.793945312 c 128,-1,41
 756.563476562 207.58984375 756.563476562 207.58984375 759.916992188 189.874023438 c 128,-1,42
 763.270507812 172.159179688 763.270507812 172.159179688 764.016601562 159.500976562 c 128,-1,43
 764.76171875 146.842773438 764.76171875 146.842773438 764.735351562 123.24609375 c 0,44,45
 764.731445312 119.951171875 764.731445312 119.951171875 764.731445312 118.322265625 c 2,46,-1
 764.731445312 108.340820312 l 2,0,1
EndSplineSet
EndChar

StartChar: uniFE73
Encoding: 65139 65139 127
GlifName: uniF_E_73
Width: 742
VWidth: 2972
GlyphClass: 2
Flags: W
AnchorPoint: "Anchor-10" 274.943 1738.47 basechar 0
AnchorPoint: "Anchor-7" 274.943 -152.304 basechar 0
LayerCount: 2
Fore
SplineSet
390.336914062 476.018554688 m 2,0,1
 390.336914062 432.458007812 390.336914062 432.458007812 409.158203125 391.814453125 c 0,2,3
 428.336914062 350.397460938 428.336914062 350.397460938 467.000976562 311.735351562 c 0,4,5
 475.5703125 303.1640625 475.5703125 303.1640625 485.372070312 295.661132812 c 128,-1,6
 495.173828125 288.158203125 495.173828125 288.158203125 506.280273438 281.689453125 c 0,7,8
 528.676757812 268.640625 528.676757812 268.640625 556.173828125 259.936523438 c 0,9,10
 569.961914062 255.573242188 569.961914062 255.573242188 585.014648438 252.29296875 c 0,11,12
 592.581054688 250.64453125 592.581054688 250.64453125 600.48046875 249.266601562 c 128,-1,13
 608.380859375 247.888671875 608.380859375 247.888671875 616.609375 246.784179688 c 0,14,15
 649.719726562 242.342773438 649.719726562 242.342773438 688.00390625 242.342773438 c 2,16,-1
 758.674804688 242.342773438 l 1,17,-1
 778.674804688 242.342773438 l 1,18,-1
 778.674804688 222.342773438 l 1,19,-1
 778.674804688 31.5537109375 l 1,20,-1
 778.674804688 11.5537109375 l 1,21,-1
 758.674804688 11.5537109375 l 1,22,-1
 608.006835938 11.5537109375 l 2,23,24
 409.10546875 11.5537109375 409.10546875 11.5537109375 280.688476562 139.969726562 c 0,25,26
 159.544921875 261.114257812 159.544921875 261.114257812 159.544921875 458.563476562 c 2,27,-1
 159.544921875 482.69140625 l 1,28,-1
 159.544921875 502.69140625 l 1,29,-1
 179.544921875 502.69140625 l 1,30,-1
 370.336914062 502.69140625 l 1,31,-1
 390.336914062 502.69140625 l 1,32,-1
 390.336914062 482.69140625 l 1,33,-1
 390.336914062 476.018554688 l 2,0,1
EndSplineSet
EndChar

StartChar: uniFE8E
Encoding: 65166 65166 153
GlifName: uniF_E_8E_
Width: 571
VWidth: 2972
GlyphClass: 2
Flags: W
AnchorPoint: "Anchor-10" 256.697 1603.11 basechar 0
AnchorPoint: "Anchor-7" 316.078 -219.903 basechar 0
LayerCount: 2
Fore
SplineSet
618.618164062 108.466796875 m 1,0,1
 620 90 620 90 618.665039062 70.974609375 c 0,2,3
 618 52 618 52 614.831054688 35.9716796875 c 0,4,5
 612 20 612 20 602.870117188 10.099609375 c 0,6,7
 594 0 594 0 578.537109375 0 c 2,8,-1
 557.658203125 0 l 2,9,10
 356 0 356 0 253.20703125 115.427734375 c 128,-1,11
 150.283203125 230.682866309 150.283203125 230.682866309 150.283203125 454.395507812 c 2,12,-1
 150.283203125 1438.171875 l 5,13,-1
 150.283203125 1458.171875 l 5,14,-1
 170.283203125 1458.171875 l 5,15,-1
 343.598632812 1458.171875 l 5,16,-1
 363.598632812 1458.171875 l 5,17,-1
 363.598632812 1438.171875 l 5,18,-1
 363.598632812 456.465820312 l 2,19,20
 364 337 364 337 412.125 280.182617188 c 0,21,22
 460.00582512 223.993164062 460.00582512 223.993164062 560.712890625 223.993164062 c 2,23,-1
 578.53125 223.993164062 l 2,24,25
 588 224 588 224 595.577148438 220.223632812 c 0,26,27
 603 216 603 216 607.024414062 207.84765625 c 0,28,29
 611 199 611 199 613.780273438 191.920898438 c 0,30,31
 616 185 616 185 617.293945312 170.635742188 c 0,32,33
 618 157 618 157 618.434570312 149.50390625 c 0,34,35
 618.618164062 147.067404739 618.618164062 147.067404739 618.618164062 127.174804688 c 2,36,-1
 618.618164062 108.466796875 l 1,0,1
EndSplineSet
EndChar

StartChar: uniFEA2
Encoding: 65186 65186 173
GlifName: uniF_E_A_2
Width: 1366
VWidth: 2972
GlyphClass: 2
Flags: W
AnchorPoint: "Anchor-10" 633.478 1386.07 basechar 0
AnchorPoint: "Anchor-7" 536.833 -902.619 basechar 0
LayerCount: 2
Fore
SplineSet
1277.85253906 679.200195312 m 1,0,-1
 1264.85839844 505.369140625 l 1,1,-1
 1263.57714844 488.227539062 l 1,2,-1
 1246.4375 486.91796875 l 2,3,4
 1154.03417969 479.861328125 1154.03417969 479.861328125 1069.85644531 468.8671875 c 1,5,6
 1072.39453125 342.900390625 1072.39453125 342.900390625 1135.93261719 283.151367188 c 128,-1,7
 1199.47070312 223.401367188 1199.47070312 223.401367188 1330.51953125 224.061523438 c 2,8,-1
 1373.98144531 224.280273438 l 2,9,10
 1388.18359375 224.083007812 1388.18359375 224.083007812 1396.99804688 216.215820312 c 128,-1,11
 1405.81152344 208.349609375 1405.81152344 208.349609375 1409.14355469 191.932617188 c 128,-1,12
 1412.47460938 175.516601562 1412.47460938 175.516601562 1413.2265625 164.125 c 128,-1,13
 1413.97851562 152.734375 1413.97851562 152.734375 1413.97851562 131.889648438 c 2,14,-1
 1413.97851562 108.31640625 l 2,15,16
 1413.97851562 106.399414062 1413.97851562 106.399414062 1413.98535156 102.51953125 c 0,17,18
 1414.02636719 78.322265625 1414.02636719 78.322265625 1413.2890625 65.4189453125 c 128,-1,19
 1412.55078125 52.5166015625 1412.55078125 52.5166015625 1409.19921875 34.5380859375 c 128,-1,20
 1405.84667969 16.5595703125 1405.84667969 16.5595703125 1397.02929688 8.279296875 c 128,-1,21
 1388.21191406 0 1388.21191406 0 1373.8984375 0 c 2,22,-1
 1331.49511719 0 l 2,23,24
 1111.05566406 0 1111.05566406 0 995.833984375 108.87890625 c 128,-1,25
 880.612304688 217.756835938 880.612304688 217.756835938 876.342773438 430.064453125 c 1,26,27
 591.903320312 354.298828125 591.903320312 354.298828125 453.517578125 219.890625 c 128,-1,28
 315.131835938 85.4833984375 315.131835938 85.4833984375 315.249023438 -109.31640625 c 0,29,30
 315.130859375 -283.9609375 315.130859375 -283.9609375 440.446289062 -370.92578125 c 128,-1,31
 565.762695312 -457.889648438 565.762695312 -457.889648438 826.40625 -457.783203125 c 0,32,33
 1038.4765625 -457.995117188 1038.4765625 -457.995117188 1234.68847656 -364.237304688 c 2,34,-1
 1257.84375 -353.172851562 l 1,35,-1
 1262.91699219 -378.330078125 l 1,36,-1
 1298.9765625 -557.157226562 l 1,37,-1
 1302.03613281 -572.33203125 l 1,38,-1
 1288.11328125 -579.098632812 l 2,39,40
 1084.61132812 -677.99609375 1084.61132812 -677.99609375 811.515625 -678.249023438 c 0,41,42
 681.081054688 -678.165039062 681.081054688 -678.165039062 574.313476562 -657.143554688 c 128,-1,43
 467.544921875 -636.122070312 467.544921875 -636.122070312 383.330078125 -593.283203125 c 128,-1,44
 299.115234375 -550.4453125 299.115234375 -550.4453125 239.325195312 -485.895507812 c 0,45,46
 105.000976562 -340.838867188 105.000976562 -340.838867188 104.98046875 -124.543945312 c 0,47,48
 104.990234375 163.54296875 104.990234375 163.54296875 276.098632812 351.479492188 c 128,-1,49
 447.20703125 539.415039062 447.20703125 539.415039062 784.043945312 624.821289062 c 1,50,51
 760.553710938 634.129882812 760.553710938 634.129882812 729.424804688 646.5234375 c 0,52,53
 538.145507812 723.983398438 538.145507812 723.983398438 469.56640625 723.6875 c 0,54,55
 434.750976562 723.784179688 434.750976562 723.784179688 404.62109375 714.477539062 c 128,-1,56
 374.491210938 705.171875 374.491210938 705.171875 348.290039062 686.110351562 c 128,-1,57
 322.087890625 667.048828125 322.087890625 667.048828125 299.436523438 637.872070312 c 2,58,-1
 271.408203125 601.76953125 l 1,59,-1
 261.396484375 588.873046875 l 1,60,-1
 246.756835938 596.100585938 l 1,61,-1
 92.896484375 672.060546875 l 1,62,-1
 73.3515625 681.709960938 l 1,63,-1
 84.642578125 700.353515625 l 1,64,-1
 101.3515625 727.947265625 l 2,65,66
 233.75 946.0078125 233.75 946.0078125 471.784179688 945.841796875 c 0,67,68
 602.588867188 946.005859375 602.588867188 946.005859375 783.751953125 858.008789062 c 0,69,70
 1092.015625 707.803710938 1092.015625 707.803710938 1258.76269531 700.672851562 c 2,71,-1
 1279.39160156 699.791015625 l 1,72,-1
 1277.85253906 679.200195312 l 1,0,-1
EndSplineSet
EndChar

StartChar: uniFEA3
Encoding: 65187 65187 174
GlifName: uniF_E_A_3
Width: 1337
VWidth: 2972
GlyphClass: 2
Flags: W
AnchorPoint: "Anchor-10" 581.825 1392.07 basechar 0
AnchorPoint: "Anchor-7" 513.524 -214.745 basechar 0
LayerCount: 2
Fore
SplineSet
-6.9384765625 0 m 2,0,1
 -53.79296875 0 -53.79296875 0 -79.2861328125 28.916015625 c 128,-1,2
 -104.778320312 57.83203125 -104.778320312 57.83203125 -104.778320312 108.313476562 c 2,3,-1
 -104.778320312 127.157226562 l 2,4,5
 -104.91015625 172.709960938 -104.91015625 172.709960938 -78.923828125 198.354492188 c 128,-1,6
 -52.9384765625 223.999023438 -52.9384765625 223.999023438 -6.9384765625 223.999023438 c 2,7,-1
 52.54296875 223.999023438 l 2,8,9
 378.345703125 224 378.345703125 224 859.82421875 472.607421875 c 2,10,-1
 892.716796875 489.591796875 l 1,11,12
 864.391601562 500.392578125 864.391601562 500.392578125 821.63671875 517.395507812 c 128,-1,13
 778.8828125 534.399414062 778.8828125 534.399414062 719.391601562 558.510742188 c 0,14,15
 527.16796875 635.981445312 527.16796875 635.981445312 460.337890625 635.657226562 c 0,16,17
 356.311523438 635.971679688 356.311523438 635.971679688 289.4453125 549.842773438 c 2,18,-1
 261.416992188 513.740234375 l 1,19,-1
 251.405273438 500.84375 l 1,20,-1
 236.765625 508.071289062 l 1,21,-1
 82.9052734375 584.03125 l 1,22,-1
 63.3603515625 593.680664062 l 1,23,-1
 74.6513671875 612.32421875 l 1,24,-1
 91.3447265625 639.892578125 l 2,25,26
 156.482421875 747.532226562 156.482421875 747.532226562 249.547851562 802.459960938 c 128,-1,27
 342.612304688 857.388671875 342.612304688 857.388671875 461.282226562 857.8125 c 0,28,29
 592.587890625 858.006835938 592.587890625 858.006835938 773.759765625 769.979492188 c 0,30,31
 1082.01660156 619.802734375 1082.01660156 619.802734375 1248.77441406 612.643554688 c 2,32,-1
 1268.11914062 611.813476562 l 1,33,-1
 1267.91601562 592.452148438 l 1,34,-1
 1266.09082031 418.783203125 l 1,35,-1
 1265.90039062 400.637695312 l 1,36,-1
 1247.82226562 399.068359375 l 2,37,38
 1136.74804688 389.423828125 1136.74804688 389.423828125 831.014648438 228.461914062 c 0,39,40
 397.952148438 0 397.952148438 0 40.767578125 0 c 2,41,-1
 -6.9384765625 0 l 2,0,1
EndSplineSet
EndChar

StartChar: uniFEA4
Encoding: 65188 65188 175
GlifName: uniF_E_A_4
Width: 1351
VWidth: 2972
GlyphClass: 2
Flags: W
AnchorPoint: "Anchor-7" 513.524 -214.745 basechar 0
AnchorPoint: "Anchor-10" 581.825 1392.07 basechar 0
LayerCount: 2
Fore
SplineSet
892.591796875 489.52734375 m 1,0,1
 864.8359375 500.104492188 864.8359375 500.104492188 821.79296875 517.249023438 c 128,-1,2
 778.75 534.39453125 778.75 534.39453125 719.383789062 558.513671875 c 0,3,4
 527.16796875 635.981445312 527.16796875 635.981445312 460.337890625 635.657226562 c 0,5,6
 356.311523438 635.971679688 356.311523438 635.971679688 289.4453125 549.842773438 c 2,7,-1
 261.416992188 513.740234375 l 1,8,-1
 251.405273438 500.84375 l 1,9,-1
 236.765625 508.071289062 l 1,10,-1
 82.9052734375 584.03125 l 1,11,-1
 63.3603515625 593.680664062 l 1,12,-1
 74.6513671875 612.32421875 l 1,13,-1
 91.3447265625 639.892578125 l 2,14,15
 156.482421875 747.532226562 156.482421875 747.532226562 249.547851562 802.459960938 c 128,-1,16
 342.612304688 857.388671875 342.612304688 857.388671875 461.282226562 857.8125 c 0,17,18
 592.587890625 858.006835938 592.587890625 858.006835938 773.759765625 769.979492188 c 0,19,20
 1082.01660156 619.802734375 1082.01660156 619.802734375 1248.77441406 612.643554688 c 2,21,-1
 1268.11914062 611.813476562 l 1,22,-1
 1267.91601562 592.452148438 l 1,23,-1
 1266.09082031 418.783203125 l 1,24,-1
 1265.89746094 400.385742188 l 1,25,-1
 1247.54785156 399.045898438 l 2,26,27
 1211.50683594 396.415039062 1211.50683594 396.415039062 1163.70117188 380.944335938 c 128,-1,28
 1115.89453125 365.47265625 1115.89453125 365.47265625 1059.94335938 338.075195312 c 1,29,30
 1074.83886719 224.279296875 1074.83886719 224.279296875 1316.61132812 224.279296875 c 2,31,-1
 1360.53320312 224.279296875 l 2,32,33
 1374.71289062 224.086914062 1374.71289062 224.086914062 1383.51855469 216.215820312 c 128,-1,34
 1392.32421875 208.34375 1392.32421875 208.34375 1395.65820312 191.948242188 c 128,-1,35
 1398.99121094 175.553710938 1398.99121094 175.553710938 1399.74902344 164.124023438 c 128,-1,36
 1400.50585938 152.694335938 1400.50585938 152.694335938 1400.50585938 131.889648438 c 2,37,-1
 1400.50585938 108.3828125 l 2,38,39
 1400.94140625 96.2197265625 1400.94140625 96.2197265625 1400.55859375 83.4609375 c 128,-1,40
 1400.17480469 70.7021484375 1400.17480469 70.7021484375 1399.6015625 58.66015625 c 128,-1,41
 1399.02832031 46.6171875 1399.02832031 46.6171875 1396.37304688 35.9462890625 c 128,-1,42
 1393.71777344 25.275390625 1393.71777344 25.275390625 1389.61035156 17.287109375 c 128,-1,43
 1385.50195312 9.298828125 1385.50195312 9.298828125 1378.04882812 4.6494140625 c 128,-1,44
 1370.59570312 0 1370.59570312 0 1360.42773438 0 c 2,45,-1
 1301.09667969 0 l 2,46,47
 1122.84082031 0 1122.84082031 0 1018.15820312 64.5400390625 c 128,-1,48
 913.475585938 129.081054688 913.475585938 129.081054688 888.44140625 258.205078125 c 1,49,50
 874.068359375 250.90625 874.068359375 250.90625 860.06640625 243.653320312 c 128,-1,51
 846.064453125 236.400390625 846.064453125 236.400390625 831.014648438 228.461914062 c 0,52,53
 397.952148438 0 397.952148438 0 40.767578125 0 c 2,54,-1
 -6.9384765625 0 l 2,55,56
 -53.79296875 0 -53.79296875 0 -79.2861328125 28.916015625 c 128,-1,57
 -104.778320312 57.83203125 -104.778320312 57.83203125 -104.778320312 108.313476562 c 2,58,-1
 -104.778320312 127.157226562 l 2,59,60
 -104.91015625 172.709960938 -104.91015625 172.709960938 -78.923828125 198.354492188 c 128,-1,61
 -52.9384765625 223.999023438 -52.9384765625 223.999023438 -6.9384765625 223.999023438 c 2,62,-1
 52.54296875 223.999023438 l 2,63,64
 378.345703125 224 378.345703125 224 859.82421875 472.607421875 c 2,65,-1
 892.591796875 489.52734375 l 1,0,1
EndSplineSet
EndChar

StartChar: uniFEAA
Encoding: 65194 65194 181
GlifName: uniF_E_A_A_
Width: 1101
VWidth: 2972
GlyphClass: 2
Flags: W
AnchorPoint: "Anchor-7" 437.24 -219.316 basechar 0
AnchorPoint: "Anchor-10" 578.848 1401.53 basechar 0
LayerCount: 2
Fore
SplineSet
387.551757812 0.8193359375 m 0,0,1
 252.124023438 1.0029296875 252.124023438 1.0029296875 98.4033203125 29.8857421875 c 2,2,-1
 82.0966796875 32.9501953125 l 1,3,-1
 82.0966796875 49.5419921875 l 1,4,-1
 82.0966796875 234.252929688 l 1,5,-1
 82.0966796875 258.8671875 l 1,6,-1
 106.190429688 253.829101562 l 2,7,8
 244.064453125 225.000976562 244.064453125 225.000976562 392.985351562 225.068359375 c 0,9,10
 688.012695312 225.00390625 688.012695312 225.00390625 688.088867188 349.055664062 c 0,11,12
 688.05078125 376.129882812 688.05078125 376.129882812 665.208007812 446.30078125 c 128,-1,13
 642.365234375 516.47265625 642.365234375 516.47265625 598.413085938 620.6328125 c 2,14,-1
 471.573242188 921.224609375 l 1,15,-1
 464.038085938 939.08203125 l 1,16,-1
 481.650390625 947.173828125 l 1,17,-1
 646.282226562 1022.81542969 l 1,18,-1
 665.49609375 1031.64355469 l 1,19,-1
 673.2421875 1011.96777344 l 1,20,-1
 871.168945312 509.196289062 l 2,21,22
 928.092773438 364.81640625 928.092773438 364.81640625 984.052734375 294.404296875 c 128,-1,23
 1040.01171875 223.993164062 1040.01171875 223.993164062 1088.87988281 223.993164062 c 2,24,-1
 1108.51171875 223.993164062 l 2,25,26
 1118.31054688 223.99609375 1118.31054688 223.99609375 1125.55761719 220.223632812 c 128,-1,27
 1132.80371094 216.450195312 1132.80371094 216.450195312 1137.00488281 207.84765625 c 128,-1,28
 1141.20507812 199.245117188 1141.20507812 199.245117188 1143.75976562 191.920898438 c 128,-1,29
 1146.31445312 184.596679688 1146.31445312 184.596679688 1147.2734375 170.635742188 c 128,-1,30
 1148.23144531 156.674804688 1148.23144531 156.674804688 1148.41503906 149.50390625 c 128,-1,31
 1148.59765625 142.33203125 1148.59765625 142.33203125 1148.59765625 127.174804688 c 2,32,-1
 1148.59765625 108.432617188 l 2,33,34
 1148.93945312 78.408203125 1148.93945312 78.408203125 1145.63867188 55.162109375 c 0,35,36
 1142.38183594 32.2314453125 1142.38183594 32.2314453125 1136.83105469 20.3623046875 c 0,37,-1
 1136.359375 19.419921875 l 2,38,39
 1125.99804688 0 1125.99804688 0 1108.51757812 0 c 2,40,-1
 1088.53222656 0 l 2,41,42
 943.287109375 0 943.287109375 0 840.30078125 160.90625 c 1,43,44
 689.724609375 1.33984375 689.724609375 1.33984375 387.551757812 0.8193359375 c 0,0,1
EndSplineSet
EndChar

StartChar: uniFEAE
Encoding: 65198 65198 185
GlifName: uniF_E_A_E_
Width: 910
VWidth: 2164
GlyphClass: 2
Flags: W
AnchorPoint: "Anchor-7" 364.969 -749.998 basechar 0
AnchorPoint: "Anchor-10" 459.256 1390.2 basechar 0
LayerCount: 2
Fore
SplineSet
663.326171875 557.224609375 m 1,0,-1
 720.125976562 364.1953125 l 2,1,2
 741.143554688 292.109375 741.143554688 292.109375 783.090820312 258.053710938 c 128,-1,3
 825.037109375 223.999023438 825.037109375 223.999023438 891.31640625 223.999023438 c 2,4,-1
 918.573242188 223.999023438 l 2,5,6
 932.729492188 224 932.729492188 224 941.55078125 216.182617188 c 128,-1,7
 950.373046875 208.365234375 950.373046875 208.365234375 953.7265625 192.08203125 c 128,-1,8
 957.080078125 175.798828125 957.080078125 175.798828125 957.859375 164.295898438 c 128,-1,9
 958.638671875 152.793945312 958.638671875 152.793945312 958.638671875 132.322265625 c 2,10,-1
 958.638671875 108.25 l 2,11,12
 958.645507812 106.5859375 958.645507812 106.5859375 958.663085938 103.221679688 c 0,13,14
 958.7890625 78.93359375 958.7890625 78.93359375 958.088867188 65.9521484375 c 128,-1,15
 957.388671875 52.9697265625 957.388671875 52.9697265625 954.072265625 34.849609375 c 128,-1,16
 950.754882812 16.728515625 950.754882812 16.728515625 941.883789062 8.3642578125 c 128,-1,17
 933.013671875 -0 933.013671875 -0 918.57421875 0 c 2,18,-1
 901.80078125 0 l 2,19,20
 789.05078125 0 789.05078125 0 734.73046875 33.7294921875 c 1,21,22
 655.560546875 -422.916015625 655.560546875 -422.916015625 31.576171875 -490.040039062 c 2,23,-1
 14.2587890625 -491.90234375 l 1,24,-1
 10.0341796875 -475.004882812 l 1,25,-1
 -32.5341796875 -304.729492188 l 1,26,-1
 -38.14453125 -282.287109375 l 1,27,-1
 -15.126953125 -279.978515625 l 2,28,29
 263.33984375 -252.05078125 263.33984375 -252.05078125 398.474609375 -139.123046875 c 128,-1,30
 533.609375 -26.1953125 533.609375 -26.1953125 533.25 173.309570312 c 0,31,32
 533.0078125 318.540039062 533.0078125 318.540039062 455.881835938 483.530273438 c 2,33,-1
 446.515625 503.56640625 l 1,34,-1
 467.389648438 510.875976562 l 1,35,-1
 637.529296875 570.455078125 l 1,36,-1
 657.38671875 577.409179688 l 1,37,-1
 663.326171875 557.224609375 l 1,0,-1
EndSplineSet
PairPos2: "'kern' Horizontal Kerning lookup 15-2" uniFBFE dx=60 dy=0 dh=60 dv=0 dx=0 dy=0 dh=0 dv=0
PairPos2: "'kern' Horizontal Kerning lookup 15-1" uniFEE7 dx=-178 dy=0 dh=-178 dv=0 dx=0 dy=0 dh=0 dv=0
PairPos2: "'kern' Horizontal Kerning lookup 15-2" uniFB90 dx=-226 dy=0 dh=-226 dv=0 dx=0 dy=0 dh=0 dv=0
PairPos2: "'kern' Horizontal Kerning lookup 15-2" uniFB8E dx=-226 dy=0 dh=-226 dv=0 dx=0 dy=0 dh=0 dv=0
PairPos2: "'kern' Horizontal Kerning lookup 15-2" uni06A9 dx=-226 dy=0 dh=-226 dv=0 dx=0 dy=0 dh=0 dv=0
PairPos2: "'kern' Horizontal Kerning lookup 15-2" uni064A dx=-60 dy=0 dh=-60 dv=0 dx=0 dy=0 dh=0 dv=0
PairPos2: "'kern' Horizontal Kerning lookup 15-2" afii57414 dx=-60 dy=0 dh=-60 dv=0 dx=0 dy=0 dh=0 dv=0
PairPos2: "'kern' Horizontal Kerning lookup 15-2" uni0649 dx=-60 dy=0 dh=-60 dv=0 dx=0 dy=0 dh=0 dv=0
PairPos2: "'kern' Horizontal Kerning lookup 15-2" uniFEEB dx=-178 dy=0 dh=-178 dv=0 dx=0 dy=0 dh=0 dv=0
PairPos2: "'kern' Horizontal Kerning lookup 15-2" uni0647 dx=-178 dy=0 dh=-178 dv=0 dx=0 dy=0 dh=0 dv=0
PairPos2: "'kern' Horizontal Kerning lookup 15-2" uni0646 dx=-60 dy=0 dh=-60 dv=0 dx=0 dy=0 dh=0 dv=0
PairPos2: "'kern' Horizontal Kerning lookup 15-2" uniFEE3 dx=-178 dy=0 dh=-178 dv=0 dx=0 dy=0 dh=0 dv=0
PairPos2: "'kern' Horizontal Kerning lookup 15-2" uni0645 dx=-178 dy=0 dh=-178 dv=0 dx=0 dy=0 dh=0 dv=0
PairPos2: "'kern' Horizontal Kerning lookup 15-2" uniFEFB dx=-143 dy=0 dh=-143 dv=0 dx=0 dy=0 dh=0 dv=0
PairPos2: "'kern' Horizontal Kerning lookup 15-2" uniFEDF dx=-143 dy=0 dh=-143 dv=0 dx=0 dy=0 dh=0 dv=0
PairPos2: "'kern' Horizontal Kerning lookup 15-2" uni0644 dx=-60 dy=0 dh=-60 dv=0 dx=0 dy=0 dh=0 dv=0
PairPos2: "'kern' Horizontal Kerning lookup 15-2" uniFEDB dx=-226 dy=0 dh=-226 dv=0 dx=0 dy=0 dh=0 dv=0
PairPos2: "'kern' Horizontal Kerning lookup 15-2" uni0643 dx=-143 dy=0 dh=-143 dv=0 dx=0 dy=0 dh=0 dv=0
PairPos2: "'kern' Horizontal Kerning lookup 15-2" uniFED7 dx=-178 dy=0 dh=-178 dv=0 dx=0 dy=0 dh=0 dv=0
PairPos2: "'kern' Horizontal Kerning lookup 15-2" uni0642 dx=-60 dy=0 dh=-60 dv=0 dx=0 dy=0 dh=0 dv=0
PairPos2: "'kern' Horizontal Kerning lookup 15-2" uniFED3 dx=-178 dy=0 dh=-178 dv=0 dx=0 dy=0 dh=0 dv=0
PairPos2: "'kern' Horizontal Kerning lookup 15-2" uni0641 dx=-178 dy=0 dh=-178 dv=0 dx=0 dy=0 dh=0 dv=0
PairPos2: "'kern' Horizontal Kerning lookup 15-2" uniFECF dx=-178 dy=0 dh=-178 dv=0 dx=0 dy=0 dh=0 dv=0
PairPos2: "'kern' Horizontal Kerning lookup 15-2" uniFECB dx=-178 dy=0 dh=-178 dv=0 dx=0 dy=0 dh=0 dv=0
PairPos2: "'kern' Horizontal Kerning lookup 15-2" uniFEC7 dx=-178 dy=0 dh=-178 dv=0 dx=0 dy=0 dh=0 dv=0
PairPos2: "'kern' Horizontal Kerning lookup 15-2" uni0638 dx=-178 dy=0 dh=-178 dv=0 dx=0 dy=0 dh=0 dv=0
PairPos2: "'kern' Horizontal Kerning lookup 15-2" uniFEC3 dx=-178 dy=0 dh=-178 dv=0 dx=0 dy=0 dh=0 dv=0
PairPos2: "'kern' Horizontal Kerning lookup 15-2" uni0637 dx=-178 dy=0 dh=-178 dv=0 dx=0 dy=0 dh=0 dv=0
PairPos2: "'kern' Horizontal Kerning lookup 15-2" uniFEBF dx=-178 dy=0 dh=-178 dv=0 dx=0 dy=0 dh=0 dv=0
PairPos2: "'kern' Horizontal Kerning lookup 15-2" uni0636 dx=-178 dy=0 dh=-178 dv=0 dx=0 dy=0 dh=0 dv=0
PairPos2: "'kern' Horizontal Kerning lookup 15-2" uniFEBB dx=-178 dy=0 dh=-178 dv=0 dx=0 dy=0 dh=0 dv=0
PairPos2: "'kern' Horizontal Kerning lookup 15-2" uni0635 dx=-178 dy=0 dh=-178 dv=0 dx=0 dy=0 dh=0 dv=0
PairPos2: "'kern' Horizontal Kerning lookup 15-2" uniFEB7 dx=-178 dy=0 dh=-178 dv=0 dx=0 dy=0 dh=0 dv=0
PairPos2: "'kern' Horizontal Kerning lookup 15-2" uni0634 dx=-178 dy=0 dh=-178 dv=0 dx=0 dy=0 dh=0 dv=0
PairPos2: "'kern' Horizontal Kerning lookup 15-2" uniFEB3 dx=-178 dy=0 dh=-178 dv=0 dx=0 dy=0 dh=0 dv=0
PairPos2: "'kern' Horizontal Kerning lookup 15-2" uni0633 dx=-178 dy=0 dh=-178 dv=0 dx=0 dy=0 dh=0 dv=0
PairPos2: "'kern' Horizontal Kerning lookup 15-2" uni0630 dx=-178 dy=0 dh=-178 dv=0 dx=0 dy=0 dh=0 dv=0
PairPos2: "'kern' Horizontal Kerning lookup 15-2" uni062F dx=-178 dy=0 dh=-178 dv=0 dx=0 dy=0 dh=0 dv=0
PairPos2: "'kern' Horizontal Kerning lookup 15-2" uniFEA7 dx=-178 dy=0 dh=-178 dv=0 dx=0 dy=0 dh=0 dv=0
PairPos2: "'kern' Horizontal Kerning lookup 15-2" uniFEA3 dx=-178 dy=0 dh=-178 dv=0 dx=0 dy=0 dh=0 dv=0
PairPos2: "'kern' Horizontal Kerning lookup 15-2" uniFE9F dx=-178 dy=0 dh=-178 dv=0 dx=0 dy=0 dh=0 dv=0
PairPos2: "'kern' Horizontal Kerning lookup 15-2" uniFE9B dx=-178 dy=0 dh=-178 dv=0 dx=0 dy=0 dh=0 dv=0
PairPos2: "'kern' Horizontal Kerning lookup 15-2" uni062B dx=-178 dy=0 dh=-178 dv=0 dx=0 dy=0 dh=0 dv=0
PairPos2: "'kern' Horizontal Kerning lookup 15-2" uniFE97 dx=-178 dy=0 dh=-178 dv=0 dx=0 dy=0 dh=0 dv=0
PairPos2: "'kern' Horizontal Kerning lookup 15-2" uni062A dx=-178 dy=0 dh=-178 dv=0 dx=0 dy=0 dh=0 dv=0
PairPos2: "'kern' Horizontal Kerning lookup 15-2" uni0629 dx=-178 dy=0 dh=-178 dv=0 dx=0 dy=0 dh=0 dv=0
PairPos2: "'kern' Horizontal Kerning lookup 15-2" uni0628 dx=-178 dy=0 dh=-178 dv=0 dx=0 dy=0 dh=0 dv=0
PairPos2: "'kern' Horizontal Kerning lookup 15-2" uni0627 dx=-143 dy=0 dh=-143 dv=0 dx=0 dy=0 dh=0 dv=0
PairPos2: "'kern' Horizontal Kerning lookup 15-2" uni0623 dx=-143 dy=0 dh=-143 dv=0 dx=0 dy=0 dh=0 dv=0
PairPos2: "'kern' Horizontal Kerning lookup 15-2" uni0622 dx=-143 dy=0 dh=-143 dv=0 dx=0 dy=0 dh=0 dv=0
PairPos2: "'kern' Horizontal Kerning lookup 15-2" uni0621 dx=-178 dy=0 dh=-178 dv=0 dx=0 dy=0 dh=0 dv=0
PairPos2: "'kern' Horizontal Kerning lookup 15-2" uniFB94 dx=-226 dy=0 dh=-226 dv=0 dx=0 dy=0 dh=0 dv=0
PairPos2: "'kern' Horizontal Kerning lookup 15-2" uniFB92 dx=-226 dy=0 dh=-226 dv=0 dx=0 dy=0 dh=0 dv=0
PairPos2: "'kern' Horizontal Kerning lookup 15-2" uni06AF dx=-226 dy=0 dh=-226 dv=0 dx=0 dy=0 dh=0 dv=0
PairPos2: "'kern' Horizontal Kerning lookup 15-2" afii57506 dx=-178 dy=0 dh=-178 dv=0 dx=0 dy=0 dh=0 dv=0
PairPos2: "'kern' Horizontal Kerning lookup 15-2" afii57440 dx=-178 dy=0 dh=-178 dv=0 dx=0 dy=0 dh=0 dv=0
PairPos2: "'kern' Horizontal Kerning lookup 15-2" uniFE8B dx=-178 dy=0 dh=-178 dv=0 dx=0 dy=0 dh=0 dv=0
EndChar

StartChar: uniFEB2
Encoding: 65202 65202 189
GlifName: uniF_E_B_2
Width: 2589
VWidth: 2972
GlyphClass: 2
Flags: W
AnchorPoint: "Anchor-7" 595.902 -779.086 basechar 0
AnchorPoint: "Anchor-10" 1794.53 1398.1 basechar 0
LayerCount: 2
Fore
SplineSet
1352.02832031 373.159179688 m 2,0,1
 1376.65722656 297.071289062 1376.65722656 297.071289062 1426.20996094 260.5546875 c 128,-1,2
 1475.76269531 224.0390625 1475.76269531 224.0390625 1554.09570312 224.073242188 c 0,3,4
 1641.18554688 224.0390625 1641.18554688 224.0390625 1681.58398438 263.243164062 c 128,-1,5
 1721.98242188 302.446289062 1721.98242188 302.446289062 1721.96777344 386.374023438 c 0,6,7
 1722 463.869140625 1722 463.869140625 1720.15625 491.314453125 c 2,8,-1
 1714.66503906 573.07421875 l 1,9,-1
 1713.38964844 592.05859375 l 1,10,-1
 1732.28808594 594.27734375 l 1,11,-1
 1897.09472656 613.625 l 1,12,-1
 1917.92382812 616.0703125 l 1,13,-1
 1919.37890625 595.1484375 l 1,14,-1
 1935.453125 363.948242188 l 2,15,16
 1940.28125 291.489257812 1940.28125 291.489257812 1973.58398438 258.11328125 c 128,-1,17
 2006.88671875 224.736328125 2006.88671875 224.736328125 2073.21191406 224.520507812 c 0,18,19
 2138.36425781 224.73046875 2138.36425781 224.73046875 2170.58007812 268.061523438 c 128,-1,20
 2202.796875 311.392578125 2202.796875 311.392578125 2203.51269531 406.953125 c 0,21,22
 2203.9921875 471.024414062 2203.9921875 471.024414062 2198.52832031 532.419921875 c 2,23,-1
 2193.11035156 593.296875 l 1,24,-1
 2191.38769531 612.65234375 l 1,25,-1
 2210.68457031 614.932617188 l 1,26,-1
 2375.51269531 634.405273438 l 1,27,-1
 2396.04589844 636.831054688 l 1,28,-1
 2397.78808594 616.228515625 l 1,29,-1
 2413.77734375 427.133789062 l 2,30,31
 2422.89648438 321.684570312 2422.89648438 321.684570312 2463.828125 272.850585938 c 128,-1,32
 2504.75976562 224.016601562 2504.75976562 224.016601562 2579.36230469 224 c 2,33,-1
 2597.43261719 223.99609375 l 2,34,35
 2607.23339844 223.998046875 2607.23339844 223.998046875 2614.48046875 220.22265625 c 128,-1,36
 2621.72851562 216.447265625 2621.72851562 216.447265625 2625.9296875 207.840820312 c 128,-1,37
 2630.13183594 199.235351562 2630.13183594 199.235351562 2632.68652344 191.90625 c 128,-1,38
 2635.2421875 184.577148438 2635.2421875 184.577148438 2636.20117188 170.609375 c 128,-1,39
 2637.16015625 156.642578125 2637.16015625 156.642578125 2637.34277344 149.463867188 c 128,-1,40
 2637.52636719 142.284179688 2637.52636719 142.284179688 2637.52636719 127.1171875 c 2,41,-1
 2637.52636719 108.131835938 l 2,42,43
 2637.47460938 105.158203125 2637.47460938 105.158203125 2637.39257812 99.1015625 c 0,44,45
 2637.06835938 75.42578125 2637.06835938 75.42578125 2636.17089844 62.9111328125 c 128,-1,46
 2635.2734375 50.3974609375 2635.2734375 50.3974609375 2631.78808594 33.076171875 c 128,-1,47
 2628.30371094 15.755859375 2628.30371094 15.755859375 2619.74023438 7.849609375 c 128,-1,48
 2611.17675781 -0.056640625 2611.17675781 -0.056640625 2597.4453125 -0.056640625 c 2,49,-1
 2581.11425781 -0.056640625 l 2,50,51
 2520.69335938 -0.0390625 2520.69335938 -0.0390625 2472.46386719 12.888671875 c 128,-1,52
 2424.234375 25.8173828125 2424.234375 25.8173828125 2387.99023438 52.4248046875 c 128,-1,53
 2351.74707031 79.033203125 2351.74707031 79.033203125 2329.43359375 118.919921875 c 1,54,55
 2289.36523438 59.5986328125 2289.36523438 59.5986328125 2227.00683594 29.798828125 c 128,-1,56
 2164.6484375 0 2164.6484375 0 2082.5 0 c 0,57,58
 1899.39453125 0 1899.39453125 0 1828.30664062 123.264648438 c 1,59,60
 1802.62011719 92.5458984375 1802.62011719 92.5458984375 1772.40136719 69.529296875 c 128,-1,61
 1742.18164062 46.51171875 1742.18164062 46.51171875 1707.66699219 31.3095703125 c 128,-1,62
 1673.15234375 16.107421875 1673.15234375 16.107421875 1634.45996094 8.5224609375 c 128,-1,63
 1595.76660156 0.9384765625 1595.76660156 0.9384765625 1552.79296875 0.9189453125 c 0,64,65
 1454.82714844 0.9873046875 1454.82714844 0.9873046875 1388.51367188 39.015625 c 1,66,67
 1387.56347656 25.3974609375 1387.56347656 25.3974609375 1386.00195312 11.8017578125 c 128,-1,68
 1384.44042969 -1.79296875 1384.44042969 -1.79296875 1382.27050781 -15.3623046875 c 128,-1,69
 1380.10058594 -28.931640625 1380.10058594 -28.931640625 1377.31640625 -42.5 c 128,-1,70
 1374.53125 -56.068359375 1374.53125 -56.068359375 1371.140625 -69.62109375 c 128,-1,71
 1367.75 -83.173828125 1367.75 -83.173828125 1363.7421875 -96.748046875 c 128,-1,72
 1359.734375 -110.321289062 1359.734375 -110.321289062 1355.12304688 -123.889648438 c 128,-1,73
 1350.51074219 -137.458984375 1350.51074219 -137.458984375 1345.27832031 -151.069335938 c 128,-1,74
 1340.04589844 -164.680664062 1340.04589844 -164.680664062 1334.21191406 -178.296875 c 128,-1,75
 1328.37792969 -191.9140625 1328.37792969 -191.9140625 1321.92089844 -205.594726562 c 0,76,77
 1170.56542969 -520.0078125 1170.56542969 -520.0078125 707.34375 -519.724609375 c 0,78,79
 553.008789062 -519.794921875 553.008789062 -519.794921875 435.911132812 -483.104492188 c 128,-1,80
 318.813476562 -446.4140625 318.813476562 -446.4140625 240.178710938 -373.694335938 c 128,-1,81
 161.54296875 -300.973632812 161.54296875 -300.973632812 121.6796875 -191.951171875 c 128,-1,82
 81.81640625 -82.927734375 81.81640625 -82.927734375 81.7529296875 61.0517578125 c 0,83,84
 82.0048828125 269.986328125 82.0048828125 269.986328125 184.547851562 517.772460938 c 2,85,-1
 192.185546875 536.2265625 l 1,86,-1
 210.649414062 528.616210938 l 1,87,-1
 369.169921875 463.278320312 l 1,88,-1
 387.381835938 455.771484375 l 1,89,-1
 380.153320312 437.447265625 l 2,90,91
 298.005859375 229.212890625 298.005859375 229.212890625 298.268554688 62.869140625 c 0,92,93
 298.139648438 -122.18359375 298.139648438 -122.18359375 400.309570312 -212.64453125 c 128,-1,94
 502.479492188 -303.104492188 502.479492188 -303.104492188 714.353515625 -303.203125 c 0,95,96
 945.01171875 -303.104492188 945.01171875 -303.104492188 1057.40820312 -197.609375 c 128,-1,97
 1169.8046875 -92.11328125 1169.8046875 -92.11328125 1170.55664062 123.783203125 c 0,98,99
 1170.70117188 183.256835938 1170.70117188 183.256835938 1161.01367188 242.87109375 c 128,-1,100
 1151.32714844 302.485351562 1151.32714844 302.485351562 1131.69824219 362.545898438 c 128,-1,101
 1112.06933594 422.606445312 1112.06933594 422.606445312 1082.48730469 482.966796875 c 2,102,-1
 1072.56445312 503.212890625 l 1,103,-1
 1093.84960938 510.649414062 l 1,104,-1
 1266.49121094 570.966796875 l 1,105,-1
 1285.8125 577.716796875 l 1,106,-1
 1292.11621094 558.245117188 l 1,107,-1
 1352.02832031 373.159179688 l 2,0,1
EndSplineSet
EndChar

StartChar: uniFEB3
Encoding: 65203 65203 190
GlifName: uniF_E_B_3
Width: 1603
VWidth: 2972
GlyphClass: 2
Flags: W
AnchorPoint: "Anchor-10" 849.961 1400.67 basechar 0
AnchorPoint: "Anchor-7" 759.534 -216.974 basechar 0
LayerCount: 2
Fore
SplineSet
817.54296875 354.905273438 m 132,-1,1
 823 382 823 382 822.953125 421.454101562 c 4,2,3
 823.000467942 465.434708304 823.000467942 465.434708304 818.860351562 511.981445312 c 6,4,-1
 813.459960938 572.697265625 l 5,5,-1
 811.736328125 592.065429688 l 5,6,-1
 831.049804688 594.33203125 l 5,7,-1
 995.775390625 613.665039062 l 5,8,-1
 1016.60351562 616.110351562 l 5,9,-1
 1018.05859375 595.188476562 l 5,10,-1
 1034.13085938 364.001953125 l 6,11,12
 1038 315 1038 315 1053.40136719 284.654296875 c 4,13,14
 1069 254 1069 254 1098.37890625 239.296875 c 4,15,16
 1127 225 1127 225 1171.49707031 224.538085938 c 4,17,18
 1187 225 1187 225 1201.11425781 227.283203125 c 4,19,20
 1215 230 1215 230 1226.95410156 235.517578125 c 132,-1,21
 1239 241 1239 241 1249.02929688 249.6171875 c 4,22,23
 1259 258 1259 258 1267.19140625 269.869140625 c 4,24,25
 1275 282 1275 282 1281.46484375 296.65625 c 4,26,27
 1288 312 1288 312 1291.69921875 330.267578125 c 4,28,29
 1296 349 1296 349 1297.91894531 371.084960938 c 132,-1,30
 1300 393 1300 393 1299.98632812 419.401367188 c 4,31,32
 1300 444 1300 444 1297.3125 471.936523438 c 4,33,34
 1295 500 1295 500 1289.26757812 530.9921875 c 4,35,36
 1284 562 1284 562 1275.7578125 596.6875 c 4,37,38
 1269.15289066 625.900809874 1269.15289066 625.900809874 1256.76855469 668.754882812 c 6,39,-1
 1251.10449219 688.354492188 l 5,40,-1
 1270.81347656 693.627929688 l 5,41,-1
 1441.76464844 739.368164062 l 5,42,-1
 1460.22753906 744.30859375 l 5,43,-1
 1466 726.087890625 l 6,44,45
 1517 565 1517 565 1516.01953125 425.919921875 c 4,46,47
 1516 424 1516 424 1516.00488281 423.064453125 c 132,-1,48
 1516 422 1516 422 1516 420.456054688 c 4,49,50
 1515 303 1515 303 1483.56640625 215.84375 c 4,51,52
 1452 128 1452 128 1387.53125 72.2060546875 c 4,53,54
 1307 1 1307 1 1174.72460938 0.9931640625 c 4,55,56
 1131 1 1131 1 1093.87304688 8.732421875 c 4,57,58
 1056 16 1056 16 1025.12402344 31.7763671875 c 4,59,60
 994 47 994 47 969.182617188 70.1552734375 c 4,61,62
 944 93 944 93 926.971679688 123.625976562 c 5,63,64
 823 0 823 0 646.323242188 0 c 4,65,66
 444 1 444 1 370.008789062 121.662109375 c 5,67,68
 277 0 277 0 48.849609375 0 c 6,69,-1
 -6.9384765625 0 l 2,70,71
 -54 0 -54 0 -79.2861328125 28.916015625 c 0,72,73
 -104.778320312 57.7492664742 -104.778320312 57.7492664742 -104.778320312 108.313476562 c 2,74,-1
 -104.778320312 127.157226562 l 2,75,76
 -105 173 -105 173 -78.923828125 198.354492188 c 0,77,78
 -53.0009871598 223.999023438 -53.0009871598 223.999023438 -6.9384765625 223.999023438 c 2,79,-1
 51.00390625 223.999023438 l 6,80,81
 149 224 149 224 201.060546875 256.704101562 c 4,82,83
 254 289 254 289 267.344726562 355.104492188 c 4,84,85
 273 382 273 382 272.716796875 421.467773438 c 4,86,87
 273 442 273 442 271.836914062 464.786132812 c 4,88,89
 271.112202696 484.021849805 271.112202696 484.021849805 268.624023438 511.99609375 c 6,90,-1
 263.223632812 572.711914062 l 5,91,-1
 261.5 592.080078125 l 5,92,-1
 280.813476562 594.346679688 l 5,93,-1
 445.5390625 613.6796875 l 5,94,-1
 466.3671875 616.125 l 5,95,-1
 467.822265625 595.203125 l 5,96,-1
 483.892578125 364.037109375 l 6,97,98
 489 292 489 292 528.362304688 258.018554688 c 4,99,100
 568 224 568 224 648.073242188 224.073242188 c 4,101,102
 678 224 678 224 702.06640625 229.13671875 c 4,103,104
 726 234 726 234 745.427734375 244.450195312 c 132,-1,105
 765 255 765 255 778.813476562 270.404296875 c 4,106,107
 793 286 793 286 802.633789062 307.092773438 c 4,108,0
 812 328 812 328 817.54296875 354.905273438 c 132,-1,1
EndSplineSet
EndChar

StartChar: uniFEB4
Encoding: 65204 65204 191
GlifName: uniF_E_B_4
Width: 1688
VWidth: 2965
GlyphClass: 2
Flags: WO
AnchorPoint: "Anchor-7" 759.534 -216.974 basechar 0
AnchorPoint: "Anchor-10" 829.961 1400.67 basechar 0
LayerCount: 2
Fore
SplineSet
1034.12988281 364.018554688 m 6,0,1
 1039.14693784 291.853079134 1039.14693784 291.853079134 1072.82128906 258.182617188 c 4,2,3
 1106 225 1106 225 1173.36816406 224.579101562 c 4,4,5
 1239 225 1239 225 1270.84765625 267.37890625 c 4,6,7
 1303 310 1303 310 1302.38769531 404.140625 c 4,8,9
 1302 443 1302 443 1300.96582031 475.083007812 c 4,10,11
 1300.12587641 502.840223831 1300.12587641 502.840223831 1297.48828125 532.4765625 c 6,12,-1
 1292.0703125 593.353515625 l 5,13,-1
 1290.34765625 612.708984375 l 5,14,-1
 1309.64453125 614.989257812 l 5,15,-1
 1474.47265625 634.461914062 l 5,16,-1
 1495.00585938 636.887695312 l 5,17,-1
 1496.74804688 616.28515625 l 5,18,-1
 1512.73632812 427.192382812 l 6,19,20
 1517 374 1517 374 1529.99023438 335.2578125 c 4,21,22
 1543 297 1543 297 1563.53710938 272.016601562 c 132,-1,23
 1584 247 1584 247 1612.82226562 235.708984375 c 4,24,25
 1641.01439746 223.994017275 1641.01439746 223.994017275 1678.31640625 223.998046875 c 6,26,-1
 1696.39648438 224 l 6,27,28
 1706 224 1706 224 1713.44042969 220.224609375 c 4,29,30
 1721 216 1721 216 1724.88769531 207.850585938 c 4,31,32
 1729 199 1729 199 1731.64453125 191.921875 c 4,33,34
 1734 185 1734 185 1735.16015625 170.640625 c 4,35,36
 1736 157 1736 157 1736.30273438 149.504882812 c 4,37,38
 1736 142 1736 142 1736.48632812 127.173828125 c 6,39,-1
 1736.48632812 108.306640625 l 6,40,41
 1736 106 1736 106 1736.45800781 101.364257812 c 4,42,43
 1736 0 1736 0 1696.40527344 0 c 6,44,-1
 1680.08007812 0 l 6,45,46
 1494 0 1494 0 1428.26464844 118.8125 c 5,47,48
 1347 0 1347 0 1179 0 c 4,49,50
 1005 0 1005 0 927.875 124.69921875 c 5,51,52
 875 62 875 62 804.805664062 31.16015625 c 4,53,54
 734 0 734 0 646.323242188 0 c 4,55,56
 444 1 444 1 370.008789062 121.662109375 c 5,57,58
 277 0 277 0 48.849609375 0 c 6,59,-1
 -6.9384765625 0 l 2,60,61
 -54 0 -54 0 -79.2861328125 28.916015625 c 0,62,63
 -104.778320312 57.7492664742 -104.778320312 57.7492664742 -104.778320312 108.313476562 c 2,64,-1
 -104.778320312 127.157226562 l 2,65,66
 -105 173 -105 173 -78.923828125 198.354492188 c 0,67,68
 -53.0009871598 223.999023438 -53.0009871598 223.999023438 -6.9384765625 223.999023438 c 2,69,-1
 51.00390625 223.999023438 l 6,70,71
 149 224 149 224 201.827148438 256.715820312 c 4,72,73
 255 289 255 289 268.352539062 355.142578125 c 4,74,75
 273 377 273 377 272.716796875 421.475585938 c 4,76,77
 272.998717999 462.812027748 272.998717999 462.812027748 268.624023438 511.99609375 c 6,78,-1
 263.223632812 572.711914062 l 5,79,-1
 261.5 592.080078125 l 5,80,-1
 280.813476562 594.346679688 l 5,81,-1
 445.5390625 613.6796875 l 5,82,-1
 466.3671875 616.125 l 5,83,-1
 467.822265625 595.203125 l 5,84,-1
 483.892578125 364.037109375 l 6,85,86
 489 292 489 292 528.362304688 258.018554688 c 4,87,88
 568 224 568 224 648.073242188 224.073242188 c 4,89,90
 686 224 686 224 714.34375 231.950195312 c 4,91,92
 743 240 743 240 764.12109375 256.134765625 c 4,93,94
 785 272 785 272 798.501953125 296.883789062 c 4,95,96
 812 321 812 321 818.543945312 354.908203125 c 4,97,98
 823 377 823 377 822.953125 421.455078125 c 4,99,100
 823.000467952 465.434708187 823.000467952 465.434708187 818.860351562 511.981445312 c 6,101,-1
 813.459960938 572.697265625 l 5,102,-1
 811.736328125 592.065429688 l 5,103,-1
 831.049804688 594.33203125 l 5,104,-1
 995.775390625 613.665039062 l 5,105,-1
 1016.60351562 616.110351562 l 5,106,-1
 1018.05859375 595.188476562 l 5,107,-1
 1034.12988281 364.018554688 l 6,0,1
EndSplineSet
EndChar

StartChar: uniFEBA
Encoding: 65210 65210 197
GlifName: uniF_E_B_A_
Width: 2666
VWidth: 2972
GlyphClass: 2
Flags: W
AnchorPoint: "Anchor-10" 2084.53 1397.1 basechar 0
AnchorPoint: "Anchor-7" 595.902 -780.086 basechar 0
LayerCount: 2
Fore
SplineSet
2674.37109375 224 m 2,0,1
 2684.16992188 224 2684.16992188 224 2691.41992188 220.221679688 c 128,-1,2
 2698.66894531 216.443359375 2698.66894531 216.443359375 2702.87402344 207.858398438 c 128,-1,3
 2707.078125 199.272460938 2707.078125 199.272460938 2709.63769531 191.924804688 c 128,-1,4
 2712.19726562 184.577148438 2712.19726562 184.577148438 2713.15917969 170.651367188 c 128,-1,5
 2714.12207031 156.7265625 2714.12207031 156.7265625 2714.30761719 149.5078125 c 128,-1,6
 2714.49316406 142.288085938 2714.49316406 142.288085938 2714.49316406 127.174804688 c 2,7,-1
 2714.49316406 108.25 l 2,8,9
 2714.48046875 105.958984375 2714.48046875 105.958984375 2714.46386719 101.311523438 c 0,10,11
 2714.38085938 77.3017578125 2714.38085938 77.3017578125 2713.58789062 64.5390625 c 128,-1,12
 2712.79492188 51.775390625 2712.79492188 51.775390625 2709.39550781 34.033203125 c 128,-1,13
 2705.99609375 16.291015625 2705.99609375 16.291015625 2697.26367188 8.1455078125 c 128,-1,14
 2688.53027344 0 2688.53027344 0 2674.41210938 0 c 2,15,-1
 2650.2265625 0 l 2,16,17
 2403.56738281 0 2403.56738281 0 2295.125 77.9677734375 c 1,18,19
 2143.11230469 0 2143.11230469 0 1773.15136719 0 c 2,20,-1
 1722.34082031 0 l 2,21,22
 1614.47070312 0 1614.47070312 0 1530.88183594 11.447265625 c 128,-1,23
 1447.29296875 22.8935546875 1447.29296875 22.8935546875 1388.97753906 45.7958984375 c 1,24,25
 1381.68066406 -81.7431640625 1381.68066406 -81.7431640625 1321.88769531 -205.663085938 c 0,26,27
 1170.56542969 -520.0078125 1170.56542969 -520.0078125 706.509765625 -519.724609375 c 0,28,29
 398.703125 -519.354492188 398.703125 -519.354492188 240.806640625 -373.749023438 c 128,-1,30
 82.91015625 -228.142578125 82.91015625 -228.142578125 81.7587890625 57.9267578125 c 0,31,32
 80.9853515625 267.9453125 80.9853515625 267.9453125 184.552734375 517.784179688 c 2,33,-1
 192.196289062 536.221679688 l 1,34,-1
 210.649414062 528.616210938 l 1,35,-1
 369.169921875 463.278320312 l 1,36,-1
 387.352539062 455.783203125 l 1,37,-1
 380.165039062 437.477539062 l 2,38,39
 298.005859375 228.229492188 298.005859375 228.229492188 298.26953125 61.8017578125 c 0,40,41
 298.620117188 -124.577148438 298.620117188 -124.577148438 402.829101562 -214.803710938 c 128,-1,42
 507.038085938 -305.029296875 507.038085938 -305.029296875 722.733398438 -303.166992188 c 0,43,44
 949.140625 -301.143554688 949.140625 -301.143554688 1059.47167969 -196.553710938 c 128,-1,45
 1169.80273438 -91.96484375 1169.80273438 -91.96484375 1170.55273438 120.165039062 c 0,46,47
 1170.98925781 300.4296875 1170.98925781 300.4296875 1082.45019531 483.04296875 c 2,48,-1
 1072.65527344 503.244140625 l 1,49,-1
 1093.84960938 510.649414062 l 1,50,-1
 1266.49121094 570.966796875 l 1,51,-1
 1285.953125 577.766601562 l 1,52,-1
 1292.16015625 558.107421875 l 1,53,-1
 1360.06835938 343.032226562 l 2,54,55
 1368.42675781 316.610351562 1368.42675781 316.610351562 1379.11914062 297.8359375 c 128,-1,56
 1389.81152344 279.061523438 1389.81152344 279.061523438 1400.71679688 269.200195312 c 128,-1,57
 1411.62109375 259.33984375 1411.62109375 259.33984375 1423.78613281 255.416992188 c 1,58,59
 1782.453125 854.970703125 1782.453125 854.970703125 2149.77539062 856.423828125 c 0,60,61
 2193.05175781 856.543945312 2193.05175781 856.543945312 2232.65136719 849.916015625 c 128,-1,62
 2272.25097656 843.288085938 2272.25097656 843.288085938 2308.03320312 829.912109375 c 128,-1,63
 2343.81640625 816.536132812 2343.81640625 816.536132812 2375.62988281 796.5078125 c 128,-1,64
 2407.44238281 776.478515625 2407.44238281 776.478515625 2435.25488281 749.697265625 c 128,-1,65
 2463.06640625 722.916015625 2463.06640625 722.916015625 2486.61621094 689.575195312 c 0,66,67
 2521.74316406 639.540039062 2521.74316406 639.540039062 2539.38671875 582.370117188 c 128,-1,68
 2557.02929688 525.201171875 2557.02929688 525.201171875 2557.06152344 461.598632812 c 0,69,70
 2557.046875 432.303710938 2557.046875 432.303710938 2552.36328125 403.159179688 c 128,-1,71
 2547.68066406 374.015625 2547.68066406 374.015625 2538.52636719 345.71484375 c 128,-1,72
 2529.37109375 317.4140625 2529.37109375 317.4140625 2515.9453125 289.939453125 c 128,-1,73
 2502.52050781 262.465820312 2502.52050781 262.465820312 2484.91992188 236.024414062 c 1,74,75
 2499.59570312 232.19140625 2499.59570312 232.19140625 2523.2890625 229.528320312 c 128,-1,76
 2546.98144531 226.865234375 2546.98144531 226.865234375 2580.54296875 225.432617188 c 128,-1,77
 2614.10449219 224 2614.10449219 224 2655.73828125 224 c 2,78,-1
 2674.37109375 224 l 2,0,1
1661.37890625 224.416992188 m 1,79,-1
 1778.78027344 224.416992188 l 2,80,81
 2079.97265625 224.009765625 2079.97265625 224.009765625 2198.55859375 276.307617188 c 0,82,83
 2333.87011719 335.981445312 2333.87011719 335.981445312 2332.66992188 456.9375 c 0,84,85
 2332.06933594 515.1953125 2332.06933594 515.1953125 2302.04101562 554.887695312 c 0,86,87
 2275.39648438 589.6875 2275.39648438 589.6875 2238.38867188 606.998046875 c 128,-1,88
 2201.38183594 624.30859375 2201.38183594 624.30859375 2152.08789062 624.573242188 c 0,89,90
 1923.71972656 624.045898438 1923.71972656 624.045898438 1661.37890625 224.416992188 c 1,79,-1
EndSplineSet
EndChar

StartChar: uniFEBB
Encoding: 65211 65211 198
GlifName: uniF_E_B_B_
Width: 1720
VWidth: 2972
GlyphClass: 2
Flags: W
AnchorPoint: "Anchor-10" 1160.91 1396.52 basechar 0
AnchorPoint: "Anchor-7" 699.209 -220.348 basechar 0
LayerCount: 2
Fore
SplineSet
744.430664062 224.416992188 m 1,0,-1
 861.762695312 224.416992188 l 2,1,2
 1164.73925781 224.005859375 1164.73925781 224.005859375 1281.49609375 276.288085938 c 0,3,4
 1304.46777344 286.399414062 1304.46777344 286.399414062 1323.33691406 298.065429688 c 128,-1,5
 1342.20703125 309.732421875 1342.20703125 309.732421875 1357.06640625 323.043945312 c 128,-1,6
 1371.92578125 336.35546875 1371.92578125 336.35546875 1382.91308594 351.255859375 c 128,-1,7
 1393.89941406 366.15625 1393.89941406 366.15625 1401.13574219 382.895507812 c 128,-1,8
 1408.37207031 399.633789062 1408.37207031 399.633789062 1411.96289062 417.984375 c 128,-1,9
 1415.55371094 436.334960938 1415.55371094 436.334960938 1415.65234375 456.705078125 c 0,10,11
 1415.96386719 514.294921875 1415.96386719 514.294921875 1385.04492188 554.860351562 c 0,12,13
 1332.08203125 624.052734375 1332.08203125 624.052734375 1235.0703125 624.573242188 c 0,14,15
 1161.04199219 624.401367188 1161.04199219 624.401367188 1082.39257812 581.186523438 c 128,-1,16
 1003.74316406 537.971679688 1003.74316406 537.971679688 918.454101562 448.46875 c 128,-1,17
 833.165039062 358.96484375 833.165039062 358.96484375 744.430664062 224.416992188 c 1,0,-1
347.325195312 131.724609375 m 1,18,19
 233.989257812 0 233.989257812 0 9.984375 0 c 2,20,-1
 -6.9384765625 0 l 2,21,22
 -53.79296875 0 -53.79296875 0 -79.2861328125 28.916015625 c 128,-1,23
 -104.778320312 57.83203125 -104.778320312 57.83203125 -104.778320312 108.313476562 c 2,24,-1
 -104.778320312 127.157226562 l 2,25,26
 -104.91015625 172.796875 -104.91015625 172.796875 -78.634765625 198.3984375 c 128,-1,27
 -52.3583984375 224 -52.3583984375 224 -5.9384765625 224 c 2,28,-1
 10.1103515625 224 l 2,29,30
 217.123046875 224 217.123046875 224 236.836914062 339.5546875 c 0,31,32
 242.993164062 375.655273438 242.993164062 375.655273438 242.810546875 423.830078125 c 0,33,34
 242.873046875 438.76953125 242.873046875 438.76953125 242.587890625 453.55078125 c 128,-1,35
 242.301757812 468.33203125 242.301757812 468.33203125 241.66796875 483.001953125 c 128,-1,36
 241.03515625 497.672851562 241.03515625 497.672851562 240.049804688 512.340820312 c 2,37,-1
 234.559570312 594.096679688 l 1,38,-1
 233.284179688 613.08203125 l 1,39,-1
 252.182617188 615.299804688 l 1,40,-1
 416.989257812 634.647460938 l 1,41,-1
 437.666992188 637.075195312 l 1,42,-1
 439.262695312 616.317382812 l 1,43,-1
 457.109375 384.16796875 l 2,44,45
 459.137695312 357.013671875 459.137695312 357.013671875 463.8515625 335.173828125 c 128,-1,46
 468.565429688 313.333984375 468.565429688 313.333984375 475.392578125 298.180664062 c 128,-1,47
 482.21875 283.02734375 482.21875 283.02734375 490.361328125 273.094726562 c 128,-1,48
 498.502929688 263.162109375 498.502929688 263.162109375 508.1875 257.793945312 c 1,49,50
 867.174804688 857.010742188 867.174804688 857.010742188 1232.35546875 856.42578125 c 0,51,52
 1453.44433594 855.978515625 1453.44433594 855.978515625 1569.66796875 689.474609375 c 0,53,54
 1639.03027344 589.19921875 1639.03027344 589.19921875 1638.45214844 469.094726562 c 0,55,56
 1638.29394531 450.178710938 1638.29394531 450.178710938 1636.63085938 430.603515625 c 128,-1,57
 1634.96875 411.02734375 1634.96875 411.02734375 1631.81445312 390.802734375 c 128,-1,58
 1628.66113281 370.579101562 1628.66113281 370.579101562 1623.99414062 349.473632812 c 0,59,60
 1542.88964844 0 1542.88964844 0 856.133789062 0 c 2,61,-1
 805.323242188 0 l 2,62,63
 453.54296875 0 453.54296875 0 347.325195312 131.724609375 c 1,18,19
EndSplineSet
EndChar

